SplineFontDB: 3.2
FontName: Montserrat-BoldItalic
FullName: Montserrat Bold Italic
FamilyName: Montserrat
Weight: Bold
Copyright: Copyright 2011 The Montserrat Project Authors (https://github.com/JulietaUla/Montserrat)
Version: 9.000
ItalicAngle: -11.3
UnderlinePosition: -125
UnderlineWidth: 50
Ascent: 800
Descent: 200
InvalidEm: 0
sfntRevision: 0x00090000
LayerCount: 2
Layer: 0 1 "Back" 1
Layer: 1 1 "Fore" 0
XUID: [1021 598 623987363 14538694]
StyleMap: 0x0021
FSType: 0
OS2Version: 4
OS2_WeightWidthSlopeOnly: 0
OS2_UseTypoMetrics: 1
CreationTime: 1624264748
ModificationTime: 1775133954
PfmFamily: 81
TTFWeight: 700
TTFWidth: 5
LineGap: 0
VLineGap: 0
Panose: 0 0 0 0 0 0 0 0 0 0
OS2TypoAscent: 968
OS2TypoAOffset: 0
OS2TypoDescent: -251
OS2TypoDOffset: 0
OS2TypoLinegap: 0
OS2WinAscent: 1109
OS2WinAOffset: 0
OS2WinDescent: 453
OS2WinDOffset: 0
HheadAscent: 968
HheadAOffset: 0
HheadDescent: -251
HheadDOffset: 0
OS2SubXSize: 650
OS2SubYSize: 600
OS2SubXOff: -15
OS2SubYOff: 75
OS2SupXSize: 650
OS2SupYSize: 600
OS2SupXOff: 70
OS2SupYOff: 350
OS2StrikeYSize: 50
OS2StrikeYPos: 323
OS2CapHeight: 700
OS2XHeight: 538
OS2Vendor: 'ULA '
OS2CodePages: 20000197.00000000
OS2UnicodeRanges: a00002ff.4000247b.00000000.00000000
Lookup: 1 0 0 "'rvrn' Required Variation Alternates lookup 0" { "'rvrn' Required Variation Alternates lookup 0 subtable"  } ['rvrn' ('DFLT' <'NAV ' 'dflt' > 'cyrl' <'BGR ' 'BSH ' 'CHU ' 'MKD ' 'SRB ' 'dflt' > 'latn' <'AZE ' 'CAT ' 'CRT ' 'KAZ ' 'MOL ' 'NAV ' 'NLD ' 'NSM ' 'ROM ' 'TAT ' 'TOD0' 'TRK ' 'VIT ' 'XPE ' 'dflt' > ) ]
Lookup: 1 0 0 "'rvrn' Required Variation Alternates lookup 1" { "'rvrn' Required Variation Alternates lookup 1 subtable"  } ['rvrn' ('DFLT' <'NAV ' 'dflt' > 'cyrl' <'BGR ' 'BSH ' 'CHU ' 'MKD ' 'SRB ' 'dflt' > 'latn' <'AZE ' 'CAT ' 'CRT ' 'KAZ ' 'MOL ' 'NAV ' 'NLD ' 'NSM ' 'ROM ' 'TAT ' 'TOD0' 'TRK ' 'VIT ' 'XPE ' 'dflt' > ) ]

StartChar: .notdef
Encoding: 65536 -1 0
Width: 607
GlyphClass: 1
Flags: W
LayerCount: 2
Fore
SplineSet
-4 0 m 1,0,-1
 136 700 l 1,1,-1
 643 700 l 1,2,-1
 503 0 l 1,3,-1
 -4 0 l 1,0,-1
90 70 m 1,4,-1
 437 70 l 1,5,-1
 549 630 l 1,6,-1
 202 630 l 1,7,-1
 90 70 l 1,4,-1
EndSplineSet
EndChar

StartChar: A
Encoding: 65 65 1
Width: 786
GlyphClass: 2
Flags: W
AnchorPoint: "Anchor-3" 479 700 basechar 0
AnchorPoint: "Anchor-2" 732 0 basechar 0
AnchorPoint: "Anchor-0" 339 0 basechar 0
LayerCount: 2
Fore
SplineSet
-53 0 m 1,0,-1
 399 700 l 1,1,-1
 560 700 l 1,2,-1
 732 0 l 1,3,-1
 570 0 l 1,4,-1
 434 620 l 1,5,-1
 498 620 l 1,6,-1
 120 0 l 1,7,-1
 -53 0 l 1,0,-1
134 150 m 1,8,-1
 200 273 l 1,9,-1
 561 273 l 1,10,-1
 580 150 l 1,11,-1
 134 150 l 1,8,-1
EndSplineSet
Substitution2: "'ss01' Style Set 1 lookup 53 subtable" A.ss01
Substitution2: "'c2sc' Capitals to Small Capitals lookup 48 subtable" a.sc
Substitution2: "Single Substitution lookup 42 subtable" ordfeminine
AlternateSubs2: "'aalt' Access All Alternates lookup 4 subtable" ordfeminine a.sc A.ss01
EndChar

StartChar: uni2C6D
Encoding: 11373 11373 25
Width: 905
GlyphClass: 2
Flags: W
AnchorPoint: "Anchor-3" 544 700 basechar 0
AnchorPoint: "Anchor-2" 759 0 basechar 0
AnchorPoint: "Anchor-0" 404 0 basechar 0
LayerCount: 2
Fore
SplineSet
374 -11 m 256,0,1
 281 -11 281 -11 211 28.5 c 128,-1,2
 141 68 141 68 101.5 139.5 c 128,-1,3
 62 211 62 211 62 304 c 0,4,5
 62 389 62 389 94 463 c 128,-1,6
 126 537 126 537 183 593 c 128,-1,7
 240 649 240 649 315 680.5 c 128,-1,8
 390 712 390 712 477 712 c 0,9,10
 580 712 580 712 647 666 c 128,-1,11
 714 620 714 620 739 535.5 c 128,-1,12
 764 451 764 451 741 334 c 0,13,14
 720 226 720 226 668.5 148.5 c 128,-1,15
 617 71 617 71 542 30 c 128,-1,16
 467 -11 467 -11 374 -11 c 256,0,1
409 126 m 0,17,18
 475 126 475 126 530.5 154.5 c 128,-1,19
 586 183 586 183 623 233.5 c 128,-1,20
 660 284 660 284 671 349 c 256,21,22
 682 414 682 414 662 465 c 128,-1,23
 642 516 642 516 596.5 545 c 128,-1,24
 551 574 551 574 485 574 c 0,25,26
 430 574 430 574 383 554 c 128,-1,27
 336 534 336 534 300.5 498.5 c 128,-1,28
 265 463 265 463 245.5 415 c 128,-1,29
 226 367 226 367 226 312 c 0,30,31
 226 225 226 225 275.5 175.5 c 128,-1,32
 325 126 325 126 409 126 c 0,17,18
603 0 m 1,33,-1
 637 169 l 1,34,-1
 680 352 l 1,35,-1
 703 535 l 1,36,-1
 736 700 l 1,37,-1
 899 700 l 1,38,-1
 759 0 l 1,39,-1
 603 0 l 1,33,-1
EndSplineSet
Substitution2: "'c2sc' Capitals to Small Capitals lookup 48 subtable" uni0251.sc
Substitution2: "'aalt' Access All Alternates lookup 3 subtable" uni0251.sc
EndChar

StartChar: uni023A
Encoding: 570 570 31
Width: 774
GlyphClass: 1
Flags: W
LayerCount: 2
Fore
SplineSet
174 -70 m 1,0,-1
 694 770 l 1,1,-1
 793 770 l 1,2,-1
 274 -70 l 1,3,-1
 174 -70 l 1,0,-1
131 158 m 1,4,-1
 192 267 l 1,5,-1
 560 267 l 1,6,-1
 578 158 l 1,7,-1
 131 158 l 1,4,-1
-53 0 m 1,8,-1
 400 700 l 1,9,-1
 546 700 l 1,10,-1
 720 0 l 1,11,-1
 569 0 l 1,12,-1
 431 627 l 1,13,-1
 490 627 l 1,14,-1
 102 0 l 1,15,-1
 -53 0 l 1,8,-1
EndSplineSet
Substitution2: "'ss01' Style Set 1 lookup 53 subtable" uni023A.ss01
Substitution2: "'c2sc' Capitals to Small Capitals lookup 48 subtable" uni2C65.sc
AlternateSubs2: "'aalt' Access All Alternates lookup 4 subtable" uni2C65.sc uni023A.ss01
Substitution2: "'rvrn' Required Variation Alternates lookup 0 subtable" uni023A.BRACKET.varAlt01
EndChar

StartChar: uni2C6F
Encoding: 11375 11375 33
Width: 786
GlyphClass: 2
Flags: W
AnchorPoint: "Anchor-3" 479 700 basechar 0
AnchorPoint: "Anchor-0" 339 0 basechar 0
LayerCount: 2
Fore
SplineSet
872 700 m 1,0,-1
 419 0 l 1,1,-1
 259 0 l 1,2,-1
 87 700 l 1,3,-1
 249 700 l 1,4,-1
 385 80 l 1,5,-1
 321 80 l 1,6,-1
 699 700 l 1,7,-1
 872 700 l 1,0,-1
685 550 m 1,8,-1
 619 427 l 1,9,-1
 258 427 l 1,10,-1
 239 550 l 1,11,-1
 685 550 l 1,8,-1
EndSplineSet
Substitution2: "'ss01' Style Set 1 lookup 53 subtable" uni2C6F.ss01
Substitution2: "'c2sc' Capitals to Small Capitals lookup 48 subtable" uni0250.sc
AlternateSubs2: "'aalt' Access All Alternates lookup 4 subtable" uni0250.sc uni2C6F.ss01
EndChar

StartChar: AE
Encoding: 198 198 34
Width: 1102
GlyphClass: 2
Flags: W
AnchorPoint: "Anchor-3" 735 700 basechar 0
AnchorPoint: "Anchor-2" 993 0 basechar 0
AnchorPoint: "Anchor-0" 531 0 basechar 0
LayerCount: 2
Fore
SplineSet
-54 0 m 1,0,-1
 476 700 l 1,1,-1
 646 700 l 1,2,-1
 621 571 l 1,3,-1
 482 571 l 1,4,-1
 597 638 l 1,5,-1
 124 0 l 1,6,-1
 -54 0 l 1,0,-1
186 150 m 1,7,-1
 213 273 l 1,8,-1
 560 273 l 1,9,-1
 537 150 l 1,10,-1
 186 150 l 1,7,-1
451 0 m 1,11,-1
 591 700 l 1,12,-1
 1119 700 l 1,13,-1
 1093 570 l 1,14,-1
 725 570 l 1,15,-1
 637 130 l 1,16,-1
 1019 130 l 1,17,-1
 993 0 l 1,18,-1
 451 0 l 1,11,-1
657 292 m 1,19,-1
 683 418 l 1,20,-1
 1020 418 l 1,21,-1
 995 292 l 1,22,-1
 657 292 l 1,19,-1
EndSplineSet
Substitution2: "'ss01' Style Set 1 lookup 53 subtable" AE.ss01
Substitution2: "'c2sc' Capitals to Small Capitals lookup 48 subtable" ae.sc
AlternateSubs2: "'aalt' Access All Alternates lookup 4 subtable" ae.sc AE.ss01
EndChar

StartChar: B
Encoding: 66 66 37
Width: 785
GlyphClass: 2
Flags: W
AnchorPoint: "Anchor-3" 475 700 basechar 0
AnchorPoint: "Anchor-0" 335 0 basechar 0
LayerCount: 2
Fore
SplineSet
39 0 m 1,0,-1
 179 700 l 1,1,-1
 517 700 l 2,2,3
 631 700 631 700 691.5 659 c 128,-1,4
 752 618 752 618 752 540 c 0,5,6
 752 474 752 474 717.5 429 c 128,-1,7
 683 384 683 384 626 361 c 128,-1,8
 569 338 569 338 502 338 c 1,9,-1
 528 378 l 1,10,11
 616 378 616 378 668.5 337.5 c 128,-1,12
 721 297 721 297 721 221 c 0,13,14
 721 147 721 147 680.5 97.5 c 128,-1,15
 640 48 640 48 569 24 c 128,-1,16
 498 0 498 0 406 0 c 2,17,-1
 39 0 l 1,0,-1
225 122 m 1,18,-1
 416 122 l 2,19,20
 483 122 483 122 521.5 147.5 c 128,-1,21
 560 173 560 173 560 223 c 0,22,23
 560 262 560 262 531.5 278.5 c 128,-1,24
 503 295 503 295 455 295 c 2,25,-1
 241 295 l 1,26,-1
 265 413 l 1,27,-1
 447 413 l 2,28,29
 489 413 489 413 519.5 424 c 128,-1,30
 550 435 550 435 566 457.5 c 128,-1,31
 582 480 582 480 582 512 c 0,32,33
 582 547 582 547 555 562.5 c 128,-1,34
 528 578 528 578 479 578 c 2,35,-1
 315 578 l 1,36,-1
 225 122 l 1,18,-1
EndSplineSet
Substitution2: "'c2sc' Capitals to Small Capitals lookup 48 subtable" b.sc
Substitution2: "'aalt' Access All Alternates lookup 3 subtable" b.sc
EndChar

StartChar: uniA7B4
Encoding: 42932 42932 40
Width: 785
GlyphClass: 2
Flags: W
AnchorPoint: "Anchor-3" 482 700 basechar 0
AnchorPoint: "Anchor-0" 342 0 basechar 0
LayerCount: 2
Fore
SplineSet
125 122 m 1,0,-1
 417 122 l 2,1,2
 484 122 484 122 522 147.5 c 128,-1,3
 560 173 560 173 560 223 c 0,4,5
 560 262 560 262 531.5 278.5 c 128,-1,6
 503 295 503 295 455 295 c 2,7,-1
 242 295 l 1,8,-1
 265 413 l 1,9,-1
 447 413 l 2,10,11
 489 413 489 413 519.5 424 c 128,-1,12
 550 435 550 435 566.5 457.5 c 128,-1,13
 583 480 583 480 583 512 c 0,14,15
 583 547 583 547 556 562.5 c 128,-1,16
 529 578 529 578 480 578 c 2,17,-1
 316 578 l 1,18,-1
 162 -194 l 1,19,-1
 1 -194 l 1,20,-1
 180 700 l 1,21,-1
 517 700 l 2,22,23
 632 700 632 700 692 659 c 128,-1,24
 752 618 752 618 752 540 c 0,25,26
 752 474 752 474 717.5 429 c 128,-1,27
 683 384 683 384 626.5 361 c 128,-1,28
 570 338 570 338 502 338 c 1,29,-1
 528 378 l 1,30,31
 616 378 616 378 669 337.5 c 128,-1,32
 722 297 722 297 722 221 c 0,33,34
 722 147 722 147 681 97.5 c 128,-1,35
 640 48 640 48 569 24 c 128,-1,36
 498 0 498 0 407 0 c 2,37,-1
 125 0 l 1,38,-1
 125 122 l 1,0,-1
EndSplineSet
Substitution2: "'c2sc' Capitals to Small Capitals lookup 48 subtable" uniA7B5.sc
Substitution2: "'aalt' Access All Alternates lookup 3 subtable" uniA7B5.sc
EndChar

StartChar: uni0181
Encoding: 385 385 41
Width: 989
GlyphClass: 2
Flags: W
AnchorPoint: "Anchor-3" 680 700 basechar 0
AnchorPoint: "Anchor-0" 540 0 basechar 0
LayerCount: 2
Fore
SplineSet
118 350 m 1,0,1
 84 411 84 411 81.5 472.5 c 128,-1,2
 79 534 79 534 104.5 586 c 128,-1,3
 130 638 130 638 180.5 669 c 128,-1,4
 231 700 231 700 303 700 c 2,5,-1
 391 700 l 1,6,-1
 365 568 l 1,7,-1
 309 568 l 2,8,9
 273 568 273 568 252 545 c 128,-1,10
 231 522 231 522 230 487.5 c 128,-1,11
 229 453 229 453 250 418 c 1,12,-1
 118 350 l 1,0,1
244 0 m 1,13,-1
 384 700 l 1,14,-1
 722 700 l 2,15,16
 836 700 836 700 896 659 c 128,-1,17
 956 618 956 618 956 540 c 0,18,19
 956 474 956 474 921.5 429 c 128,-1,20
 887 384 887 384 830.5 361 c 128,-1,21
 774 338 774 338 706 338 c 1,22,-1
 733 378 l 1,23,24
 821 378 821 378 873.5 337.5 c 128,-1,25
 926 297 926 297 926 221 c 0,26,27
 926 147 926 147 885 97.5 c 128,-1,28
 844 48 844 48 773 24 c 128,-1,29
 702 0 702 0 611 0 c 2,30,-1
 244 0 l 1,13,-1
429 122 m 1,31,-1
 621 122 l 2,32,33
 688 122 688 122 726 147.5 c 128,-1,34
 764 173 764 173 764 223 c 0,35,36
 764 262 764 262 736 278.5 c 128,-1,37
 708 295 708 295 659 295 c 2,38,-1
 446 295 l 1,39,-1
 469 413 l 1,40,-1
 652 413 l 2,41,42
 694 413 694 413 724 424 c 128,-1,43
 754 435 754 435 770.5 457.5 c 128,-1,44
 787 480 787 480 787 512 c 0,45,46
 787 547 787 547 760 562.5 c 128,-1,47
 733 578 733 578 684 578 c 2,48,-1
 520 578 l 1,49,-1
 429 122 l 1,31,-1
EndSplineSet
Substitution2: "'c2sc' Capitals to Small Capitals lookup 48 subtable" uni0253.sc
Substitution2: "'locl' Localized Forms in Latin lookup 22 subtable" uni0181.loclXPE
AlternateSubs2: "'aalt' Access All Alternates lookup 4 subtable" uni0181.loclXPE uni0253.sc
EndChar

StartChar: uni0243
Encoding: 579 579 43
Width: 806
GlyphClass: 2
Flags: W
AnchorPoint: "Anchor-3" 497 700 basechar 0
AnchorPoint: "Anchor-0" 357 0 basechar 0
LayerCount: 2
Fore
SplineSet
60 0 m 1,0,-1
 200 700 l 1,1,-1
 542 700 l 2,2,3
 630 700 630 700 684 675 c 128,-1,4
 738 650 738 650 760 606 c 128,-1,5
 782 562 782 562 771 508 c 0,6,7
 760 453 760 453 725 415.5 c 128,-1,8
 690 378 690 378 638.5 359.5 c 128,-1,9
 587 341 587 341 526 342 c 1,10,-1
 553 382 l 1,11,12
 618 381 618 381 664.5 356 c 128,-1,13
 711 331 711 331 731.5 287.5 c 128,-1,14
 752 244 752 244 740 187 c 0,15,16
 722 97 722 97 641 48.5 c 128,-1,17
 560 0 560 0 422 0 c 2,18,-1
 60 0 l 1,0,-1
3 162 m 1,19,-1
 23 262 l 1,20,-1
 172 262 l 1,21,-1
 202 256 l 1,22,-1
 400 256 l 1,23,-1
 383 168 l 1,24,-1
 185 168 l 1,25,-1
 152 162 l 1,26,-1
 3 162 l 1,19,-1
244 120 m 1,27,-1
 434 120 l 2,28,29
 496 120 496 120 534 142.5 c 128,-1,30
 572 165 572 165 581 210 c 0,31,32
 590 257 590 257 562 280.5 c 128,-1,33
 534 304 534 304 471 304 c 2,34,-1
 270 304 l 1,35,-1
 292 415 l 1,36,-1
 465 415 l 2,37,38
 524 415 524 415 559.5 434.5 c 128,-1,39
 595 454 595 454 603 496 c 0,40,41
 611 537 611 537 584 557.5 c 128,-1,42
 557 578 557 578 497 578 c 2,43,-1
 336 578 l 1,44,-1
 244 120 l 1,27,-1
EndSplineSet
Substitution2: "'c2sc' Capitals to Small Capitals lookup 48 subtable" uni0180.sc
Substitution2: "'aalt' Access All Alternates lookup 3 subtable" uni0180.sc
EndChar

StartChar: uni0182
Encoding: 386 386 44
Width: 785
GlyphClass: 2
Flags: W
AnchorPoint: "Anchor-3" 475 700 basechar 0
AnchorPoint: "Anchor-0" 335 0 basechar 0
LayerCount: 2
Fore
SplineSet
39 0 m 1,0,-1
 179 700 l 1,1,-1
 758 700 l 1,2,-1
 733 578 l 1,3,-1
 315 578 l 1,4,-1
 225 122 l 1,5,-1
 418 122 l 2,6,7
 462 122 462 122 493.5 134 c 128,-1,8
 525 146 525 146 542.5 169 c 128,-1,9
 560 192 560 192 560 224 c 0,10,11
 560 263 560 263 532.5 280.5 c 128,-1,12
 505 298 505 298 453 298 c 2,13,-1
 248 298 l 1,14,-1
 271 416 l 1,15,-1
 489 416 l 2,16,17
 596 415 596 415 659 371.5 c 128,-1,18
 722 328 722 328 722 235 c 0,19,20
 722 159 722 159 680.5 106.5 c 128,-1,21
 639 54 639 54 567.5 27 c 128,-1,22
 496 0 496 0 405 0 c 2,23,-1
 39 0 l 1,0,-1
EndSplineSet
Substitution2: "'c2sc' Capitals to Small Capitals lookup 48 subtable" uni0183.sc
Substitution2: "'aalt' Access All Alternates lookup 3 subtable" uni0183.sc
EndChar

StartChar: C
Encoding: 67 67 45
Width: 753
GlyphClass: 2
Flags: W
AnchorPoint: "Anchor-3" 510 700 basechar 0
AnchorPoint: "Anchor-0" 364 0 basechar 0
LayerCount: 2
Fore
SplineSet
407 -12 m 0,0,1
 300 -12 300 -12 222.5 26.5 c 128,-1,2
 145 65 145 65 103 133.5 c 128,-1,3
 61 202 61 202 61 292 c 0,4,5
 61 381 61 381 92.5 458 c 128,-1,6
 124 535 124 535 181.5 591.5 c 128,-1,7
 239 648 239 648 318.5 680 c 128,-1,8
 398 712 398 712 496 712 c 0,9,10
 590 712 590 712 662 680 c 128,-1,11
 734 648 734 648 771 588 c 1,12,-1
 654 492 l 1,13,14
 627 532 627 532 585 553 c 128,-1,15
 543 574 543 574 485 574 c 0,16,17
 426 574 426 574 378 553.5 c 128,-1,18
 330 533 330 533 295.5 495.5 c 128,-1,19
 261 458 261 458 243 408 c 128,-1,20
 225 358 225 358 225 302 c 0,21,22
 225 249 225 249 248 209.5 c 128,-1,23
 271 170 271 170 315 148 c 128,-1,24
 359 126 359 126 421 126 c 0,25,26
 475 126 475 126 522 145.5 c 128,-1,27
 569 165 569 165 607 207 c 1,28,-1
 703 109 l 1,29,30
 648 45 648 45 572.5 16.5 c 128,-1,31
 497 -12 497 -12 407 -12 c 0,0,1
EndSplineSet
Substitution2: "'c2sc' Capitals to Small Capitals lookup 48 subtable" c.sc
Substitution2: "'aalt' Access All Alternates lookup 3 subtable" c.sc
EndChar

StartChar: uniA792
Encoding: 42898 42898 47
Width: 815
GlyphClass: 2
Flags: W
AnchorPoint: "Anchor-3" 572 700 basechar 0
AnchorPoint: "Anchor-0" 426 0 basechar 0
LayerCount: 2
Fore
SplineSet
469 -12 m 0,0,1
 362 -12 362 -12 284.5 26.5 c 128,-1,2
 207 65 207 65 165.5 133.5 c 128,-1,3
 124 202 124 202 124 292 c 0,4,5
 124 381 124 381 155 458 c 128,-1,6
 186 535 186 535 243.5 591.5 c 128,-1,7
 301 648 301 648 381 680 c 128,-1,8
 461 712 461 712 558 712 c 0,9,10
 652 712 652 712 724 680 c 128,-1,11
 796 648 796 648 833 588 c 1,12,-1
 716 492 l 1,13,14
 689 532 689 532 647 553 c 128,-1,15
 605 574 605 574 547 574 c 0,16,17
 488 574 488 574 440 553.5 c 128,-1,18
 392 533 392 533 358 495.5 c 128,-1,19
 324 458 324 458 305.5 408 c 128,-1,20
 287 358 287 358 287 302 c 0,21,22
 287 249 287 249 310 209.5 c 128,-1,23
 333 170 333 170 377 148 c 128,-1,24
 421 126 421 126 483 126 c 0,25,26
 537 126 537 126 584 145.5 c 128,-1,27
 631 165 631 165 669 207 c 1,28,-1
 765 109 l 1,29,30
 710 45 710 45 635 16.5 c 128,-1,31
 560 -12 560 -12 469 -12 c 0,0,1
29 303 m 1,32,-1
 50 412 l 1,33,-1
 455 412 l 1,34,-1
 434 303 l 1,35,-1
 29 303 l 1,32,-1
EndSplineSet
Substitution2: "'c2sc' Capitals to Small Capitals lookup 48 subtable" uniA793.sc
Substitution2: "'aalt' Access All Alternates lookup 3 subtable" uniA793.sc
EndChar

StartChar: uniA7B3
Encoding: 42931 42931 53
Width: 632
GlyphClass: 1
Flags: W
LayerCount: 2
Fore
SplineSet
661 -130 m 1,0,1
 615 -169 615 -169 566.5 -188.5 c 128,-1,2
 518 -208 518 -208 475 -205 c 128,-1,3
 432 -202 432 -202 399.5 -175 c 128,-1,4
 367 -148 367 -148 353 -97 c 2,5,-1
 277 156 l 1,6,-1
 240 228 l 1,7,-1
 134 525 l 2,8,9
 124 554 124 554 107 563.5 c 128,-1,10
 90 573 90 573 68.5 565.5 c 128,-1,11
 47 558 47 558 24 537 c 1,12,-1
 -34 636 l 1,13,14
 12 676 12 676 60 695 c 128,-1,15
 108 714 108 714 151.5 711 c 128,-1,16
 195 708 195 708 228 681.5 c 128,-1,17
 261 655 261 655 276 603 c 2,18,-1
 352 362 l 1,19,-1
 385 291 l 1,20,-1
 495 -19 l 2,21,22
 505 -47 505 -47 521.5 -56.5 c 128,-1,23
 538 -66 538 -66 559 -58.5 c 128,-1,24
 580 -51 580 -51 602 -30 c 1,25,-1
 661 -130 l 1,0,1
-132 -194 m 1,26,-1
 259 323 l 1,27,-1
 282 313 l 1,28,-1
 551 702 l 1,29,-1
 737 702 l 1,30,-1
 358 213 l 1,31,-1
 338 218 l 1,32,-1
 58 -194 l 1,33,-1
 -132 -194 l 1,26,-1
EndSplineSet
Substitution2: "'c2sc' Capitals to Small Capitals lookup 48 subtable" uniAB53.sc
Substitution2: "'aalt' Access All Alternates lookup 3 subtable" uniAB53.sc
EndChar

StartChar: uni0187
Encoding: 391 391 54
Width: 756
GlyphClass: 2
Flags: W
AnchorPoint: "Anchor-3" 484 700 basechar 0
AnchorPoint: "Anchor-0" 334 0 basechar 0
LayerCount: 2
Fore
SplineSet
409 -12 m 0,0,1
 303 -12 303 -12 225 26.5 c 128,-1,2
 147 65 147 65 105.5 133.5 c 128,-1,3
 64 202 64 202 64 292 c 0,4,5
 64 381 64 381 95 458 c 128,-1,6
 126 535 126 535 183.5 591.5 c 128,-1,7
 241 648 241 648 321 680 c 128,-1,8
 401 712 401 712 498 712 c 0,9,10
 592 712 592 712 664 680 c 128,-1,11
 736 648 736 648 773 588 c 1,12,-1
 656 492 l 1,13,14
 629 532 629 532 587 553 c 128,-1,15
 545 574 545 574 488 574 c 0,16,17
 428 574 428 574 380 553.5 c 128,-1,18
 332 533 332 533 298 495.5 c 128,-1,19
 264 458 264 458 245.5 408 c 128,-1,20
 227 358 227 358 227 302 c 0,21,22
 227 249 227 249 250 209.5 c 128,-1,23
 273 170 273 170 317 148 c 128,-1,24
 361 126 361 126 423 126 c 0,25,26
 477 126 477 126 524 145.5 c 128,-1,27
 571 165 571 165 610 207 c 1,28,-1
 705 109 l 1,29,30
 650 45 650 45 575 16.5 c 128,-1,31
 500 -12 500 -12 409 -12 c 0,0,1
639 588 m 1,32,-1
 655 676 l 2,33,34
 664 725 664 725 690 761 c 128,-1,35
 716 797 716 797 754 817 c 128,-1,36
 792 837 792 837 837.5 840 c 128,-1,37
 883 843 883 843 930 827 c 1,38,-1
 891 714 l 1,39,40
 865 722 865 722 842.5 716.5 c 128,-1,41
 820 711 820 711 805 692.5 c 128,-1,42
 790 674 790 674 784 644 c 2,43,-1
 773 588 l 1,44,-1
 639 588 l 1,32,-1
EndSplineSet
Substitution2: "'c2sc' Capitals to Small Capitals lookup 48 subtable" uni0188.sc
Substitution2: "'aalt' Access All Alternates lookup 3 subtable" uni0188.sc
EndChar

StartChar: uni023B
Encoding: 571 571 55
Width: 753
GlyphClass: 2
Flags: W
AnchorPoint: "Anchor-3" 506 700 basechar 0
AnchorPoint: "Anchor-0" 349 0 basechar 0
LayerCount: 2
Fore
SplineSet
111 -70 m 1,0,-1
 664 770 l 1,1,-1
 765 770 l 1,2,-1
 212 -70 l 1,3,-1
 111 -70 l 1,0,-1
407 -12 m 0,4,5
 300 -12 300 -12 222.5 26.5 c 128,-1,6
 145 65 145 65 103 133.5 c 128,-1,7
 61 202 61 202 61 292 c 0,8,9
 61 381 61 381 92.5 458 c 128,-1,10
 124 535 124 535 181.5 591.5 c 128,-1,11
 239 648 239 648 318.5 680 c 128,-1,12
 398 712 398 712 496 712 c 0,13,14
 590 712 590 712 662 680 c 128,-1,15
 734 648 734 648 771 588 c 1,16,-1
 654 492 l 1,17,18
 627 532 627 532 585 553 c 128,-1,19
 543 574 543 574 485 574 c 0,20,21
 426 574 426 574 378 553.5 c 128,-1,22
 330 533 330 533 295.5 495.5 c 128,-1,23
 261 458 261 458 243 408 c 128,-1,24
 225 358 225 358 225 302 c 0,25,26
 225 249 225 249 248 209.5 c 128,-1,27
 271 170 271 170 315 148 c 128,-1,28
 359 126 359 126 421 126 c 0,29,30
 475 126 475 126 522 145.5 c 128,-1,31
 569 165 569 165 607 207 c 1,32,-1
 703 109 l 1,33,34
 648 45 648 45 572.5 16.5 c 128,-1,35
 497 -12 497 -12 407 -12 c 0,4,5
EndSplineSet
Substitution2: "'c2sc' Capitals to Small Capitals lookup 48 subtable" uni023C.sc
Substitution2: "'aalt' Access All Alternates lookup 3 subtable" uni023C.sc
EndChar

StartChar: D
Encoding: 68 68 56
Width: 846
GlyphClass: 2
Flags: W
AnchorPoint: "Anchor-3" 464 699 basechar 0
AnchorPoint: "Anchor-1" 231 356 basechar 0
AnchorPoint: "Anchor-0" 327 0 basechar 0
LayerCount: 2
Fore
SplineSet
39 0 m 1,0,-1
 179 700 l 1,1,-1
 472 700 l 2,2,3
 580 700 580 700 657.5 664.5 c 128,-1,4
 735 629 735 629 776 563.5 c 128,-1,5
 817 498 817 498 817 408 c 0,6,7
 817 315 817 315 785.5 240 c 128,-1,8
 754 165 754 165 696 111.5 c 128,-1,9
 638 58 638 58 558 29 c 128,-1,10
 478 0 478 0 381 0 c 2,11,-1
 39 0 l 1,0,-1
228 133 m 1,12,-1
 386 133 l 2,13,14
 471 133 471 133 530.5 168 c 128,-1,15
 590 203 590 203 621.5 263 c 128,-1,16
 653 323 653 323 653 399 c 0,17,18
 653 451 653 451 631 488.5 c 128,-1,19
 609 526 609 526 564.5 546.5 c 128,-1,20
 520 567 520 567 454 567 c 2,21,-1
 315 567 l 1,22,-1
 228 133 l 1,12,-1
EndSplineSet
Substitution2: "'c2sc' Capitals to Small Capitals lookup 48 subtable" d.sc
Substitution2: "'aalt' Access All Alternates lookup 3 subtable" d.sc
EndChar

StartChar: uni018A
Encoding: 394 394 65
Width: 1051
GlyphClass: 2
Flags: W
AnchorPoint: "Anchor-3" 669 699 basechar 0
AnchorPoint: "Anchor-1" 436 356 basechar 0
AnchorPoint: "Anchor-0" 532 0 basechar 0
LayerCount: 2
Fore
SplineSet
118 350 m 1,0,1
 84 411 84 411 81.5 472.5 c 128,-1,2
 79 534 79 534 104.5 586 c 128,-1,3
 130 638 130 638 180.5 669 c 128,-1,4
 231 700 231 700 303 700 c 2,5,-1
 391 700 l 1,6,-1
 365 568 l 1,7,-1
 309 568 l 2,8,9
 273 568 273 568 252 545 c 128,-1,10
 231 522 231 522 230 487.5 c 128,-1,11
 229 453 229 453 250 418 c 1,12,-1
 118 350 l 1,0,1
244 0 m 1,13,-1
 384 700 l 1,14,-1
 677 700 l 2,15,16
 785 700 785 700 862.5 664.5 c 128,-1,17
 940 629 940 629 981 563.5 c 128,-1,18
 1022 498 1022 498 1022 408 c 0,19,20
 1022 315 1022 315 990.5 240 c 128,-1,21
 959 165 959 165 901 111.5 c 128,-1,22
 843 58 843 58 763 29 c 128,-1,23
 683 0 683 0 586 0 c 2,24,-1
 244 0 l 1,13,-1
433 133 m 1,25,-1
 591 133 l 2,26,27
 675 133 675 133 735 168 c 128,-1,28
 795 203 795 203 826.5 263 c 128,-1,29
 858 323 858 323 858 399 c 0,30,31
 858 451 858 451 836 488.5 c 128,-1,32
 814 526 814 526 769.5 546.5 c 128,-1,33
 725 567 725 567 659 567 c 2,34,-1
 520 567 l 1,35,-1
 433 133 l 1,25,-1
EndSplineSet
Substitution2: "'c2sc' Capitals to Small Capitals lookup 48 subtable" uni0257.sc
Substitution2: "'aalt' Access All Alternates lookup 3 subtable" uni0257.sc
EndChar

StartChar: uni018B
Encoding: 395 395 68
Width: 778
GlyphClass: 1
Flags: W
LayerCount: 2
Fore
SplineSet
272 0 m 2,0,1
 186 0 186 0 128 30 c 128,-1,2
 70 60 70 60 45 113.5 c 128,-1,3
 20 167 20 167 34 238 c 0,4,5
 52 332 52 332 126 379.5 c 128,-1,6
 200 427 200 427 326 427 c 2,7,-1
 556 427 l 1,8,-1
 586 575 l 1,9,-1
 184 575 l 1,10,-1
 209 700 l 1,11,-1
 771 700 l 1,12,-1
 631 0 l 1,13,-1
 272 0 l 2,0,1
305 122 m 2,14,-1
 495 122 l 1,15,-1
 533 309 l 1,16,-1
 341 309 l 2,17,18
 276 309 276 309 241.5 289 c 128,-1,19
 207 269 207 269 198 228 c 0,20,21
 189 182 189 182 217.5 152 c 128,-1,22
 246 122 246 122 305 122 c 2,14,-1
EndSplineSet
Substitution2: "'c2sc' Capitals to Small Capitals lookup 48 subtable" uni018C.sc
Substitution2: "'aalt' Access All Alternates lookup 3 subtable" uni018C.sc
EndChar

StartChar: E
Encoding: 69 69 72
Width: 691
GlyphClass: 2
Flags: W
AnchorPoint: "Anchor-3" 444 700 basechar 0
AnchorPoint: "Anchor-2" 581 0 basechar 0
AnchorPoint: "Anchor-0" 310 0 basechar 0
LayerCount: 2
Fore
SplineSet
272 418 m 1,0,-1
 609 418 l 1,1,-1
 584 292 l 1,2,-1
 247 292 l 1,3,-1
 272 418 l 1,0,-1
226 130 m 1,4,-1
 608 130 l 1,5,-1
 581 0 l 1,6,-1
 39 0 l 1,7,-1
 179 700 l 1,8,-1
 708 700 l 1,9,-1
 681 570 l 1,10,-1
 314 570 l 1,11,-1
 226 130 l 1,4,-1
EndSplineSet
Substitution2: "'ss01' Style Set 1 lookup 53 subtable" E.ss01
Substitution2: "'c2sc' Capitals to Small Capitals lookup 48 subtable" e.sc
AlternateSubs2: "'aalt' Access All Alternates lookup 4 subtable" e.sc E.ss01
EndChar

StartChar: uni0190
Encoding: 400 400 96
Width: 673
GlyphClass: 2
Flags: W
AnchorPoint: "Anchor-3" 466 700 basechar 0
AnchorPoint: "Anchor-2" 434 0 basechar 0
AnchorPoint: "Anchor-0" 329 0 basechar 0
LayerCount: 2
Fore
SplineSet
333 -12 m 0,0,1
 248 -12 248 -12 180.5 9 c 128,-1,2
 113 30 113 30 73.5 73 c 128,-1,3
 34 116 34 116 34 181 c 0,4,5
 34 242 34 242 66.5 287.5 c 128,-1,6
 99 333 99 333 156 358.5 c 128,-1,7
 213 384 213 384 285 384 c 1,8,-1
 283 343 l 1,9,10
 208 343 208 343 167 384 c 128,-1,11
 126 425 126 425 126 488 c 0,12,13
 126 542 126 542 153 584 c 128,-1,14
 180 626 180 626 227.5 654 c 128,-1,15
 275 682 275 682 336.5 696.5 c 128,-1,16
 398 711 398 711 468 711 c 0,17,18
 539 711 539 711 602.5 696.5 c 128,-1,19
 666 682 666 682 707 654 c 1,20,-1
 654 532 l 1,21,22
 611 557 611 557 557 568.5 c 128,-1,23
 503 580 503 580 453 580 c 0,24,25
 406 580 406 580 368.5 569.5 c 128,-1,26
 331 559 331 559 310 538 c 128,-1,27
 289 517 289 517 289 485 c 0,28,29
 289 454 289 454 313 437 c 128,-1,30
 337 420 337 420 385 420 c 2,31,-1
 551 420 l 1,32,-1
 525 298 l 1,33,-1
 335 298 l 2,34,35
 274 298 274 298 236.5 272.5 c 128,-1,36
 199 247 199 247 199 201 c 0,37,38
 199 173 199 173 218 154.5 c 128,-1,39
 237 136 237 136 271.5 127.5 c 128,-1,40
 306 119 306 119 350 119 c 0,41,42
 395 119 395 119 440 127 c 128,-1,43
 485 135 485 135 524.5 149.5 c 128,-1,44
 564 164 564 164 594 183 c 1,45,-1
 635 62 l 1,46,47
 577 27 577 27 496.5 7.5 c 128,-1,48
 416 -12 416 -12 333 -12 c 0,0,1
EndSplineSet
Substitution2: "'c2sc' Capitals to Small Capitals lookup 48 subtable" uni025B.sc
Substitution2: "'aalt' Access All Alternates lookup 3 subtable" uni025B.sc
EndChar

StartChar: uni018E
Encoding: 398 398 97
Width: 691
GlyphClass: 2
Flags: W
AnchorPoint: "Anchor-3" 414 700 basechar 0
AnchorPoint: "Anchor-0" 280 0 basechar 0
LayerCount: 2
Fore
SplineSet
453 292 m 1,0,-1
 116 292 l 1,1,-1
 141 418 l 1,2,-1
 478 418 l 1,3,-1
 453 292 l 1,0,-1
498 570 m 1,4,-1
 125 570 l 1,5,-1
 151 700 l 1,6,-1
 685 700 l 1,7,-1
 545 0 l 1,8,-1
 8 0 l 1,9,-1
 34 130 l 1,10,-1
 410 130 l 1,11,-1
 498 570 l 1,4,-1
EndSplineSet
Substitution2: "'ss01' Style Set 1 lookup 53 subtable" uni018E.ss01
Substitution2: "'c2sc' Capitals to Small Capitals lookup 48 subtable" uni0258.sc
AlternateSubs2: "'aalt' Access All Alternates lookup 4 subtable" uni0258.sc uni018E.ss01
EndChar

StartChar: uni01A9
Encoding: 425 425 99
Width: 565
GlyphClass: 1
Flags: W
LayerCount: 2
Fore
SplineSet
99 -9 m 0,0,1
 62 -5 62 -5 30 7.5 c 128,-1,2
 -2 20 -2 20 -21 37 c 1,3,-1
 45 152 l 1,4,5
 72 129 72 129 105 127 c 0,6,7
 133 124 133 124 155 139.5 c 128,-1,8
 177 155 177 155 184 190 c 2,9,-1
 251 525 l 2,10,11
 262 582 262 582 288.5 619.5 c 128,-1,12
 315 657 315 657 350 678 c 128,-1,13
 385 699 385 699 424.5 706.5 c 128,-1,14
 464 714 464 714 501 711 c 0,15,16
 538 707 538 707 569 694.5 c 128,-1,17
 600 682 600 682 619 664 c 1,18,-1
 553 548 l 1,19,20
 526 571 526 571 493 574 c 0,21,22
 465 577 465 577 443 561.5 c 128,-1,23
 421 546 421 546 414 510 c 2,24,-1
 347 175 l 2,25,26
 335 118 335 118 309 80.5 c 128,-1,27
 283 43 283 43 248 22.5 c 128,-1,28
 213 2 213 2 174.5 -5 c 128,-1,29
 136 -12 136 -12 99 -9 c 0,0,1
EndSplineSet
Substitution2: "'c2sc' Capitals to Small Capitals lookup 48 subtable" uni0283.sc
Substitution2: "'aalt' Access All Alternates lookup 3 subtable" uni0283.sc
EndChar

StartChar: uni0246
Encoding: 582 582 100
Width: 694
GlyphClass: 2
Flags: W
AnchorPoint: "Anchor-3" 444 700 basechar 0
AnchorPoint: "Anchor-2" 581 0 basechar 0
AnchorPoint: "Anchor-0" 310 0 basechar 0
LayerCount: 2
Fore
SplineSet
90 -70 m 1,0,-1
 643 770 l 1,1,-1
 744 770 l 1,2,-1
 191 -70 l 1,3,-1
 90 -70 l 1,0,-1
39 0 m 1,4,-1
 179 700 l 1,5,-1
 708 700 l 1,6,-1
 682 570 l 1,7,-1
 314 570 l 1,8,-1
 226 130 l 1,9,-1
 608 130 l 1,10,-1
 581 0 l 1,11,-1
 39 0 l 1,4,-1
246 292 m 1,12,-1
 272 418 l 1,13,-1
 609 418 l 1,14,-1
 584 292 l 1,15,-1
 246 292 l 1,12,-1
EndSplineSet
Substitution2: "'ss01' Style Set 1 lookup 53 subtable" uni0246.ss01
Substitution2: "'c2sc' Capitals to Small Capitals lookup 48 subtable" uni0247.sc
AlternateSubs2: "'aalt' Access All Alternates lookup 4 subtable" uni0247.sc uni0246.ss01
EndChar

StartChar: uni018F
Encoding: 399 399 103
Width: 837
GlyphClass: 2
Flags: W
AnchorPoint: "Anchor-3" 506 700 basechar 0
AnchorPoint: "Anchor-2" 455 0 basechar 0
AnchorPoint: "Anchor-0" 366 0 basechar 0
LayerCount: 2
Fore
SplineSet
394 -12 m 0,0,1
 292 -12 292 -12 216.5 26 c 128,-1,2
 141 64 141 64 99.5 131.5 c 128,-1,3
 58 199 58 199 58 286 c 0,4,5
 58 308 58 308 61.5 333 c 128,-1,6
 65 358 65 358 72 391 c 1,7,-1
 668 391 l 1,8,-1
 646 281 l 1,9,-1
 163 281 l 1,10,-1
 223 330 l 1,11,12
 221 316 221 316 219.5 307 c 128,-1,13
 218 298 218 298 218 284 c 0,14,15
 218 234 218 234 238.5 196 c 128,-1,16
 259 158 259 158 300.5 137.5 c 128,-1,17
 342 117 342 117 403 117 c 256,18,19
 464 117 464 117 509.5 142 c 128,-1,20
 555 167 555 167 584.5 209 c 128,-1,21
 614 251 614 251 629 301 c 128,-1,22
 644 351 644 351 644 399 c 0,23,24
 644 452 644 452 622.5 491.5 c 128,-1,25
 601 531 601 531 558 552.5 c 128,-1,26
 515 574 515 574 452 574 c 0,27,28
 393 574 393 574 338.5 554.5 c 128,-1,29
 284 535 284 535 240 497 c 1,30,-1
 163 609 l 1,31,32
 222 659 222 659 300 685.5 c 128,-1,33
 378 712 378 712 464 712 c 0,34,35
 572 712 572 712 648 673 c 128,-1,36
 724 634 724 634 765.5 565 c 128,-1,37
 807 496 807 496 807 404 c 0,38,39
 807 313 807 313 777 237 c 128,-1,40
 747 161 747 161 692 105.5 c 128,-1,41
 637 50 637 50 561 19 c 128,-1,42
 485 -12 485 -12 394 -12 c 0,0,1
EndSplineSet
Substitution2: "'ss01' Style Set 1 lookup 53 subtable" uni018F.ss01
Substitution2: "'c2sc' Capitals to Small Capitals lookup 48 subtable" uni0259.sc
AlternateSubs2: "'aalt' Access All Alternates lookup 4 subtable" uni0259.sc uni018F.ss01
EndChar

StartChar: uni01B8
Encoding: 440 440 106
Width: 664
GlyphClass: 2
Flags: W
AnchorPoint: "Anchor-3" 424 700 basechar 0
AnchorPoint: "Anchor-0" 284 0 basechar 0
LayerCount: 2
Fore
SplineSet
311 -12 m 256,0,1
 233 -12 233 -12 178 9.5 c 128,-1,2
 123 31 123 31 90.5 67 c 128,-1,3
 58 103 58 103 46.5 147 c 128,-1,4
 35 191 35 191 44 236 c 0,5,6
 62 327 62 327 143 373.5 c 128,-1,7
 224 420 224 420 360 420 c 2,8,-1
 406 420 l 1,9,-1
 326 374 l 1,10,-1
 156 595 l 1,11,-1
 177 700 l 1,12,-1
 688 700 l 1,13,-1
 662 571 l 1,14,-1
 272 571 l 1,15,-1
 299 634 l 1,16,-1
 470 412 l 1,17,-1
 447 302 l 1,18,-1
 362 302 l 2,19,20
 288 302 288 302 251.5 282 c 128,-1,21
 215 262 215 262 206 222 c 0,22,23
 201 193 201 193 214 170.5 c 128,-1,24
 227 148 227 148 257.5 135 c 128,-1,25
 288 122 288 122 333 122 c 0,26,27
 392 122 392 122 452.5 139 c 128,-1,28
 513 156 513 156 561 187 c 1,29,-1
 590 62 l 1,30,31
 534 27 534 27 461.5 7.5 c 128,-1,32
 389 -12 389 -12 311 -12 c 256,0,1
EndSplineSet
Substitution2: "'c2sc' Capitals to Small Capitals lookup 48 subtable" uni01B9.sc
Substitution2: "'aalt' Access All Alternates lookup 3 subtable" uni01B9.sc
EndChar

StartChar: F
Encoding: 70 70 107
Width: 659
GlyphClass: 2
Flags: W
AnchorPoint: "Anchor-3" 416 700 basechar 0
AnchorPoint: "Anchor-0" 276 0 basechar 0
LayerCount: 2
Fore
SplineSet
266 385 m 1,0,-1
 603 385 l 1,1,-1
 576 255 l 1,2,-1
 240 255 l 1,3,-1
 266 385 l 1,0,-1
202 0 m 1,4,-1
 39 0 l 1,5,-1
 179 700 l 1,6,-1
 708 700 l 1,7,-1
 681 570 l 1,8,-1
 315 570 l 1,9,-1
 202 0 l 1,4,-1
EndSplineSet
Substitution2: "'ss01' Style Set 1 lookup 53 subtable" F.ss01
Substitution2: "'c2sc' Capitals to Small Capitals lookup 48 subtable" f.sc
AlternateSubs2: "'aalt' Access All Alternates lookup 4 subtable" f.sc F.ss01
EndChar

StartChar: uni0191
Encoding: 401 401 109
Width: 665
GlyphClass: 1
Flags: W
LayerCount: 2
Fore
SplineSet
-124 -177 m 1,0,-1
 -79 -63 l 1,1,2
 -44 -75 -44 -75 -19 -73.5 c 128,-1,3
 6 -72 6 -72 21 -56 c 128,-1,4
 36 -40 36 -40 42 -10 c 2,5,-1
 184 700 l 1,6,-1
 712 700 l 1,7,-1
 686 570 l 1,8,-1
 320 570 l 1,9,-1
 201 -31 l 2,10,11
 189 -88 189 -88 159 -127.5 c 128,-1,12
 129 -167 129 -167 85 -186.5 c 128,-1,13
 41 -206 41 -206 -12.5 -204.5 c 128,-1,14
 -66 -203 -66 -203 -124 -177 c 1,0,-1
245 255 m 1,15,-1
 271 385 l 1,16,-1
 608 385 l 1,17,-1
 581 255 l 1,18,-1
 245 255 l 1,15,-1
EndSplineSet
Substitution2: "'ss01' Style Set 1 lookup 53 subtable" uni0191.ss01
Substitution2: "'c2sc' Capitals to Small Capitals lookup 48 subtable" florin.sc
AlternateSubs2: "'aalt' Access All Alternates lookup 4 subtable" florin.sc uni0191.ss01
EndChar

StartChar: G
Encoding: 71 71 110
Width: 791
GlyphClass: 2
Flags: W
AnchorPoint: "Anchor-3" 512 700 basechar 0
AnchorPoint: "Anchor-0" 363 0 basechar 0
LayerCount: 2
Fore
SplineSet
407 -12 m 0,0,1
 301 -12 301 -12 223.5 26.5 c 128,-1,2
 146 65 146 65 103.5 133.5 c 128,-1,3
 61 202 61 202 61 292 c 0,4,5
 61 381 61 381 92.5 458 c 128,-1,6
 124 535 124 535 182 591.5 c 128,-1,7
 240 648 240 648 321 680 c 128,-1,8
 402 712 402 712 501 712 c 0,9,10
 601 712 601 712 674.5 680.5 c 128,-1,11
 748 649 748 649 793 590 c 1,12,-1
 677 496 l 1,13,14
 642 538 642 538 597.5 556 c 128,-1,15
 553 574 553 574 494 574 c 0,16,17
 432 574 432 574 382.5 553.5 c 128,-1,18
 333 533 333 533 298 496 c 128,-1,19
 263 459 263 459 244 409.5 c 128,-1,20
 225 360 225 360 225 302 c 0,21,22
 225 249 225 249 248 209.5 c 128,-1,23
 271 170 271 170 316.5 148 c 128,-1,24
 362 126 362 126 428 126 c 0,25,26
 478 126 478 126 524 143 c 128,-1,27
 570 160 570 160 613 196 c 1,28,-1
 675 73 l 1,29,30
 622 32 622 32 552.5 10 c 128,-1,31
 483 -12 483 -12 407 -12 c 0,0,1
533 98 m 1,32,-1
 585 361 l 1,33,-1
 733 361 l 1,34,-1
 675 73 l 1,35,-1
 533 98 l 1,32,-1
EndSplineSet
Substitution2: "'ss01' Style Set 1 lookup 53 subtable" G.ss01
Substitution2: "'c2sc' Capitals to Small Capitals lookup 48 subtable" g.sc
AlternateSubs2: "'aalt' Access All Alternates lookup 4 subtable" g.sc G.ss01
EndChar

StartChar: uni0193
Encoding: 403 403 117
Width: 793
GlyphClass: 2
Flags: W
AnchorPoint: "Anchor-3" 524 700 basechar 0
AnchorPoint: "Anchor-0" 374 0 basechar 0
LayerCount: 2
Fore
SplineSet
407 -12 m 0,0,1
 301 -12 301 -12 223.5 26.5 c 128,-1,2
 146 65 146 65 103.5 133.5 c 128,-1,3
 61 202 61 202 61 292 c 0,4,5
 61 381 61 381 92.5 458 c 128,-1,6
 124 535 124 535 182 591.5 c 128,-1,7
 240 648 240 648 321 680 c 128,-1,8
 402 712 402 712 501 712 c 0,9,10
 601 712 601 712 674.5 680.5 c 128,-1,11
 748 649 748 649 793 589 c 1,12,-1
 677 496 l 1,13,14
 642 538 642 538 597.5 556 c 128,-1,15
 553 574 553 574 494 574 c 0,16,17
 432 574 432 574 382.5 553.5 c 128,-1,18
 333 533 333 533 298 496 c 128,-1,19
 263 459 263 459 244 409.5 c 128,-1,20
 225 360 225 360 225 302 c 0,21,22
 225 249 225 249 248 209.5 c 128,-1,23
 271 170 271 170 316.5 148 c 128,-1,24
 362 126 362 126 428 126 c 0,25,26
 478 126 478 126 524 143 c 128,-1,27
 570 160 570 160 613 196 c 1,28,-1
 675 73 l 1,29,30
 622 32 622 32 552.5 10 c 128,-1,31
 483 -12 483 -12 407 -12 c 0,0,1
675 73 m 1,32,-1
 533 98 l 1,33,-1
 585 361 l 1,34,-1
 733 361 l 1,35,-1
 675 73 l 1,32,-1
659 589 m 1,36,-1
 674 677 l 2,37,38
 682 726 682 726 708 761.5 c 128,-1,39
 734 797 734 797 772.5 817.5 c 128,-1,40
 811 838 811 838 856.5 840.5 c 128,-1,41
 902 843 902 843 949 827 c 1,42,-1
 910 715 l 1,43,44
 884 722 884 722 861.5 716.5 c 128,-1,45
 839 711 839 711 823.5 692.5 c 128,-1,46
 808 674 808 674 803 645 c 2,47,-1
 793 589 l 1,48,-1
 659 589 l 1,36,-1
EndSplineSet
Substitution2: "'ss01' Style Set 1 lookup 53 subtable" uni0193.ss01
Substitution2: "'c2sc' Capitals to Small Capitals lookup 48 subtable" uni0260.sc
AlternateSubs2: "'aalt' Access All Alternates lookup 4 subtable" uni0260.sc uni0193.ss01
EndChar

StartChar: uni0241
Encoding: 577 577 118
Width: 637
GlyphClass: 2
Flags: W
AnchorPoint: "Anchor-3" 391 700 basechar 0
AnchorPoint: "Anchor-0" 247 0 basechar 0
LayerCount: 2
Fore
SplineSet
165 0 m 1,0,-1
 199 168 l 2,1,2
 209 218 209 218 232.5 252 c 128,-1,3
 256 286 256 286 287 309 c 128,-1,4
 318 332 318 332 350.5 349.5 c 128,-1,5
 383 367 383 367 412.5 384 c 128,-1,6
 442 401 442 401 463 422.5 c 128,-1,7
 484 444 484 444 490 474 c 0,8,9
 497 510 497 510 480 533 c 128,-1,10
 463 556 463 556 431 568 c 128,-1,11
 399 580 399 580 360 580 c 0,12,13
 326 580 326 580 290 570.5 c 128,-1,14
 254 561 254 561 220.5 541 c 128,-1,15
 187 521 187 521 160 489 c 1,16,-1
 49 564 l 1,17,18
 89 613 89 613 145 645.5 c 128,-1,19
 201 678 201 678 265.5 695 c 128,-1,20
 330 712 330 712 394 712 c 0,21,22
 453 712 453 712 504.5 698 c 128,-1,23
 556 684 556 684 594 655.5 c 128,-1,24
 632 627 632 627 649 583.5 c 128,-1,25
 666 540 666 540 655 481 c 0,26,27
 645 433 645 433 621.5 399 c 128,-1,28
 598 365 598 365 567 340.5 c 128,-1,29
 536 316 536 316 502.5 297 c 128,-1,30
 469 278 469 278 439 258.5 c 128,-1,31
 409 239 409 239 387.5 214.5 c 128,-1,32
 366 190 366 190 359 156 c 2,33,-1
 328 0 l 1,34,-1
 165 0 l 1,0,-1
EndSplineSet
Substitution2: "'c2sc' Capitals to Small Capitals lookup 48 subtable" uni0294.sc
Substitution2: "'aalt' Access All Alternates lookup 3 subtable" uni0294.sc
EndChar

StartChar: uni01E4
Encoding: 484 484 120
Width: 831
GlyphClass: 2
Flags: W
AnchorPoint: "Anchor-3" 524 700 basechar 0
AnchorPoint: "Anchor-0" 375 0 basechar 0
LayerCount: 2
Fore
SplineSet
407 -12 m 0,0,1
 301 -12 301 -12 223.5 26.5 c 128,-1,2
 146 65 146 65 103.5 133.5 c 128,-1,3
 61 202 61 202 61 292 c 0,4,5
 61 381 61 381 92.5 458 c 128,-1,6
 124 535 124 535 182 591.5 c 128,-1,7
 240 648 240 648 321 680 c 128,-1,8
 402 712 402 712 501 712 c 0,9,10
 601 712 601 712 674.5 680.5 c 128,-1,11
 748 649 748 649 793 590 c 1,12,-1
 677 496 l 1,13,14
 642 538 642 538 597.5 556 c 128,-1,15
 553 574 553 574 494 574 c 0,16,17
 432 574 432 574 382.5 553.5 c 128,-1,18
 333 533 333 533 298 496 c 128,-1,19
 263 459 263 459 244 409.5 c 128,-1,20
 225 360 225 360 225 302 c 0,21,22
 225 249 225 249 248 209.5 c 128,-1,23
 271 170 271 170 316.5 148 c 128,-1,24
 362 126 362 126 428 126 c 0,25,26
 478 126 478 126 524 143 c 128,-1,27
 570 160 570 160 613 196 c 1,28,-1
 675 73 l 1,29,30
 622 32 622 32 552.5 10 c 128,-1,31
 483 -12 483 -12 407 -12 c 0,0,1
533 98 m 1,32,-1
 586 365 l 1,33,-1
 734 365 l 1,34,-1
 675 73 l 1,35,-1
 533 98 l 1,32,-1
422 208 m 1,36,-1
 443 317 l 1,37,-1
 813 317 l 1,38,-1
 792 208 l 1,39,-1
 422 208 l 1,36,-1
EndSplineSet
Substitution2: "'ss01' Style Set 1 lookup 53 subtable" uni01E4.ss01
Substitution2: "'c2sc' Capitals to Small Capitals lookup 48 subtable" uni01E5.sc
AlternateSubs2: "'aalt' Access All Alternates lookup 4 subtable" uni01E5.sc uni01E4.ss01
EndChar

StartChar: uni021C
Encoding: 540 540 121
Width: 676
GlyphClass: 1
Flags: W
LayerCount: 2
Fore
SplineSet
-70 -111 m 1,0,-1
 -50 24 l 1,1,2
 17 31 17 31 78 40.5 c 128,-1,3
 139 50 139 50 192.5 63 c 128,-1,4
 246 76 246 76 290 92 c 128,-1,5
 334 108 334 108 365.5 128 c 128,-1,6
 397 148 397 148 414 171.5 c 128,-1,7
 431 195 431 195 431 222 c 0,8,9
 431 262 431 262 401 273 c 128,-1,10
 371 284 371 284 318 272 c 2,11,-1
 161 238 l 1,12,-1
 174 367 l 1,13,-1
 318 399 l 2,14,15
 344 405 344 405 370 414.5 c 128,-1,16
 396 424 396 424 417.5 438 c 128,-1,17
 439 452 439 452 452.5 470.5 c 128,-1,18
 466 489 466 489 466 513 c 0,19,20
 466 531 466 531 457.5 545 c 128,-1,21
 449 559 449 559 431 567 c 128,-1,22
 413 575 413 575 384 575 c 0,23,24
 353 575 353 575 308 565.5 c 128,-1,25
 263 556 263 556 210 537.5 c 128,-1,26
 157 519 157 519 101 495 c 1,27,-1
 74 616 l 1,28,29
 125 643 125 643 184.5 664.5 c 128,-1,30
 244 686 244 686 306 698.5 c 128,-1,31
 368 711 368 711 424 711 c 0,32,33
 501 711 501 711 548 687.5 c 128,-1,34
 595 664 595 664 616.5 626 c 128,-1,35
 638 588 638 588 638 545 c 0,36,37
 638 496 638 496 615 459.5 c 128,-1,38
 592 423 592 423 552.5 396 c 128,-1,39
 513 369 513 369 464 350.5 c 128,-1,40
 415 332 415 332 362 320 c 1,41,-1
 362 352 l 1,42,43
 431 371 431 371 484.5 360 c 128,-1,44
 538 349 538 349 569 313 c 128,-1,45
 600 277 600 277 600 219 c 0,46,47
 600 162 600 162 570 117 c 128,-1,48
 540 72 540 72 488 36.5 c 128,-1,49
 436 1 436 1 369 -25 c 128,-1,50
 302 -51 302 -51 227 -68.5 c 128,-1,51
 152 -86 152 -86 76 -96.5 c 128,-1,52
 0 -107 0 -107 -70 -111 c 1,0,-1
EndSplineSet
Substitution2: "'c2sc' Capitals to Small Capitals lookup 48 subtable" uni021D.sc
Substitution2: "'aalt' Access All Alternates lookup 3 subtable" uni021D.sc
EndChar

StartChar: H
Encoding: 72 72 122
Width: 828
GlyphClass: 2
Flags: W
AnchorPoint: "Anchor-3" 500 700 basechar 0
AnchorPoint: "Anchor-1" 473 564 basechar 0
AnchorPoint: "Anchor-0" 360 0 basechar 0
LayerCount: 2
Fore
SplineSet
659 700 m 1,0,-1
 821 700 l 1,1,-1
 681 0 l 1,2,-1
 519 0 l 1,3,-1
 659 700 l 1,0,-1
202 0 m 1,4,-1
 39 0 l 1,5,-1
 179 700 l 1,6,-1
 342 700 l 1,7,-1
 202 0 l 1,4,-1
589 287 m 1,8,-1
 248 287 l 1,9,-1
 275 424 l 1,10,-1
 616 424 l 1,11,-1
 589 287 l 1,8,-1
EndSplineSet
Substitution2: "'c2sc' Capitals to Small Capitals lookup 48 subtable" h.sc
Substitution2: "'aalt' Access All Alternates lookup 3 subtable" h.sc
EndChar

StartChar: Hbar
Encoding: 294 294 123
Width: 868
GlyphClass: 2
Flags: W
AnchorPoint: "Anchor-3" 519 700 basechar 0
AnchorPoint: "Anchor-1" 492 564 basechar 0
AnchorPoint: "Anchor-0" 379 0 basechar 0
LayerCount: 2
Fore
SplineSet
678 700 m 1,0,-1
 841 700 l 1,1,-1
 701 0 l 1,2,-1
 538 0 l 1,3,-1
 678 700 l 1,0,-1
221 0 m 1,4,-1
 58 0 l 1,5,-1
 198 700 l 1,6,-1
 361 700 l 1,7,-1
 221 0 l 1,4,-1
608 283 m 1,8,-1
 267 283 l 1,9,-1
 294 416 l 1,10,-1
 635 416 l 1,11,-1
 608 283 l 1,8,-1
70 499 m 1,12,-1
 91 608 l 1,13,-1
 911 608 l 1,14,-1
 891 499 l 1,15,-1
 70 499 l 1,12,-1
EndSplineSet
Substitution2: "'c2sc' Capitals to Small Capitals lookup 48 subtable" hbar.sc
Substitution2: "'aalt' Access All Alternates lookup 3 subtable" hbar.sc
EndChar

StartChar: uni1E28
Encoding: 7720 7720 126
Width: 828
GlyphClass: 2
Flags: W
AnchorPoint: "Anchor-3" 500 700 basechar 0
AnchorPoint: "Anchor-1" 473 564 basechar 0
AnchorPoint: "Anchor-0" 360 0 basechar 0
LayerCount: 2
Fore
SplineSet
519 0 m 1,0,-1
 659 700 l 1,1,-1
 821 700 l 1,2,-1
 681 0 l 1,3,-1
 519 0 l 1,0,-1
62 -232 m 0,4,5
 33 -232 33 -232 9.5 -226.5 c 128,-1,6
 -14 -221 -14 -221 -32 -211 c 1,7,-1
 6 -144 l 1,8,9
 19 -152 19 -152 35 -155.5 c 128,-1,10
 51 -159 51 -159 68 -159 c 0,11,12
 96 -159 96 -159 110 -150.5 c 128,-1,13
 124 -142 124 -142 126 -127 c 0,14,15
 129 -113 129 -113 118 -105.5 c 128,-1,16
 107 -98 107 -98 83 -98 c 2,17,-1
 41 -98 l 1,18,-1
 88 8 l 1,19,-1
 171 8 l 1,20,-1
 145 -50 l 1,21,22
 188 -54 188 -54 210 -78 c 128,-1,23
 232 -102 232 -102 224 -140 c 0,24,25
 215 -183 215 -183 171.5 -207.5 c 128,-1,26
 128 -232 128 -232 62 -232 c 0,4,5
39 0 m 1,27,-1
 179 700 l 1,28,-1
 342 700 l 1,29,-1
 202 0 l 1,30,-1
 39 0 l 1,27,-1
247 287 m 1,31,-1
 274 424 l 1,32,-1
 616 424 l 1,33,-1
 588 287 l 1,34,-1
 247 287 l 1,31,-1
EndSplineSet
Substitution2: "'c2sc' Capitals to Small Capitals lookup 48 subtable" uni1E29.sc
Substitution2: "'aalt' Access All Alternates lookup 3 subtable" uni1E29.sc
EndChar

StartChar: uniA7AA
Encoding: 42922 42922 132
Width: 1033
GlyphClass: 2
Flags: W
AnchorPoint: "Anchor-3" 705 700 basechar 0
AnchorPoint: "Anchor-1" 677 564 basechar 0
AnchorPoint: "Anchor-0" 565 0 basechar 0
LayerCount: 2
Fore
SplineSet
118 350 m 1,0,1
 84 411 84 411 81.5 472.5 c 128,-1,2
 79 534 79 534 104.5 586 c 128,-1,3
 130 638 130 638 180.5 669 c 128,-1,4
 231 700 231 700 303 700 c 2,5,-1
 391 700 l 1,6,-1
 365 568 l 1,7,-1
 309 568 l 2,8,9
 273 568 273 568 252 545 c 128,-1,10
 231 522 231 522 230 487.5 c 128,-1,11
 229 453 229 453 250 418 c 1,12,-1
 118 350 l 1,0,1
864 700 m 1,13,-1
 1026 700 l 1,14,-1
 886 0 l 1,15,-1
 724 0 l 1,16,-1
 864 700 l 1,13,-1
406 0 m 1,17,-1
 244 0 l 1,18,-1
 384 700 l 1,19,-1
 546 700 l 1,20,-1
 406 0 l 1,17,-1
793 287 m 1,21,-1
 453 287 l 1,22,-1
 479 424 l 1,23,-1
 821 424 l 1,24,-1
 793 287 l 1,21,-1
EndSplineSet
Substitution2: "'c2sc' Capitals to Small Capitals lookup 48 subtable" uni0266.sc
Substitution2: "'aalt' Access All Alternates lookup 3 subtable" uni0266.sc
EndChar

StartChar: uniA78D
Encoding: 42893 42893 133
Width: 785
GlyphClass: 2
Flags: W
AnchorPoint: "Anchor-3" 441 700 basechar 0
AnchorPoint: "Anchor-0" 301 0 basechar 0
LayerCount: 2
Fore
SplineSet
477 0 m 1,0,-1
 553 388 l 1,1,-1
 584 351 l 1,2,3
 540 274 540 274 479.5 238 c 128,-1,4
 419 202 419 202 332 202 c 0,5,6
 241 202 241 202 182.5 239 c 128,-1,7
 124 276 124 276 102 344.5 c 128,-1,8
 80 413 80 413 98 506 c 2,9,-1
 137 700 l 1,10,-1
 300 700 l 1,11,-1
 261 504 l 2,12,13
 244 424 244 424 277 380.5 c 128,-1,14
 310 337 310 337 386 337 c 0,15,16
 460 337 460 337 508 379.5 c 128,-1,17
 556 422 556 422 572 501 c 2,18,-1
 611 700 l 1,19,-1
 774 700 l 1,20,-1
 634 0 l 1,21,-1
 477 0 l 1,0,-1
EndSplineSet
Substitution2: "'c2sc' Capitals to Small Capitals lookup 48 subtable" uni0265.sc
Substitution2: "'aalt' Access All Alternates lookup 3 subtable" uni0265.sc
EndChar

StartChar: I
Encoding: 73 73 134
Width: 408
GlyphClass: 2
Flags: W
AnchorPoint: "Anchor-3" 290 700 basechar 0
AnchorPoint: "Anchor-2" 232 0 basechar 0
AnchorPoint: "Anchor-1" 220 350 basechar 0
AnchorPoint: "Anchor-0" 150 0 basechar 0
LayerCount: 2
Fore
SplineSet
3 130 m 1,0,-1
 353 130 l 1,1,-1
 327 0 l 1,2,-1
 -23 0 l 1,3,-1
 3 130 l 1,0,-1
114 700 m 1,4,-1
 464 700 l 1,5,-1
 438 570 l 1,6,-1
 88 570 l 1,7,-1
 114 700 l 1,4,-1
69 2 m 5,8,-1
 209 698 l 1,9,-1
 372 698 l 1,10,-1
 232 2 l 5,11,-1
 69 2 l 5,8,-1
EndSplineSet
Substitution2: "'ss01' Style Set 1 lookup 53 subtable" I.ss01
Substitution2: "'c2sc' Capitals to Small Capitals lookup 48 subtable" i.sc
AlternateSubs2: "'aalt' Access All Alternates lookup 4 subtable" i.sc I.ss01
EndChar

StartChar: IJ
Encoding: 306 306 135
Width: 736
GlyphClass: 2
Flags: W
AnchorPoint: "Anchor-3" 265 700 basechar 0
LayerCount: 2
Fore
SplineSet
306 -12 m 0,0,1
 217 -12 217 -12 149 9.5 c 128,-1,2
 81 31 81 31 32 66 c 1,3,-1
 112 189 l 1,4,5
 157 157 157 157 208.5 140.5 c 128,-1,6
 260 124 260 124 315 124 c 0,7,8
 394 124 394 124 438.5 167 c 128,-1,9
 483 210 483 210 502 307 c 2,10,-1
 580 700 l 1,11,-1
 743 700 l 1,12,-1
 663 300 l 2,13,14
 631 141 631 141 542 64.5 c 128,-1,15
 453 -12 453 -12 306 -12 c 0,0,1
97 322 m 1,16,-1
 173 700 l 1,17,-1
 336 700 l 1,18,-1
 260 322 l 1,19,-1
 97 322 l 1,16,-1
EndSplineSet
Substitution2: "'ss01' Style Set 1 lookup 53 subtable" IJ.ss01
Substitution2: "'c2sc' Capitals to Small Capitals lookup 48 subtable" ij.sc
AlternateSubs2: "'aalt' Access All Alternates lookup 4 subtable" ij.sc IJ.ss01
EndChar

StartChar: Iacute_J.loclNLD
Encoding: 65537 -1 136
Width: 744
GlyphClass: 1
Flags: W
LayerCount: 2
Fore
SplineSet
304 -12 m 0,0,1
 215 -12 215 -12 148.5 9.5 c 128,-1,2
 82 31 82 31 32 67 c 1,3,-1
 112 189 l 1,4,5
 156 157 156 157 207 140.5 c 128,-1,6
 258 124 258 124 311 124 c 0,7,8
 392 124 392 124 437.5 167 c 128,-1,9
 483 210 483 210 502 307 c 2,10,-1
 580 700 l 1,11,-1
 743 700 l 1,12,-1
 663 300 l 2,13,14
 631 141 631 141 541 64.5 c 128,-1,15
 451 -12 451 -12 304 -12 c 0,0,1
97 322 m 1,16,-1
 173 700 l 1,17,-1
 336 700 l 1,18,-1
 260 322 l 1,19,-1
 97 322 l 1,16,-1
191 757 m 1,20,-1
 354 901 l 1,21,-1
 510 901 l 1,22,-1
 300 757 l 1,23,-1
 191 757 l 1,20,-1
599 757 m 1,24,-1
 762 901 l 1,25,-1
 917 901 l 1,26,-1
 708 757 l 1,27,-1
 599 757 l 1,24,-1
EndSplineSet
Substitution2: "'ss01' Style Set 1 lookup 53 subtable" Iacute_J.loclNLD.ss01
Substitution2: "'c2sc' Capitals to Small Capitals lookup 48 subtable" iacute_j.loclNLD.sc
Ligature2: "'locl' Localized Forms in Latin lookup 19 subtable" Iacute J
AlternateSubs2: "'aalt' Access All Alternates lookup 4 subtable" iacute_j.loclNLD.sc Iacute_J.loclNLD.ss01
EndChar

StartChar: uni0196
Encoding: 406 406 151
Width: 423
GlyphClass: 2
Flags: W
AnchorPoint: "Anchor-3" 256 700 basechar 0
AnchorPoint: "Anchor-2" 308 0 basechar 0
AnchorPoint: "Anchor-0" 166 0 basechar 0
LayerCount: 2
Fore
SplineSet
247 -11 m 0,0,1
 190 -11 190 -11 146 14.5 c 128,-1,2
 102 40 102 40 81.5 85.5 c 128,-1,3
 61 131 61 131 73 191 c 2,4,-1
 174 700 l 1,5,-1
 337 700 l 1,6,-1
 236 197 l 2,7,8
 230 162 230 162 245.5 142 c 128,-1,9
 261 122 261 122 291 122 c 0,10,11
 306 122 306 122 323 127 c 128,-1,12
 340 132 340 132 359 142 c 1,13,-1
 371 22 l 1,14,15
 339 5 339 5 308 -3 c 128,-1,16
 277 -11 277 -11 247 -11 c 0,0,1
EndSplineSet
Substitution2: "'c2sc' Capitals to Small Capitals lookup 48 subtable" uni0269.sc
Substitution2: "'aalt' Access All Alternates lookup 3 subtable" uni0269.sc
EndChar

StartChar: uni0197
Encoding: 407 407 152
Width: 407
GlyphClass: 2
Flags: W
AnchorPoint: "Anchor-3" 290 700 basechar 0
AnchorPoint: "Anchor-2" 231 0 basechar 0
AnchorPoint: "Anchor-0" 150 0 basechar 0
LayerCount: 2
Fore
SplineSet
69 0 m 1,0,-1
 209 700 l 1,1,-1
 371 700 l 1,2,-1
 231 0 l 1,3,-1
 69 0 l 1,0,-1
41 303 m 1,4,-1
 62 412 l 1,5,-1
 401 412 l 1,6,-1
 380 303 l 1,7,-1
 41 303 l 1,4,-1
EndSplineSet
Substitution2: "'ss01' Style Set 1 lookup 53 subtable" uni0197.ss01
Substitution2: "'c2sc' Capitals to Small Capitals lookup 48 subtable" uni0268.sc
AlternateSubs2: "'aalt' Access All Alternates lookup 4 subtable" uni0268.sc uni0197.ss01
EndChar

StartChar: J
Encoding: 74 74 155
Width: 553
GlyphClass: 2
Flags: W
AnchorPoint: "Anchor-3" 358 700 basechar 0
LayerCount: 2
Fore
SplineSet
189 -12 m 0,0,1
 109 -12 109 -12 51 15 c 128,-1,2
 -7 42 -7 42 -39 93 c 1,3,-1
 68 195 l 1,4,5
 89 160 89 160 120 140.5 c 128,-1,6
 151 121 151 121 191 121 c 0,7,8
 237 121 237 121 266.5 147 c 128,-1,9
 296 173 296 173 307 230 c 2,10,-1
 374 570 l 1,11,-1
 128 570 l 1,12,-1
 155 700 l 1,13,-1
 561 700 l 1,14,-1
 468 238 l 2,15,16
 450 146 450 146 413.5 91.5 c 128,-1,17
 377 37 377 37 321 12.5 c 128,-1,18
 265 -12 265 -12 189 -12 c 0,0,1
EndSplineSet
Substitution2: "'ss01' Style Set 1 lookup 53 subtable" J.ss01
Substitution2: "'c2sc' Capitals to Small Capitals lookup 48 subtable" j.sc
AlternateSubs2: "'aalt' Access All Alternates lookup 4 subtable" j.sc J.ss01
EndChar

StartChar: uniA7B2
Encoding: 42930 42930 157
Width: 576
GlyphClass: 1
Flags: W
LayerCount: 2
Fore
SplineSet
201 -12 m 0,0,1
 135 -12 135 -12 88.5 10.5 c 128,-1,2
 42 33 42 33 20 73 c 128,-1,3
 -2 113 -2 113 6 164 c 0,4,5
 18 231 18 231 74 267.5 c 128,-1,6
 130 304 130 304 221 304 c 2,7,-1
 557 304 l 1,8,-1
 536 198 l 1,9,-1
 222 198 l 2,10,11
 186 198 186 198 165.5 187.5 c 128,-1,12
 145 177 145 177 140 155 c 0,13,14
 135 132 135 132 152 115 c 128,-1,15
 169 98 169 98 200 98 c 0,16,17
 225 98 225 98 244.5 109.5 c 128,-1,18
 264 121 264 121 277.5 142.5 c 128,-1,19
 291 164 291 164 297 195 c 2,20,-1
 374 570 l 1,21,-1
 129 570 l 1,22,-1
 155 700 l 1,23,-1
 562 700 l 1,24,-1
 458 190 l 2,25,26
 445 127 445 127 410 82 c 128,-1,27
 375 37 375 37 322.5 12.5 c 128,-1,28
 270 -12 270 -12 201 -12 c 0,0,1
EndSplineSet
Substitution2: "'ss01' Style Set 1 lookup 53 subtable" uniA7B2.ss01
Substitution2: "'c2sc' Capitals to Small Capitals lookup 48 subtable" uni029D.sc
AlternateSubs2: "'aalt' Access All Alternates lookup 4 subtable" uni029D.sc uniA7B2.ss01
EndChar

StartChar: uni0248
Encoding: 584 584 158
Width: 575
GlyphClass: 2
Flags: W
AnchorPoint: "Anchor-3" 358 700 basechar 0
LayerCount: 2
Fore
SplineSet
189 -12 m 0,0,1
 109 -12 109 -12 51 15 c 128,-1,2
 -7 42 -7 42 -39 93 c 1,3,-1
 68 195 l 1,4,5
 89 160 89 160 120 140.5 c 128,-1,6
 151 121 151 121 191 121 c 0,7,8
 237 121 237 121 266.5 147 c 128,-1,9
 296 173 296 173 307 230 c 2,10,-1
 374 570 l 1,11,-1
 128 570 l 1,12,-1
 155 700 l 1,13,-1
 561 700 l 1,14,-1
 468 238 l 2,15,16
 450 146 450 146 413.5 91.5 c 128,-1,17
 377 37 377 37 321 12.5 c 128,-1,18
 265 -12 265 -12 189 -12 c 0,0,1
190 303 m 1,19,-1
 211 412 l 1,20,-1
 592 412 l 1,21,-1
 571 303 l 1,22,-1
 190 303 l 1,19,-1
EndSplineSet
Substitution2: "'ss01' Style Set 1 lookup 53 subtable" uni0248.ss01
Substitution2: "'c2sc' Capitals to Small Capitals lookup 48 subtable" uni0249.sc
AlternateSubs2: "'aalt' Access All Alternates lookup 4 subtable" uni0249.sc uni0248.ss01
EndChar

StartChar: K
Encoding: 75 75 159
Width: 760
GlyphClass: 2
Flags: W
AnchorPoint: "Anchor-3" 475 700 basechar 0
AnchorPoint: "Anchor-0" 335 0 basechar 0
LayerCount: 2
Fore
SplineSet
219 160 m 1,0,-1
 241 348 l 1,1,-1
 639 700 l 1,2,-1
 835 700 l 1,3,-1
 466 375 l 1,4,-1
 359 284 l 1,5,-1
 219 160 l 1,0,-1
39 0 m 1,6,-1
 179 700 l 1,7,-1
 340 700 l 1,8,-1
 200 0 l 1,9,-1
 39 0 l 1,6,-1
528 0 m 1,10,-1
 328 305 l 1,11,-1
 443 414 l 1,12,-1
 710 0 l 1,13,-1
 528 0 l 1,10,-1
EndSplineSet
Substitution2: "'c2sc' Capitals to Small Capitals lookup 48 subtable" k.sc
Substitution2: "'aalt' Access All Alternates lookup 3 subtable" k.sc
EndChar

StartChar: uni0198
Encoding: 408 408 164
Width: 756
GlyphClass: 2
Flags: W
AnchorPoint: "Anchor-3" 475 700 basechar 0
AnchorPoint: "Anchor-0" 335 0 basechar 0
LayerCount: 2
Fore
SplineSet
218 167 m 1,0,-1
 239 355 l 1,1,-1
 575 664 l 2,2,3
 637 721 637 721 689.5 738.5 c 128,-1,4
 742 756 742 756 783.5 745 c 128,-1,5
 825 734 825 734 853 701 c 1,6,-1
 775 599 l 1,7,8
 756 617 756 617 731.5 612.5 c 128,-1,9
 707 608 707 608 676 580 c 2,10,-1
 218 167 l 1,0,-1
39 0 m 1,11,-1
 179 700 l 1,12,-1
 339 700 l 1,13,-1
 199 0 l 1,14,-1
 39 0 l 1,11,-1
528 0 m 1,15,-1
 328 305 l 1,16,-1
 443 414 l 1,17,-1
 710 0 l 1,18,-1
 528 0 l 1,15,-1
EndSplineSet
Substitution2: "'c2sc' Capitals to Small Capitals lookup 48 subtable" uni0199.sc
Substitution2: "'aalt' Access All Alternates lookup 3 subtable" uni0199.sc
EndChar

StartChar: uniA740
Encoding: 42816 42816 166
Width: 808
GlyphClass: 2
Flags: W
AnchorPoint: "Anchor-3" 493 700 basechar 0
AnchorPoint: "Anchor-0" 353 0 basechar 0
LayerCount: 2
Fore
SplineSet
237 136 m 1,0,-1
 267 332 l 1,1,-1
 670 700 l 1,2,-1
 863 700 l 1,3,-1
 237 136 l 1,0,-1
67 0 m 1,4,-1
 207 700 l 1,5,-1
 367 700 l 1,6,-1
 227 0 l 1,7,-1
 67 0 l 1,4,-1
553 0 m 1,8,-1
 361 297 l 1,9,-1
 477 408 l 1,10,-1
 736 0 l 1,11,-1
 553 0 l 1,8,-1
84 528 m 1,12,-1
 103 625 l 1,13,-1
 479 625 l 1,14,-1
 460 528 l 1,15,-1
 84 528 l 1,12,-1
EndSplineSet
Substitution2: "'c2sc' Capitals to Small Capitals lookup 48 subtable" uniA741.sc
Substitution2: "'aalt' Access All Alternates lookup 3 subtable" uniA741.sc
EndChar

StartChar: L
Encoding: 76 76 167
Width: 624
GlyphClass: 2
Flags: W
AnchorPoint: "Anchor-4" 528 700 basechar 0
AnchorPoint: "Anchor-3" 261 700 basechar 0
AnchorPoint: "Anchor-1" 208 380 basechar 0
AnchorPoint: "Anchor-0" 307 0 basechar 0
LayerCount: 2
Fore
SplineSet
39 0 m 1,0,-1
 179 700 l 1,1,-1
 342 700 l 1,2,-1
 228 132 l 1,3,-1
 579 132 l 1,4,-1
 552 0 l 1,5,-1
 39 0 l 1,0,-1
EndSplineSet
Substitution2: "'c2sc' Capitals to Small Capitals lookup 48 subtable" l.sc
Substitution2: "'aalt' Access All Alternates lookup 3 subtable" l.sc
EndChar

StartChar: uni023D
Encoding: 573 573 170
Width: 631
GlyphClass: 2
Flags: W
AnchorPoint: "Anchor-4" 534 700 basechar 0
AnchorPoint: "Anchor-3" 268 700 basechar 0
AnchorPoint: "Anchor-1" 215 380 basechar 0
AnchorPoint: "Anchor-0" 314 0 basechar 0
LayerCount: 2
Fore
SplineSet
46 0 m 1,0,-1
 186 700 l 1,1,-1
 348 700 l 1,2,-1
 235 132 l 1,3,-1
 585 132 l 1,4,-1
 559 0 l 1,5,-1
 46 0 l 1,0,-1
18 303 m 1,6,-1
 40 412 l 1,7,-1
 424 412 l 1,8,-1
 402 303 l 1,9,-1
 18 303 l 1,6,-1
EndSplineSet
Substitution2: "'c2sc' Capitals to Small Capitals lookup 48 subtable" uni019A.sc
Substitution2: "'aalt' Access All Alternates lookup 3 subtable" uni019A.sc
EndChar

StartChar: uniA7AD
Encoding: 42925 42925 171
Width: 708
GlyphClass: 2
Flags: W
AnchorPoint: "Anchor-4" 611 700 basechar 0
AnchorPoint: "Anchor-3" 344 700 basechar 0
AnchorPoint: "Anchor-1" 281 387 basechar 0
AnchorPoint: "Anchor-0" 391 0 basechar 0
LayerCount: 2
Fore
SplineSet
123 0 m 1,0,-1
 263 700 l 1,1,-1
 425 700 l 1,2,-1
 312 132 l 1,3,-1
 662 132 l 1,4,-1
 635 0 l 1,5,-1
 123 0 l 1,0,-1
164 311 m 2,6,7
 87 311 87 311 46 354.5 c 128,-1,8
 5 398 5 398 17 468 c 0,9,10
 28 524 28 524 66.5 558 c 128,-1,11
 105 592 105 592 160 592 c 0,12,13
 226 592 226 592 256 545.5 c 128,-1,14
 286 499 286 499 271 422 c 1,15,-1
 207 422 l 1,16,17
 213 455 213 455 199.5 477.5 c 128,-1,18
 186 500 186 500 161 500 c 0,19,20
 146 500 146 500 136 491.5 c 128,-1,21
 126 483 126 483 124 469 c 0,22,23
 120 447 120 447 138 434.5 c 128,-1,24
 156 422 156 422 186 422 c 2,25,-1
 564 422 l 1,26,-1
 544 311 l 1,27,-1
 164 311 l 2,6,7
EndSplineSet
Substitution2: "'c2sc' Capitals to Small Capitals lookup 48 subtable" uni026C.sc
Substitution2: "'aalt' Access All Alternates lookup 3 subtable" uni026C.sc
EndChar

StartChar: uni2C60
Encoding: 11360 11360 178
Width: 662
GlyphClass: 2
Flags: W
AnchorPoint: "Anchor-4" 565 700 basechar 0
AnchorPoint: "Anchor-3" 299 700 basechar 0
AnchorPoint: "Anchor-1" 246 380 basechar 0
AnchorPoint: "Anchor-0" 345 0 basechar 0
LayerCount: 2
Fore
SplineSet
77 0 m 1,0,-1
 217 700 l 1,1,-1
 379 700 l 1,2,-1
 266 132 l 1,3,-1
 616 132 l 1,4,-1
 590 0 l 1,5,-1
 77 0 l 1,0,-1
74 421 m 1,6,-1
 94 529 l 1,7,-1
 479 529 l 1,8,-1
 458 421 l 1,9,-1
 74 421 l 1,6,-1
41 259 m 1,10,-1
 61 366 l 1,11,-1
 446 366 l 1,12,-1
 425 259 l 1,13,-1
 41 259 l 1,10,-1
EndSplineSet
Substitution2: "'c2sc' Capitals to Small Capitals lookup 48 subtable" uni2C61.sc
Substitution2: "'aalt' Access All Alternates lookup 3 subtable" uni2C61.sc
EndChar

StartChar: uni2C62
Encoding: 11362 11362 181
Width: 676
GlyphClass: 2
Flags: W
AnchorPoint: "Anchor-4" 573 700 basechar 0
AnchorPoint: "Anchor-3" 306 700 basechar 0
AnchorPoint: "Anchor-0" 342 0 basechar 0
LayerCount: 2
Fore
SplineSet
85 0 m 1,0,-1
 225 700 l 1,1,-1
 387 700 l 1,2,-1
 274 132 l 1,3,-1
 625 132 l 1,4,-1
 598 0 l 1,5,-1
 85 0 l 1,0,-1
350 324 m 0,6,7
 318 324 318 324 289.5 333.5 c 128,-1,8
 261 343 261 343 234.5 355 c 128,-1,9
 208 367 208 367 186 376.5 c 128,-1,10
 164 386 164 386 145 386 c 0,11,12
 119 386 119 386 105 371.5 c 128,-1,13
 91 357 91 357 84 331 c 1,14,-1
 4 331 l 1,15,16
 19 396 19 396 54.5 435.5 c 128,-1,17
 90 475 90 475 151 475 c 0,18,19
 181 475 181 475 210 465 c 128,-1,20
 239 455 239 455 265.5 443 c 128,-1,21
 292 431 292 431 314.5 421.5 c 128,-1,22
 337 412 337 412 355 412 c 0,23,24
 382 412 382 412 398 426 c 128,-1,25
 414 440 414 440 420 465 c 1,26,-1
 500 465 l 1,27,28
 485 401 485 401 447.5 362.5 c 128,-1,29
 410 324 410 324 350 324 c 0,6,7
EndSplineSet
Substitution2: "'c2sc' Capitals to Small Capitals lookup 48 subtable" uni026B.sc
Substitution2: "'aalt' Access All Alternates lookup 3 subtable" uni026B.sc
EndChar

StartChar: M
Encoding: 77 77 183
Width: 975
GlyphClass: 2
Flags: W
AnchorPoint: "Anchor-3" 573 700 basechar 0
AnchorPoint: "Anchor-0" 433 0 basechar 0
LayerCount: 2
Fore
SplineSet
39 0 m 1,0,-1
 179 700 l 1,1,-1
 311 700 l 1,2,-1
 510 204 l 1,3,-1
 440 205 l 1,4,-1
 828 700 l 1,5,-1
 967 700 l 1,6,-1
 828 0 l 1,7,-1
 676 0 l 1,8,-1
 769 469 l 1,9,-1
 800 469 l 1,10,-1
 491 74 l 1,11,-1
 419 74 l 1,12,-1
 254 470 l 1,13,-1
 284 467 l 1,14,-1
 191 0 l 1,15,-1
 39 0 l 1,0,-1
EndSplineSet
Substitution2: "'ss01' Style Set 1 lookup 53 subtable" M.ss01
Substitution2: "'c2sc' Capitals to Small Capitals lookup 48 subtable" m.sc
AlternateSubs2: "'aalt' Access All Alternates lookup 4 subtable" m.sc M.ss01
EndChar

StartChar: uni2C6E
Encoding: 11374 11374 187
Width: 979
GlyphClass: 2
Flags: W
AnchorPoint: "Anchor-3" 577 700 basechar 0
AnchorPoint: "Anchor-0" 437 0 basechar 0
LayerCount: 2
Fore
SplineSet
476 -172 m 1,0,-1
 527 -58 l 1,1,2
 551 -73 551 -73 576 -76.5 c 128,-1,3
 601 -80 601 -80 622.5 -73 c 128,-1,4
 644 -66 644 -66 659 -48 c 128,-1,5
 674 -30 674 -30 680 -2 c 2,6,-1
 772 467 l 1,7,-1
 806 467 l 1,8,-1
 496 74 l 1,9,-1
 423 74 l 1,10,-1
 260 468 l 1,11,-1
 288 467 l 1,12,-1
 195 0 l 1,13,-1
 44 0 l 1,14,-1
 184 700 l 1,15,-1
 316 700 l 1,16,-1
 515 206 l 1,17,-1
 444 206 l 1,18,-1
 834 700 l 1,19,-1
 971 700 l 1,20,-1
 830 -10 l 2,21,22
 817 -78 817 -78 781.5 -122 c 128,-1,23
 746 -166 746 -166 695.5 -186 c 128,-1,24
 645 -206 645 -206 588.5 -202.5 c 128,-1,25
 532 -199 532 -199 476 -172 c 1,0,-1
EndSplineSet
Substitution2: "'c2sc' Capitals to Small Capitals lookup 48 subtable" uni0271.sc
Substitution2: "'aalt' Access All Alternates lookup 3 subtable" uni0271.sc
EndChar

StartChar: uni019C
Encoding: 412 412 188
Width: 1222
GlyphClass: 2
Flags: W
AnchorPoint: "Anchor-3" 678 700 basechar 0
AnchorPoint: "Anchor-0" 538 0 basechar 0
LayerCount: 2
Fore
SplineSet
1215 700 m 1,0,-1
 1075 0 l 1,1,-1
 919 0 l 1,2,-1
 950 152 l 1,3,-1
 968 127 l 1,4,5
 930 61 930 61 868 24.5 c 128,-1,6
 806 -12 806 -12 721 -12 c 0,7,8
 632 -12 632 -12 578 28 c 128,-1,9
 524 68 524 68 515 139 c 1,10,-1
 563 135 l 1,11,12
 519 64 519 64 451 26 c 128,-1,13
 383 -12 383 -12 294 -12 c 0,14,15
 214 -12 214 -12 159.5 20 c 128,-1,16
 105 52 105 52 83 115 c 128,-1,17
 61 178 61 178 79 270 c 2,18,-1
 165 700 l 1,19,-1
 327 700 l 1,20,-1
 242 275 l 2,21,22
 227 199 227 199 258.5 162.5 c 128,-1,23
 290 126 290 126 352 126 c 0,24,25
 416 126 416 126 465 164.5 c 128,-1,26
 514 203 514 203 529 285 c 2,27,-1
 612 700 l 1,28,-1
 774 700 l 1,29,-1
 690 275 l 2,30,31
 675 199 675 199 703.5 162.5 c 128,-1,32
 732 126 732 126 793 126 c 0,33,34
 835 126 835 126 871 142.5 c 128,-1,35
 907 159 907 159 933.5 194.5 c 128,-1,36
 960 230 960 230 970 285 c 2,37,-1
 1053 700 l 1,38,-1
 1215 700 l 1,0,-1
EndSplineSet
Substitution2: "'c2sc' Capitals to Small Capitals lookup 48 subtable" uni026F.sc
Substitution2: "'aalt' Access All Alternates lookup 3 subtable" uni026F.sc
EndChar

StartChar: N
Encoding: 78 78 189
Width: 828
GlyphClass: 2
Flags: W
AnchorPoint: "Anchor-3" 501 700 basechar 0
AnchorPoint: "Anchor-0" 361 0 basechar 0
LayerCount: 2
Fore
SplineSet
39 0 m 1,0,-1
 179 700 l 1,1,-1
 313 700 l 1,2,-1
 614 193 l 1,3,-1
 561 196 l 1,4,-1
 661 700 l 1,5,-1
 821 700 l 1,6,-1
 681 0 l 1,7,-1
 548 0 l 1,8,-1
 246 507 l 1,9,-1
 300 504 l 1,10,-1
 199 0 l 1,11,-1
 39 0 l 1,0,-1
EndSplineSet
Substitution2: "'ss01' Style Set 1 lookup 53 subtable" N.ss01
Substitution2: "'c2sc' Capitals to Small Capitals lookup 48 subtable" n.sc
AlternateSubs2: "'aalt' Access All Alternates lookup 4 subtable" n.sc N.ss01
EndChar

StartChar: uni019D
Encoding: 413 413 198
Width: 813
GlyphClass: 2
Flags: W
AnchorPoint: "Anchor-3" 500 700 basechar 0
AnchorPoint: "Anchor-0" 360 0 basechar 0
LayerCount: 2
Fore
SplineSet
-124 -177 m 1,0,-1
 -79 -63 l 1,1,2
 -43 -75 -43 -75 -18.5 -73.5 c 128,-1,3
 6 -72 6 -72 21 -56 c 128,-1,4
 36 -40 36 -40 42 -10 c 2,5,-1
 184 700 l 1,6,-1
 341 700 l 1,7,-1
 308 532 l 1,8,-1
 290 581 l 1,9,10
 332 644 332 644 394.5 678 c 128,-1,11
 457 712 457 712 536 712 c 0,12,13
 621 712 621 712 677.5 673.5 c 128,-1,14
 734 635 734 635 756.5 563.5 c 128,-1,15
 779 492 779 492 759 392 c 2,16,-1
 681 0 l 1,17,-1
 518 0 l 1,18,-1
 597 396 l 2,19,20
 616 485 616 485 584.5 529.5 c 128,-1,21
 553 574 553 574 478 574 c 0,22,23
 407 574 407 574 356 531.5 c 128,-1,24
 305 489 305 489 286 399 c 2,25,-1
 201 -31 l 2,26,27
 190 -88 190 -88 159.5 -127.5 c 128,-1,28
 129 -167 129 -167 85 -186.5 c 128,-1,29
 41 -206 41 -206 -12.5 -204.5 c 128,-1,30
 -66 -203 -66 -203 -124 -177 c 1,0,-1
EndSplineSet
Substitution2: "'c2sc' Capitals to Small Capitals lookup 48 subtable" uni0272.sc
Substitution2: "'aalt' Access All Alternates lookup 3 subtable" uni0272.sc
EndChar

StartChar: uni0220
Encoding: 544 544 201
Width: 818
GlyphClass: 2
Flags: W
AnchorPoint: "Anchor-3" 510 700 basechar 0
AnchorPoint: "Anchor-0" 369 0 basechar 0
LayerCount: 2
Fore
SplineSet
533 712 m 0,0,1
 617 712 617 712 674 673.5 c 128,-1,2
 731 635 731 635 754 563.5 c 128,-1,3
 777 492 777 492 756 392 c 2,4,-1
 639 -194 l 1,5,-1
 477 -194 l 1,6,-1
 595 396 l 2,7,8
 613 485 613 485 581.5 529.5 c 128,-1,9
 550 574 550 574 475 574 c 0,10,11
 407 574 407 574 354.5 533 c 128,-1,12
 302 492 302 492 284 399 c 2,13,-1
 204 0 l 1,14,-1
 42 0 l 1,15,-1
 182 700 l 1,16,-1
 339 700 l 1,17,-1
 305 532 l 1,18,-1
 288 581 l 1,19,20
 329 645 329 645 392 678.5 c 128,-1,21
 455 712 455 712 533 712 c 0,0,1
EndSplineSet
EndChar

StartChar: Eng
Encoding: 330 330 203
Width: 828
GlyphClass: 2
Flags: W
AnchorPoint: "Anchor-3" 501 700 basechar 0
AnchorPoint: "Anchor-0" 326 -199 basechar 0
LayerCount: 2
Fore
SplineSet
39 0 m 1,0,-1
 179 700 l 1,1,-1
 313 700 l 1,2,-1
 614 193 l 1,3,-1
 548 0 l 1,4,-1
 246 507 l 1,5,-1
 300 504 l 1,6,-1
 199 0 l 1,7,-1
 39 0 l 1,0,-1
412 -202 m 0,8,9
 359 -202 359 -202 308 -183.5 c 128,-1,10
 257 -165 257 -165 226 -132 c 1,11,-1
 313 -24 l 1,12,13
 332 -45 332 -45 358 -57 c 128,-1,14
 384 -69 384 -69 416 -69 c 0,15,16
 462 -69 462 -69 490 -44.5 c 128,-1,17
 518 -20 518 -20 530 41 c 2,18,-1
 661 700 l 1,19,-1
 821 700 l 1,20,-1
 695 67 l 2,21,22
 674 -38 674 -38 635.5 -96.5 c 128,-1,23
 597 -155 597 -155 541.5 -178.5 c 128,-1,24
 486 -202 486 -202 412 -202 c 0,8,9
EndSplineSet
Substitution2: "'ss01' Style Set 1 lookup 53 subtable" Eng.ss01
Substitution2: "'c2sc' Capitals to Small Capitals lookup 48 subtable" eng.sc
Substitution2: "'locl' Localized Forms in Latin lookup 20 subtable" Eng.loclNSM
AlternateSubs2: "'aalt' Access All Alternates lookup 4 subtable" Eng.loclNSM eng.sc Eng.ss01
EndChar

StartChar: O
Encoding: 79 79 204
Width: 864
GlyphClass: 2
Flags: W
AnchorPoint: "Anchor-4" 712 700 basechar 0
AnchorPoint: "Anchor-3" 518 700 basechar 0
AnchorPoint: "Anchor-2" 477 0 basechar 0
AnchorPoint: "Anchor-1" 448 350 basechar 0
AnchorPoint: "Anchor-0" 378 0 basechar 0
LayerCount: 2
Fore
SplineSet
402 -12 m 0,0,1
 296 -12 296 -12 219.5 26.5 c 128,-1,2
 143 65 143 65 102 133.5 c 128,-1,3
 61 202 61 202 61 292 c 256,4,5
 61 382 61 382 92 458.5 c 128,-1,6
 123 535 123 535 180.5 591.5 c 128,-1,7
 238 648 238 648 317.5 680 c 128,-1,8
 397 712 397 712 494 712 c 0,9,10
 600 712 600 712 676.5 673.5 c 128,-1,11
 753 635 753 635 794 566.5 c 128,-1,12
 835 498 835 498 835 408 c 256,13,14
 835 318 835 318 804 241.5 c 128,-1,15
 773 165 773 165 715.5 108.5 c 128,-1,16
 658 52 658 52 578.5 20 c 128,-1,17
 499 -12 499 -12 402 -12 c 0,0,1
416 126 m 0,18,19
 475 126 475 126 522.5 147.5 c 128,-1,20
 570 169 570 169 603 207 c 128,-1,21
 636 245 636 245 653.5 294.5 c 128,-1,22
 671 344 671 344 671 399 c 0,23,24
 671 451 671 451 649 490.5 c 128,-1,25
 627 530 627 530 584.5 552 c 128,-1,26
 542 574 542 574 480 574 c 0,27,28
 421 574 421 574 374 552.5 c 128,-1,29
 327 531 327 531 293.5 493 c 128,-1,30
 260 455 260 455 242.5 405.5 c 128,-1,31
 225 356 225 356 225 301 c 0,32,33
 225 249 225 249 247.5 209.5 c 128,-1,34
 270 170 270 170 312.5 148 c 128,-1,35
 355 126 355 126 416 126 c 0,18,19
EndSplineSet
Substitution2: "'c2sc' Capitals to Small Capitals lookup 48 subtable" o.sc
Substitution2: "Single Substitution lookup 42 subtable" ordmasculine
AlternateSubs2: "'aalt' Access All Alternates lookup 4 subtable" ordmasculine o.sc
EndChar

StartChar: uni0222
Encoding: 546 546 205
Width: 777
GlyphClass: 1
Flags: W
LayerCount: 2
Fore
SplineSet
356 -10 m 0,0,1
 247 -10 247 -10 171.5 22.5 c 128,-1,2
 96 55 96 55 62.5 111.5 c 128,-1,3
 29 168 29 168 43 242 c 0,4,5
 57 311 57 311 103.5 360 c 128,-1,6
 150 409 150 409 226.5 436 c 128,-1,7
 303 463 303 463 406 463 c 0,8,9
 510 463 510 463 585.5 433 c 128,-1,10
 661 403 661 403 697 348.5 c 128,-1,11
 733 294 733 294 719 220 c 0,12,13
 706 149 706 149 658.5 97.5 c 128,-1,14
 611 46 611 46 534 18 c 128,-1,15
 457 -10 457 -10 356 -10 c 0,0,1
370 115 m 0,16,17
 424 115 424 115 464.5 128.5 c 128,-1,18
 505 142 505 142 530 168 c 128,-1,19
 555 194 555 194 561 230 c 0,20,21
 568 267 568 267 551.5 296.5 c 128,-1,22
 535 326 535 326 495.5 342.5 c 128,-1,23
 456 359 456 359 395 359 c 0,24,25
 341 359 341 359 300.5 345.5 c 128,-1,26
 260 332 260 332 235.5 306.5 c 128,-1,27
 211 281 211 281 204 245 c 0,28,29
 198 208 198 208 214 178.5 c 128,-1,30
 230 149 230 149 269.5 132 c 128,-1,31
 309 115 309 115 370 115 c 0,16,17
419 370 m 0,32,33
 320 370 320 370 253.5 397 c 128,-1,34
 187 424 187 424 159 475 c 128,-1,35
 131 526 131 526 145 597 c 2,36,-1
 166 700 l 1,37,-1
 327 700 l 1,38,-1
 305 589 l 2,39,40
 297 553 297 553 311 527 c 128,-1,41
 325 501 325 501 357 487 c 128,-1,42
 389 473 389 473 437 473 c 0,43,44
 483 473 483 473 516.5 486.5 c 128,-1,45
 550 500 550 500 571.5 526 c 128,-1,46
 593 552 593 552 601 590 c 2,47,-1
 623 700 l 1,48,-1
 783 700 l 1,49,-1
 760 580 l 2,50,51
 747 514 747 514 702 466.5 c 128,-1,52
 657 419 657 419 585.5 394.5 c 128,-1,53
 514 370 514 370 419 370 c 0,32,33
EndSplineSet
Substitution2: "'c2sc' Capitals to Small Capitals lookup 48 subtable" uni0223.sc
Substitution2: "'aalt' Access All Alternates lookup 3 subtable" uni0223.sc
EndChar

StartChar: Ohorn
Encoding: 416 416 224
Width: 864
GlyphClass: 2
Flags: W
AnchorPoint: "Anchor-3" 518 700 basechar 0
AnchorPoint: "Anchor-0" 378 0 basechar 0
LayerCount: 2
Fore
SplineSet
402 -12 m 0,0,1
 296 -12 296 -12 219.5 26.5 c 128,-1,2
 143 65 143 65 102 133.5 c 128,-1,3
 61 202 61 202 61 292 c 256,4,5
 61 382 61 382 92 458.5 c 128,-1,6
 123 535 123 535 180.5 591.5 c 128,-1,7
 238 648 238 648 317.5 680 c 128,-1,8
 397 712 397 712 494 712 c 0,9,10
 543 712 543 712 579 707.5 c 128,-1,11
 615 703 615 703 646.5 698 c 128,-1,12
 678 693 678 693 712 693 c 0,13,14
 754 693 754 693 776.5 712.5 c 128,-1,15
 799 732 799 732 799 763 c 0,16,17
 799 781 799 781 793.5 796.5 c 128,-1,18
 788 812 788 812 779 823 c 1,19,-1
 872 857 l 1,20,21
 886 837 886 837 895 812 c 128,-1,22
 904 787 904 787 904 756 c 0,23,24
 904 705 904 705 882 668.5 c 128,-1,25
 860 632 860 632 821 612.5 c 128,-1,26
 782 593 782 593 731 593 c 0,27,28
 718 593 718 593 703.5 594.5 c 128,-1,29
 689 596 689 596 673 598 c 1,30,-1
 745 626 l 1,31,32
 789 586 789 586 812 530.5 c 128,-1,33
 835 475 835 475 835 408 c 0,34,35
 835 318 835 318 804 241.5 c 128,-1,36
 773 165 773 165 715.5 108.5 c 128,-1,37
 658 52 658 52 578.5 20 c 128,-1,38
 499 -12 499 -12 402 -12 c 0,0,1
416 126 m 0,39,40
 475 126 475 126 522.5 147.5 c 128,-1,41
 570 169 570 169 603 207 c 128,-1,42
 636 245 636 245 653.5 294.5 c 128,-1,43
 671 344 671 344 671 399 c 0,44,45
 671 451 671 451 649 490.5 c 128,-1,46
 627 530 627 530 584.5 552 c 128,-1,47
 542 574 542 574 480 574 c 0,48,49
 421 574 421 574 374 552.5 c 128,-1,50
 327 531 327 531 293.5 493 c 128,-1,51
 260 455 260 455 242.5 405.5 c 128,-1,52
 225 356 225 356 225 301 c 0,53,54
 225 249 225 249 247.5 209.5 c 128,-1,55
 270 170 270 170 312.5 148 c 128,-1,56
 355 126 355 126 416 126 c 0,39,40
EndSplineSet
Substitution2: "'c2sc' Capitals to Small Capitals lookup 48 subtable" ohorn.sc
Substitution2: "'aalt' Access All Alternates lookup 3 subtable" ohorn.sc
EndChar

StartChar: uniA7B6
Encoding: 42934 42934 235
Width: 1069
GlyphClass: 2
Flags: W
AnchorPoint: "Anchor-3" 618 700 basechar 0
AnchorPoint: "Anchor-0" 478 0 basechar 0
LayerCount: 2
Fore
SplineSet
291 -10 m 0,0,1
 205 -10 205 -10 149.5 35.5 c 128,-1,2
 94 81 94 81 74.5 163.5 c 128,-1,3
 55 246 55 246 76 357 c 0,4,5
 89 421 89 421 113.5 484 c 128,-1,6
 138 547 138 547 171 603 c 128,-1,7
 204 659 204 659 243 700 c 1,8,-1
 408 700 l 1,9,10
 369 653 369 653 334.5 595 c 128,-1,11
 300 537 300 537 275 474 c 128,-1,12
 250 411 250 411 238 349 c 0,13,14
 224 280 224 280 230 230 c 128,-1,15
 236 180 236 180 261 153.5 c 128,-1,16
 286 127 286 127 327 127 c 0,17,18
 360 127 360 127 385 143 c 128,-1,19
 410 159 410 159 427 193 c 128,-1,20
 444 227 444 227 454 276 c 2,21,-1
 489 450 l 1,22,-1
 651 450 l 1,23,-1
 616 276 l 2,24,25
 607 231 607 231 613.5 197.5 c 128,-1,26
 620 164 620 164 641.5 145.5 c 128,-1,27
 663 127 663 127 697 127 c 0,28,29
 737 127 737 127 769 152.5 c 128,-1,30
 801 178 801 178 824.5 228.5 c 128,-1,31
 848 279 848 279 861 351 c 0,32,33
 879 447 879 447 871.5 537.5 c 128,-1,34
 864 628 864 628 833 700 c 1,35,-1
 997 700 l 1,36,37
 1031 633 1031 633 1039 546 c 128,-1,38
 1047 459 1047 459 1028 356 c 0,39,40
 1006 241 1006 241 959.5 159 c 128,-1,41
 913 77 913 77 847 33.5 c 128,-1,42
 781 -10 781 -10 698 -10 c 0,43,44
 626 -10 626 -10 574 21.5 c 128,-1,45
 522 53 522 53 498.5 108 c 128,-1,46
 475 163 475 163 486 232 c 1,47,-1
 566 232 l 1,48,49
 549 157 549 157 509.5 102.5 c 128,-1,50
 470 48 470 48 414.5 19 c 128,-1,51
 359 -10 359 -10 291 -10 c 0,0,1
EndSplineSet
Substitution2: "'c2sc' Capitals to Small Capitals lookup 48 subtable" uniA7B7.sc
Substitution2: "'aalt' Access All Alternates lookup 3 subtable" uniA7B7.sc
EndChar

StartChar: uni01EA
Encoding: 490 490 236
Width: 864
GlyphClass: 2
Flags: W
AnchorPoint: "Anchor-3" 518 700 basechar 0
LayerCount: 2
Fore
SplineSet
361 -232 m 0,0,1
 305 -232 305 -232 270 -206 c 128,-1,2
 235 -180 235 -180 235 -133 c 0,3,4
 235 -83 235 -83 272.5 -41.5 c 128,-1,5
 310 0 310 0 382 27 c 1,6,-1
 402 -12 l 1,7,8
 296 -12 296 -12 219.5 26.5 c 128,-1,9
 143 65 143 65 102 133.5 c 128,-1,10
 61 202 61 202 61 292 c 256,11,12
 61 382 61 382 92 458.5 c 128,-1,13
 123 535 123 535 180.5 591.5 c 128,-1,14
 238 648 238 648 317.5 680 c 128,-1,15
 397 712 397 712 494 712 c 0,16,17
 600 712 600 712 676.5 673.5 c 128,-1,18
 753 635 753 635 794 566.5 c 128,-1,19
 835 498 835 498 835 408 c 0,20,21
 835 304 835 304 793.5 218 c 128,-1,22
 752 132 752 132 677 75 c 128,-1,23
 602 18 602 18 501 -2 c 0,24,25
 439 -15 439 -15 403.5 -33.5 c 128,-1,26
 368 -52 368 -52 353 -72 c 128,-1,27
 338 -92 338 -92 338 -111 c 0,28,29
 338 -131 338 -131 351.5 -142 c 128,-1,30
 365 -153 365 -153 387 -153 c 0,31,32
 404 -153 404 -153 420.5 -148.5 c 128,-1,33
 437 -144 437 -144 450 -138 c 1,34,-1
 462 -209 l 1,35,36
 442 -219 442 -219 416.5 -225.5 c 128,-1,37
 391 -232 391 -232 361 -232 c 0,0,1
416 126 m 0,38,39
 475 126 475 126 522.5 147.5 c 128,-1,40
 570 169 570 169 603 207 c 128,-1,41
 636 245 636 245 653.5 294.5 c 128,-1,42
 671 344 671 344 671 399 c 0,43,44
 671 451 671 451 649 490.5 c 128,-1,45
 627 530 627 530 584.5 552 c 128,-1,46
 542 574 542 574 480 574 c 0,47,48
 421 574 421 574 374 552.5 c 128,-1,49
 327 531 327 531 293.5 493 c 128,-1,50
 260 455 260 455 242.5 405.5 c 128,-1,51
 225 356 225 356 225 301 c 0,52,53
 225 249 225 249 247.5 209.5 c 128,-1,54
 270 170 270 170 312.5 148 c 128,-1,55
 355 126 355 126 416 126 c 0,38,39
EndSplineSet
Substitution2: "'c2sc' Capitals to Small Capitals lookup 48 subtable" uni01EB.sc
Substitution2: "'locl' Localized Forms in Latin lookup 18 subtable" uni01EA.loclNAV
AlternateSubs2: "'aalt' Access All Alternates lookup 4 subtable" uni01EA.loclNAV uni01EB.sc
EndChar

StartChar: uni0186
Encoding: 390 390 238
Width: 753
GlyphClass: 2
Flags: W
AnchorPoint: "Anchor-3" 431 700 basechar 0
AnchorPoint: "Anchor-2" 378 0 basechar 0
AnchorPoint: "Anchor-0" 291 0 basechar 0
LayerCount: 2
Fore
SplineSet
378 712 m 0,0,1
 486 712 486 712 563.5 673.5 c 128,-1,2
 641 635 641 635 682.5 566.5 c 128,-1,3
 724 498 724 498 724 408 c 0,4,5
 724 319 724 319 693 242 c 128,-1,6
 662 165 662 165 604.5 108.5 c 128,-1,7
 547 52 547 52 467 20 c 128,-1,8
 387 -12 387 -12 289 -12 c 0,9,10
 197 -12 197 -12 124.5 20 c 128,-1,11
 52 52 52 52 15 112 c 1,12,-1
 132 208 l 1,13,14
 159 168 159 168 200.5 147 c 128,-1,15
 242 126 242 126 300 126 c 0,16,17
 360 126 360 126 408 146.5 c 128,-1,18
 456 167 456 167 490 204.5 c 128,-1,19
 524 242 524 242 542 292 c 128,-1,20
 560 342 560 342 560 398 c 0,21,22
 560 451 560 451 537.5 490.5 c 128,-1,23
 515 530 515 530 471.5 552 c 128,-1,24
 428 574 428 574 364 574 c 0,25,26
 311 574 311 574 264 554.5 c 128,-1,27
 217 535 217 535 178 493 c 1,28,-1
 83 591 l 1,29,30
 138 656 138 656 213.5 684 c 128,-1,31
 289 712 289 712 378 712 c 0,0,1
EndSplineSet
Substitution2: "'c2sc' Capitals to Small Capitals lookup 48 subtable" uni0254.sc
Substitution2: "'aalt' Access All Alternates lookup 3 subtable" uni0254.sc
EndChar

StartChar: OE
Encoding: 338 338 245
Width: 1156
GlyphClass: 2
Flags: W
AnchorPoint: "Anchor-3" 724 700 basechar 0
AnchorPoint: "Anchor-0" 584 0 basechar 0
LayerCount: 2
Fore
SplineSet
406 0 m 2,0,1
 299 0 299 0 221.5 35.5 c 128,-1,2
 144 71 144 71 102.5 137 c 128,-1,3
 61 203 61 203 61 292 c 0,4,5
 61 385 61 385 92.5 460 c 128,-1,6
 124 535 124 535 182 588.5 c 128,-1,7
 240 642 240 642 320 671 c 128,-1,8
 400 700 400 700 497 700 c 2,9,-1
 686 700 l 1,10,-1
 660 567 l 1,11,-1
 492 567 l 2,12,13
 409 567 409 567 348.5 532 c 128,-1,14
 288 497 288 497 256.5 437 c 128,-1,15
 225 377 225 377 225 301 c 0,16,17
 225 249 225 249 247.5 211.5 c 128,-1,18
 270 174 270 174 314 153.5 c 128,-1,19
 358 133 358 133 424 133 c 2,20,-1
 571 133 l 1,21,-1
 546 0 l 1,22,-1
 406 0 l 2,0,1
504 0 m 1,23,-1
 644 700 l 1,24,-1
 1173 700 l 1,25,-1
 1147 570 l 1,26,-1
 779 570 l 1,27,-1
 691 130 l 1,28,-1
 1073 130 l 1,29,-1
 1046 0 l 1,30,-1
 504 0 l 1,23,-1
712 292 m 1,31,-1
 737 418 l 1,32,-1
 1074 418 l 1,33,-1
 1049 292 l 1,34,-1
 712 292 l 1,31,-1
EndSplineSet
Substitution2: "'c2sc' Capitals to Small Capitals lookup 48 subtable" oe.sc
Substitution2: "'aalt' Access All Alternates lookup 3 subtable" oe.sc
EndChar

StartChar: P
Encoding: 80 80 246
Width: 752
GlyphClass: 2
Flags: W
AnchorPoint: "Anchor-3" 462 700 basechar 0
AnchorPoint: "Anchor-0" 322 0 basechar 0
LayerCount: 2
Fore
SplineSet
39 0 m 1,0,-1
 179 700 l 1,1,-1
 462 700 l 2,2,3
 593 700 593 700 664.5 642.5 c 128,-1,4
 736 585 736 585 736 482 c 0,5,6
 736 394 736 394 695 328.5 c 128,-1,7
 654 263 654 263 577.5 228 c 128,-1,8
 501 193 501 193 396 193 c 2,9,-1
 169 193 l 1,10,-1
 255 267 l 1,11,-1
 202 0 l 1,12,-1
 39 0 l 1,0,-1
251 248 m 1,13,-1
 194 325 l 1,14,-1
 403 325 l 2,15,16
 483 325 483 325 527.5 361.5 c 128,-1,17
 572 398 572 398 572 468 c 0,18,19
 572 519 572 519 538 543.5 c 128,-1,20
 504 568 504 568 442 568 c 2,21,-1
 245 568 l 1,22,-1
 331 647 l 1,23,-1
 251 248 l 1,13,-1
EndSplineSet
Substitution2: "'c2sc' Capitals to Small Capitals lookup 48 subtable" p.sc
Substitution2: "'aalt' Access All Alternates lookup 3 subtable" p.sc
EndChar

StartChar: uni01A4
Encoding: 420 420 249
Width: 956
GlyphClass: 2
Flags: W
AnchorPoint: "Anchor-3" 667 700 basechar 0
AnchorPoint: "Anchor-0" 527 0 basechar 0
LayerCount: 2
Fore
SplineSet
118 350 m 1,0,1
 84 411 84 411 81.5 472.5 c 128,-1,2
 79 534 79 534 104.5 586 c 128,-1,3
 130 638 130 638 180.5 669 c 128,-1,4
 231 700 231 700 303 700 c 2,5,-1
 391 700 l 1,6,-1
 365 568 l 1,7,-1
 309 568 l 2,8,9
 273 568 273 568 252 545 c 128,-1,10
 231 522 231 522 230 487.5 c 128,-1,11
 229 453 229 453 250 418 c 1,12,-1
 118 350 l 1,0,1
244 0 m 1,13,-1
 384 700 l 1,14,-1
 667 700 l 2,15,16
 798 700 798 700 869.5 642.5 c 128,-1,17
 941 585 941 585 941 482 c 0,18,19
 941 394 941 394 899.5 328.5 c 128,-1,20
 858 263 858 263 781.5 228 c 128,-1,21
 705 193 705 193 601 193 c 2,22,-1
 373 193 l 1,23,-1
 460 267 l 1,24,-1
 406 0 l 1,25,-1
 244 0 l 1,13,-1
456 248 m 1,26,-1
 399 325 l 1,27,-1
 608 325 l 2,28,29
 688 325 688 325 732.5 361.5 c 128,-1,30
 777 398 777 398 777 468 c 0,31,32
 777 519 777 519 743 543.5 c 128,-1,33
 709 568 709 568 647 568 c 2,34,-1
 449 568 l 1,35,-1
 536 647 l 1,36,-1
 456 248 l 1,26,-1
EndSplineSet
Substitution2: "'c2sc' Capitals to Small Capitals lookup 48 subtable" uni01A5.sc
Substitution2: "'aalt' Access All Alternates lookup 3 subtable" uni01A5.sc
EndChar

StartChar: Thorn
Encoding: 222 222 250
Width: 752
GlyphClass: 2
Flags: W
AnchorPoint: "Anchor-3" 462 700 basechar 0
AnchorPoint: "Anchor-0" 322 0 basechar 0
LayerCount: 2
Fore
SplineSet
191 116 m 1,0,-1
 216 248 l 1,1,-1
 388 248 l 2,2,3
 468 248 468 248 512.5 284.5 c 128,-1,4
 557 321 557 321 557 390 c 0,5,6
 557 442 557 442 523 466.5 c 128,-1,7
 489 491 489 491 427 491 c 2,8,-1
 266 491 l 1,9,-1
 291 623 l 1,10,-1
 450 623 l 2,11,12
 579 623 579 623 650 566 c 128,-1,13
 721 509 721 509 721 405 c 0,14,15
 721 317 721 317 680 251.5 c 128,-1,16
 639 186 639 186 562.5 151 c 128,-1,17
 486 116 486 116 381 116 c 2,18,-1
 191 116 l 1,0,-1
39 0 m 1,19,-1
 179 700 l 1,20,-1
 342 700 l 1,21,-1
 202 0 l 1,22,-1
 39 0 l 1,19,-1
EndSplineSet
Substitution2: "'c2sc' Capitals to Small Capitals lookup 48 subtable" thorn.sc
Substitution2: "'aalt' Access All Alternates lookup 3 subtable" thorn.sc
EndChar

StartChar: uni2C63
Encoding: 11363 11363 251
Width: 758
GlyphClass: 2
Flags: W
LayerCount: 2
Fore
SplineSet
45 0 m 1,0,-1
 185 700 l 1,1,-1
 468 700 l 2,2,3
 599 700 599 700 671 642.5 c 128,-1,4
 743 585 743 585 743 482 c 0,5,6
 743 394 743 394 701.5 328.5 c 128,-1,7
 660 263 660 263 583.5 228 c 128,-1,8
 507 193 507 193 403 193 c 2,9,-1
 175 193 l 1,10,-1
 262 267 l 1,11,-1
 208 0 l 1,12,-1
 45 0 l 1,0,-1
36 394 m 1,13,-1
 57 501 l 1,14,-1
 436 501 l 1,15,-1
 415 394 l 1,16,-1
 36 394 l 1,13,-1
257 248 m 1,17,-1
 200 321 l 1,18,-1
 409 321 l 2,19,20
 490 321 490 321 534.5 359.5 c 128,-1,21
 579 398 579 398 579 468 c 0,22,23
 579 522 579 522 544.5 547 c 128,-1,24
 510 572 510 572 448 572 c 2,25,-1
 251 572 l 1,26,-1
 337 647 l 1,27,-1
 257 248 l 1,17,-1
EndSplineSet
Substitution2: "'c2sc' Capitals to Small Capitals lookup 48 subtable" uni1D7D.sc
Substitution2: "'aalt' Access All Alternates lookup 3 subtable" uni1D7D.sc
EndChar

StartChar: Q
Encoding: 81 81 252
Width: 864
GlyphClass: 2
Flags: W
AnchorPoint: "Anchor-3" 519 700 basechar 0
LayerCount: 2
Fore
SplineSet
402 -12 m 0,0,1
 296 -12 296 -12 219.5 26.5 c 128,-1,2
 143 65 143 65 102 133.5 c 128,-1,3
 61 202 61 202 61 292 c 256,4,5
 61 382 61 382 92 458.5 c 128,-1,6
 123 535 123 535 180.5 591.5 c 128,-1,7
 238 648 238 648 317.5 680 c 128,-1,8
 397 712 397 712 494 712 c 0,9,10
 600 712 600 712 676.5 673.5 c 128,-1,11
 753 635 753 635 794 566.5 c 128,-1,12
 835 498 835 498 835 408 c 256,13,14
 835 318 835 318 804 241.5 c 128,-1,15
 773 165 773 165 715.5 108.5 c 128,-1,16
 658 52 658 52 578.5 20 c 128,-1,17
 499 -12 499 -12 402 -12 c 0,0,1
598 -161 m 0,18,19
 501 -161 501 -161 429.5 -115 c 128,-1,20
 358 -69 358 -69 310 22 c 1,21,-1
 488 58 l 1,22,23
 509 3 509 3 538 -19 c 128,-1,24
 567 -41 567 -41 608 -41 c 0,25,26
 640 -41 640 -41 670.5 -28 c 128,-1,27
 701 -15 701 -15 726 8 c 1,28,-1
 787 -89 l 1,29,30
 753 -125 753 -125 703.5 -143 c 128,-1,31
 654 -161 654 -161 598 -161 c 0,18,19
416 126 m 0,32,33
 475 126 475 126 522.5 147.5 c 128,-1,34
 570 169 570 169 603 207 c 128,-1,35
 636 245 636 245 653.5 294.5 c 128,-1,36
 671 344 671 344 671 399 c 0,37,38
 671 451 671 451 649 490.5 c 128,-1,39
 627 530 627 530 584.5 552 c 128,-1,40
 542 574 542 574 480 574 c 0,41,42
 421 574 421 574 374 552.5 c 128,-1,43
 327 531 327 531 293.5 493 c 128,-1,44
 260 455 260 455 242.5 405.5 c 128,-1,45
 225 356 225 356 225 301 c 0,46,47
 225 249 225 249 247.5 209.5 c 128,-1,48
 270 170 270 170 312.5 148 c 128,-1,49
 355 126 355 126 416 126 c 0,32,33
EndSplineSet
Substitution2: "'ss01' Style Set 1 lookup 53 subtable" Q.ss01
Substitution2: "'c2sc' Capitals to Small Capitals lookup 48 subtable" q.sc
AlternateSubs2: "'aalt' Access All Alternates lookup 4 subtable" q.sc Q.ss01
EndChar

StartChar: uni024A
Encoding: 586 586 253
Width: 911
GlyphClass: 2
Flags: W
AnchorPoint: "Anchor-4" 717 700 basechar 0
AnchorPoint: "Anchor-3" 523 700 basechar 0
AnchorPoint: "Anchor-2" 481 0 basechar 0
AnchorPoint: "Anchor-1" 453 350 basechar 0
AnchorPoint: "Anchor-0" 383 0 basechar 0
LayerCount: 2
Fore
SplineSet
375 -11 m 0,0,1
 283 -11 283 -11 213 28.5 c 128,-1,2
 143 68 143 68 103.5 139.5 c 128,-1,3
 64 211 64 211 64 304 c 0,4,5
 64 389 64 389 96 463 c 128,-1,6
 128 537 128 537 185 593 c 128,-1,7
 242 649 242 649 317 680.5 c 128,-1,8
 392 712 392 712 479 712 c 0,9,10
 582 712 582 712 649 666 c 128,-1,11
 716 620 716 620 741 535.5 c 128,-1,12
 766 451 766 451 743 334 c 0,13,14
 722 226 722 226 670.5 148.5 c 128,-1,15
 619 71 619 71 544 30 c 128,-1,16
 469 -11 469 -11 375 -11 c 0,0,1
411 126 m 0,17,18
 477 126 477 126 532 154.5 c 128,-1,19
 587 183 587 183 624.5 233.5 c 128,-1,20
 662 284 662 284 673 349 c 256,21,22
 684 414 684 414 664 465 c 128,-1,23
 644 516 644 516 598.5 545 c 128,-1,24
 553 574 553 574 487 574 c 0,25,26
 432 574 432 574 385 554 c 128,-1,27
 338 534 338 534 302.5 498.5 c 128,-1,28
 267 463 267 463 247.5 415 c 128,-1,29
 228 367 228 367 228 312 c 0,30,31
 228 225 228 225 277.5 175.5 c 128,-1,32
 327 126 327 126 411 126 c 0,17,18
863 -190 m 1,33,34
 809 -206 809 -206 757.5 -202.5 c 128,-1,35
 706 -199 706 -199 667 -176 c 128,-1,36
 628 -153 628 -153 609.5 -111.5 c 128,-1,37
 591 -70 591 -70 603 -9 c 2,38,-1
 639 169 l 1,39,-1
 682 352 l 1,40,-1
 705 535 l 1,41,-1
 738 700 l 1,42,-1
 900 700 l 1,43,-1
 759 -5 l 2,44,45
 753 -35 753 -35 764.5 -53 c 128,-1,46
 776 -71 776 -71 800.5 -76 c 128,-1,47
 825 -81 825 -81 856 -73 c 1,48,-1
 863 -190 l 1,33,34
EndSplineSet
Substitution2: "'c2sc' Capitals to Small Capitals lookup 48 subtable" uni024B.sc
Substitution2: "'aalt' Access All Alternates lookup 3 subtable" uni024B.sc
EndChar

StartChar: R
Encoding: 82 82 254
Width: 755
GlyphClass: 2
Flags: W
AnchorPoint: "Anchor-3" 470 700 basechar 0
AnchorPoint: "Anchor-0" 330 0 basechar 0
LayerCount: 2
Fore
SplineSet
39 0 m 1,0,-1
 179 700 l 1,1,-1
 464 700 l 2,2,3
 595 700 595 700 666.5 643 c 128,-1,4
 738 586 738 586 738 483 c 0,5,6
 738 395 738 395 696.5 330.5 c 128,-1,7
 655 266 655 266 578.5 231 c 128,-1,8
 502 196 502 196 398 196 c 2,9,-1
 170 196 l 1,10,-1
 255 267 l 1,11,-1
 202 0 l 1,12,-1
 39 0 l 1,0,-1
489 0 m 1,13,-1
 346 254 l 1,14,-1
 516 254 l 1,15,-1
 660 0 l 1,16,-1
 489 0 l 1,13,-1
251 248 m 1,17,-1
 195 325 l 1,18,-1
 404 325 l 2,19,20
 485 325 485 325 529.5 361.5 c 128,-1,21
 574 398 574 398 574 468 c 0,22,23
 574 519 574 519 539.5 543.5 c 128,-1,24
 505 568 505 568 443 568 c 2,25,-1
 246 568 l 1,26,-1
 331 647 l 1,27,-1
 251 248 l 1,17,-1
EndSplineSet
Substitution2: "'c2sc' Capitals to Small Capitals lookup 48 subtable" r.sc
Substitution2: "'aalt' Access All Alternates lookup 3 subtable" r.sc
EndChar

StartChar: uni024C
Encoding: 588 588 264
Width: 755
GlyphClass: 2
Flags: W
AnchorPoint: "Anchor-3" 470 700 basechar 0
AnchorPoint: "Anchor-0" 330 0 basechar 0
LayerCount: 2
Fore
SplineSet
39 0 m 1,0,-1
 179 700 l 1,1,-1
 464 700 l 2,2,3
 595 700 595 700 666.5 643 c 128,-1,4
 738 586 738 586 738 483 c 0,5,6
 738 395 738 395 696.5 330.5 c 128,-1,7
 655 266 655 266 578.5 231 c 128,-1,8
 502 196 502 196 398 196 c 2,9,-1
 170 196 l 1,10,-1
 255 267 l 1,11,-1
 202 0 l 1,12,-1
 39 0 l 1,0,-1
489 0 m 1,13,-1
 346 254 l 1,14,-1
 516 254 l 1,15,-1
 660 0 l 1,16,-1
 489 0 l 1,13,-1
251 248 m 1,17,-1
 195 325 l 1,18,-1
 404 325 l 2,19,20
 485 325 485 325 529.5 361.5 c 128,-1,21
 574 398 574 398 574 468 c 0,22,23
 574 519 574 519 539.5 543.5 c 128,-1,24
 505 568 505 568 443 568 c 2,25,-1
 246 568 l 1,26,-1
 331 647 l 1,27,-1
 251 248 l 1,17,-1
-6 217 m 1,28,-1
 15 325 l 1,29,-1
 359 325 l 1,30,-1
 340 217 l 1,31,-1
 -6 217 l 1,28,-1
EndSplineSet
Substitution2: "'c2sc' Capitals to Small Capitals lookup 48 subtable" uni024D.sc
Substitution2: "'aalt' Access All Alternates lookup 3 subtable" uni024D.sc
EndChar

StartChar: uni2C64
Encoding: 11364 11364 265
Width: 764
GlyphClass: 2
Flags: W
AnchorPoint: "Anchor-3" 476 700 basechar 0
AnchorPoint: "Anchor-0" 336 0 basechar 0
LayerCount: 2
Fore
SplineSet
328 -184 m 1,0,1
 284 -199 284 -199 238.5 -201.5 c 128,-1,2
 193 -204 193 -204 153.5 -194 c 128,-1,3
 114 -184 114 -184 85.5 -160 c 128,-1,4
 57 -136 57 -136 44.5 -97.5 c 128,-1,5
 32 -59 32 -59 43 -7 c 2,6,-1
 184 700 l 1,7,-1
 469 700 l 2,8,9
 600 700 600 700 671 643 c 128,-1,10
 742 586 742 586 742 483 c 0,11,12
 742 395 742 395 701 330.5 c 128,-1,13
 660 266 660 266 583.5 231 c 128,-1,14
 507 196 507 196 402 196 c 2,15,-1
 175 196 l 1,16,-1
 260 267 l 1,17,-1
 206 -5 l 2,18,19
 201 -29 201 -29 207.5 -45 c 128,-1,20
 214 -61 214 -61 228.5 -69 c 128,-1,21
 243 -77 243 -77 265.5 -76.5 c 128,-1,22
 288 -76 288 -76 316 -68 c 1,23,-1
 328 -184 l 1,0,1
494 0 m 1,24,-1
 351 254 l 1,25,-1
 521 254 l 1,26,-1
 665 0 l 1,27,-1
 494 0 l 1,24,-1
256 248 m 1,28,-1
 200 325 l 1,29,-1
 409 325 l 2,30,31
 489 325 489 325 533.5 361.5 c 128,-1,32
 578 398 578 398 578 468 c 0,33,34
 578 519 578 519 544 543.5 c 128,-1,35
 510 568 510 568 448 568 c 2,36,-1
 251 568 l 1,37,-1
 336 647 l 1,38,-1
 256 248 l 1,28,-1
EndSplineSet
Substitution2: "'c2sc' Capitals to Small Capitals lookup 48 subtable" uni027D.sc
Substitution2: "'aalt' Access All Alternates lookup 3 subtable" uni027D.sc
EndChar

StartChar: S
Encoding: 83 83 266
Width: 658
GlyphClass: 2
Flags: W
AnchorPoint: "Anchor-3" 420 700 basechar 0
AnchorPoint: "Anchor-1" 351 350 basechar 0
AnchorPoint: "Anchor-0" 280 0 basechar 0
LayerCount: 2
Fore
SplineSet
283 -12 m 0,0,1
 226 -12 226 -12 172.5 -1.5 c 128,-1,2
 119 9 119 9 75.5 27 c 128,-1,3
 32 45 32 45 2 66 c 1,4,-1
 68 191 l 1,5,6
 101 168 101 168 138.5 151.5 c 128,-1,7
 176 135 176 135 217 126.5 c 128,-1,8
 258 118 258 118 299 118 c 0,9,10
 344 118 344 118 376.5 128 c 128,-1,11
 409 138 409 138 426.5 156 c 128,-1,12
 444 174 444 174 444 200 c 0,13,14
 444 224 444 224 425 239 c 128,-1,15
 406 254 406 254 375.5 264.5 c 128,-1,16
 345 275 345 275 308 285 c 128,-1,17
 271 295 271 295 233.5 308.5 c 128,-1,18
 196 322 196 322 165.5 342.5 c 128,-1,19
 135 363 135 363 116 395 c 128,-1,20
 97 427 97 427 97 475 c 0,21,22
 97 547 97 547 136.5 600 c 128,-1,23
 176 653 176 653 248 682.5 c 128,-1,24
 320 712 320 712 417 712 c 0,25,26
 488 712 488 712 551 696.5 c 128,-1,27
 614 681 614 681 659 652 c 1,28,-1
 598 528 l 1,29,30
 558 555 558 555 509 568.5 c 128,-1,31
 460 582 460 582 408 582 c 0,32,33
 361 582 361 582 327.5 571 c 128,-1,34
 294 560 294 560 276.5 540.5 c 128,-1,35
 259 521 259 521 259 496 c 256,36,37
 259 471 259 471 277.5 455.5 c 128,-1,38
 296 440 296 440 327 429.5 c 128,-1,39
 358 419 358 419 395 409 c 128,-1,40
 432 399 432 399 469 386 c 128,-1,41
 506 373 506 373 537 353 c 128,-1,42
 568 333 568 333 587 302.5 c 128,-1,43
 606 272 606 272 606 226 c 0,44,45
 606 154 606 154 566 100.5 c 128,-1,46
 526 47 526 47 453.5 17.5 c 128,-1,47
 381 -12 381 -12 283 -12 c 0,0,1
EndSplineSet
Substitution2: "'c2sc' Capitals to Small Capitals lookup 48 subtable" s.sc
Substitution2: "'aalt' Access All Alternates lookup 3 subtable" s.sc
EndChar

StartChar: uni1E9E
Encoding: 7838 7838 277
Width: 790
GlyphClass: 2
Flags: W
AnchorPoint: "Anchor-3" 493 700 basechar 0
AnchorPoint: "Anchor-0" 353 0 basechar 0
LayerCount: 2
Fore
SplineSet
445 -12 m 0,0,1
 403 -12 403 -12 359 -4.5 c 128,-1,2
 315 3 315 3 286 15 c 1,3,-1
 328 139 l 1,4,5
 350 130 350 130 379 124 c 128,-1,6
 408 118 408 118 442 118 c 0,7,8
 479 118 479 118 507 131 c 128,-1,9
 535 144 535 144 550 168 c 128,-1,10
 565 192 565 192 565 224 c 0,11,12
 565 263 565 263 537.5 284.5 c 128,-1,13
 510 306 510 306 460 306 c 0,14,15
 443 306 443 306 425 303.5 c 128,-1,16
 407 301 407 301 391 296 c 1,17,-1
 376 367 l 1,18,-1
 653 632 l 1,19,-1
 649 527 l 1,20,21
 616 553 616 553 575 567.5 c 128,-1,22
 534 582 534 582 482 582 c 0,23,24
 392 582 392 582 338 536.5 c 128,-1,25
 284 491 284 491 266 399 c 2,26,-1
 187 0 l 1,27,-1
 25 0 l 1,28,-1
 106 407 l 2,29,30
 137 560 137 560 233.5 636 c 128,-1,31
 330 712 330 712 496 712 c 0,32,33
 541 712 541 712 586.5 704 c 128,-1,34
 632 696 632 696 673 680.5 c 128,-1,35
 714 665 714 665 744 643 c 1,36,-1
 725 545 l 1,37,-1
 498 327 l 1,38,-1
 442 410 l 1,39,40
 461 415 461 415 479 417 c 128,-1,41
 497 419 497 419 513 419 c 0,42,43
 576 419 576 419 625 395.5 c 128,-1,44
 674 372 674 372 701.5 330 c 128,-1,45
 729 288 729 288 729 231 c 0,46,47
 729 160 729 160 694 105 c 128,-1,48
 659 50 659 50 595.5 19 c 128,-1,49
 532 -12 532 -12 445 -12 c 0,0,1
EndSplineSet
Substitution2: "'c2sc' Capitals to Small Capitals lookup 48 subtable" germandbls.sc
Substitution2: "'aalt' Access All Alternates lookup 3 subtable" germandbls.sc
EndChar

StartChar: uniA7A8
Encoding: 42920 42920 278
Width: 658
GlyphClass: 1
Flags: W
LayerCount: 2
Fore
SplineSet
283 -12 m 0,0,1
 226 -12 226 -12 172.5 -1.5 c 128,-1,2
 119 9 119 9 75.5 27 c 128,-1,3
 32 45 32 45 2 66 c 1,4,-1
 68 187 l 1,5,6
 101 163 101 163 138.5 147 c 128,-1,7
 176 131 176 131 217 122.5 c 128,-1,8
 258 114 258 114 299 114 c 0,9,10
 344 114 344 114 376.5 124 c 128,-1,11
 409 134 409 134 426.5 153 c 128,-1,12
 444 172 444 172 444 200 c 0,13,14
 444 224 444 224 425 239 c 128,-1,15
 406 254 406 254 375.5 264.5 c 128,-1,16
 345 275 345 275 308 285 c 128,-1,17
 271 295 271 295 233.5 308.5 c 128,-1,18
 196 322 196 322 165.5 342.5 c 128,-1,19
 135 363 135 363 116 395 c 128,-1,20
 97 427 97 427 97 475 c 0,21,22
 97 547 97 547 136.5 600 c 128,-1,23
 176 653 176 653 248 682.5 c 128,-1,24
 320 712 320 712 417 712 c 0,25,26
 488 712 488 712 551 696.5 c 128,-1,27
 614 681 614 681 659 652 c 1,28,-1
 598 532 l 1,29,30
 558 559 558 559 509 572.5 c 128,-1,31
 460 586 460 586 408 586 c 0,32,33
 361 586 361 586 327.5 574.5 c 128,-1,34
 294 563 294 563 276.5 543 c 128,-1,35
 259 523 259 523 259 496 c 0,36,37
 259 471 259 471 277.5 455.5 c 128,-1,38
 296 440 296 440 327 429.5 c 128,-1,39
 358 419 358 419 395 409 c 128,-1,40
 432 399 432 399 469 386 c 128,-1,41
 506 373 506 373 537 353 c 128,-1,42
 568 333 568 333 587 302.5 c 128,-1,43
 606 272 606 272 606 226 c 0,44,45
 606 154 606 154 566 100.5 c 128,-1,46
 526 47 526 47 453.5 17.5 c 128,-1,47
 381 -12 381 -12 283 -12 c 0,0,1
266 169 m 1,48,-1
 192 219 l 1,49,-1
 412 528 l 1,50,-1
 484 481 l 1,51,-1
 266 169 l 1,48,-1
EndSplineSet
Substitution2: "'c2sc' Capitals to Small Capitals lookup 48 subtable" uniA7A9.sc
Substitution2: "'aalt' Access All Alternates lookup 3 subtable" uniA7A9.sc
EndChar

StartChar: T
Encoding: 84 84 279
Width: 638
GlyphClass: 2
Flags: W
AnchorPoint: "Anchor-3" 405 700 basechar 0
AnchorPoint: "Anchor-1" 335 351 basechar 0
AnchorPoint: "Anchor-0" 265 0 basechar 0
LayerCount: 2
Fore
SplineSet
184 0 m 1,0,-1
 297 568 l 1,1,-1
 73 568 l 1,2,-1
 100 700 l 1,3,-1
 710 700 l 1,4,-1
 683 568 l 1,5,-1
 460 568 l 1,6,-1
 346 0 l 1,7,-1
 184 0 l 1,0,-1
EndSplineSet
Substitution2: "'ss01' Style Set 1 lookup 53 subtable" T.ss01
Substitution2: "'c2sc' Capitals to Small Capitals lookup 48 subtable" t.sc
AlternateSubs2: "'aalt' Access All Alternates lookup 4 subtable" t.sc T.ss01
EndChar

StartChar: Tbar
Encoding: 358 358 280
Width: 638
GlyphClass: 1
Flags: W
LayerCount: 2
Fore
SplineSet
184 0 m 1,0,-1
 298 568 l 1,1,-1
 74 568 l 1,2,-1
 101 700 l 1,3,-1
 710 700 l 1,4,-1
 684 568 l 1,5,-1
 460 568 l 1,6,-1
 347 0 l 1,7,-1
 184 0 l 1,0,-1
108 287 m 1,8,-1
 129 395 l 1,9,-1
 560 395 l 1,10,-1
 540 287 l 1,11,-1
 108 287 l 1,8,-1
EndSplineSet
Substitution2: "'ss01' Style Set 1 lookup 53 subtable" Tbar.ss01
Substitution2: "'c2sc' Capitals to Small Capitals lookup 48 subtable" tbar.sc
AlternateSubs2: "'aalt' Access All Alternates lookup 4 subtable" tbar.sc Tbar.ss01
EndChar

StartChar: uni023E
Encoding: 574 574 285
Width: 635
GlyphClass: 1
Flags: W
LayerCount: 2
Fore
SplineSet
49 -70 m 1,0,-1
 602 770 l 1,1,-1
 700 770 l 1,2,-1
 147 -70 l 1,3,-1
 49 -70 l 1,0,-1
187 0 m 1,4,-1
 301 568 l 1,5,-1
 73 568 l 1,6,-1
 100 700 l 1,7,-1
 707 700 l 1,8,-1
 681 568 l 1,9,-1
 453 568 l 1,10,-1
 340 0 l 1,11,-1
 187 0 l 1,4,-1
EndSplineSet
Substitution2: "'ss01' Style Set 1 lookup 53 subtable" uni023E.ss01
Substitution2: "'c2sc' Capitals to Small Capitals lookup 48 subtable" uni2C66.sc
AlternateSubs2: "'aalt' Access All Alternates lookup 4 subtable" uni2C66.sc uni023E.ss01
Substitution2: "'rvrn' Required Variation Alternates lookup 1 subtable" uni023E.BRACKET.varAlt01
Substitution2: "'rvrn' Required Variation Alternates lookup 0 subtable" uni023E.BRACKET.varAlt01
EndChar

StartChar: uni01AC
Encoding: 428 428 288
Width: 731
GlyphClass: 2
Flags: W
AnchorPoint: "Anchor-3" 498 700 basechar 0
AnchorPoint: "Anchor-1" 423 328 basechar 0
AnchorPoint: "Anchor-0" 358 0 basechar 0
LayerCount: 2
Fore
SplineSet
277 0 m 1,0,-1
 390 568 l 1,1,-1
 300 568 l 1,2,-1
 321 700 l 1,3,-1
 803 700 l 1,4,-1
 776 568 l 1,5,-1
 553 568 l 1,6,-1
 439 0 l 1,7,-1
 277 0 l 1,0,-1
113 363 m 1,8,9
 79 426 79 426 80 486 c 128,-1,10
 81 546 81 546 111 594.5 c 128,-1,11
 141 643 141 643 195 671.5 c 128,-1,12
 249 700 249 700 321 700 c 2,13,-1
 355 700 l 1,14,-1
 329 568 l 1,15,-1
 300 568 l 2,16,17
 259 568 259 568 235.5 545.5 c 128,-1,18
 212 523 212 523 210.5 487.5 c 128,-1,19
 209 452 209 452 232 412 c 1,20,-1
 113 363 l 1,8,9
EndSplineSet
Substitution2: "'ss01' Style Set 1 lookup 53 subtable" uni01AC.ss01
Substitution2: "'c2sc' Capitals to Small Capitals lookup 48 subtable" uni01AD.sc
AlternateSubs2: "'aalt' Access All Alternates lookup 4 subtable" uni01AD.sc uni01AC.ss01
EndChar

StartChar: uni01AE
Encoding: 430 430 290
Width: 637
GlyphClass: 2
Flags: W
AnchorPoint: "Anchor-3" 405 700 basechar 0
AnchorPoint: "Anchor-1" 330 328 basechar 0
AnchorPoint: "Anchor-0" 265 0 basechar 0
LayerCount: 2
Fore
SplineSet
467 -184 m 1,0,1
 422 -199 422 -199 377 -201.5 c 128,-1,2
 332 -204 332 -204 292.5 -194 c 128,-1,3
 253 -184 253 -184 224 -160.5 c 128,-1,4
 195 -137 195 -137 183 -98.5 c 128,-1,5
 171 -60 171 -60 182 -9 c 2,6,-1
 297 568 l 1,7,-1
 73 568 l 1,8,-1
 100 700 l 1,9,-1
 710 700 l 1,10,-1
 683 568 l 1,11,-1
 460 568 l 1,12,-1
 344 -5 l 2,13,14
 339 -29 339 -29 345.5 -45 c 128,-1,15
 352 -61 352 -61 367 -69 c 128,-1,16
 382 -77 382 -77 404.5 -76.5 c 128,-1,17
 427 -76 427 -76 454 -68 c 1,18,-1
 467 -184 l 1,0,1
EndSplineSet
Substitution2: "'ss01' Style Set 1 lookup 53 subtable" uni01AE.ss01
Substitution2: "'c2sc' Capitals to Small Capitals lookup 48 subtable" uni0288.sc
AlternateSubs2: "'aalt' Access All Alternates lookup 4 subtable" uni0288.sc uni01AE.ss01
EndChar

StartChar: uniA7B1
Encoding: 42929 42929 291
Width: 638
GlyphClass: 2
Flags: W
AnchorPoint: "Anchor-3" 405 700 basechar 0
AnchorPoint: "Anchor-1" 335 349 basechar 0
AnchorPoint: "Anchor-0" 265 0 basechar 0
LayerCount: 2
Fore
SplineSet
-40 0 m 1,0,-1
 -13 132 l 1,1,-1
 211 132 l 1,2,-1
 324 700 l 1,3,-1
 486 700 l 1,4,-1
 373 132 l 1,5,-1
 597 132 l 1,6,-1
 570 0 l 1,7,-1
 -40 0 l 1,0,-1
EndSplineSet
Substitution2: "'ss01' Style Set 1 lookup 53 subtable" uniA7B1.ss01
Substitution2: "'c2sc' Capitals to Small Capitals lookup 48 subtable" uni0287.sc
AlternateSubs2: "'aalt' Access All Alternates lookup 4 subtable" uni0287.sc uniA7B1.ss01
EndChar

StartChar: U
Encoding: 85 85 292
Width: 790
GlyphClass: 2
Flags: W
AnchorPoint: "Anchor-4" 738 700 basechar 0
AnchorPoint: "Anchor-3" 482 700 basechar 0
AnchorPoint: "Anchor-2" 555 0 basechar 0
AnchorPoint: "Anchor-0" 342 0 basechar 0
LayerCount: 2
Fore
SplineSet
361 -12 m 0,0,1
 258 -12 258 -12 190 28 c 128,-1,2
 122 68 122 68 94.5 139.5 c 128,-1,3
 67 211 67 211 86 308 c 2,4,-1
 165 700 l 1,5,-1
 327 700 l 1,6,-1
 249 311 l 2,7,8
 230 217 230 217 265 171.5 c 128,-1,9
 300 126 300 126 379 126 c 0,10,11
 452 126 452 126 496.5 169.5 c 128,-1,12
 541 213 541 213 560 311 c 2,13,-1
 638 700 l 1,14,-1
 798 700 l 1,15,-1
 718 301 l 2,16,17
 687 146 687 146 597.5 67 c 128,-1,18
 508 -12 508 -12 361 -12 c 0,0,1
EndSplineSet
Substitution2: "'ss01' Style Set 1 lookup 53 subtable" U.ss01
Substitution2: "'c2sc' Capitals to Small Capitals lookup 48 subtable" u.sc
AlternateSubs2: "'aalt' Access All Alternates lookup 4 subtable" u.sc U.ss01
EndChar

StartChar: uni0244
Encoding: 580 580 294
Width: 800
GlyphClass: 2
Flags: W
AnchorPoint: "Anchor-4" 739 700 basechar 0
AnchorPoint: "Anchor-3" 483 700 basechar 0
AnchorPoint: "Anchor-2" 556 0 basechar 0
AnchorPoint: "Anchor-0" 343 0 basechar 0
LayerCount: 2
Fore
SplineSet
166 700 m 1,0,-1
 328 700 l 1,1,-1
 250 311 l 2,2,3
 231 217 231 217 266 171.5 c 128,-1,4
 301 126 301 126 380 126 c 0,5,6
 453 126 453 126 497.5 169.5 c 128,-1,7
 542 213 542 213 561 311 c 2,8,-1
 639 700 l 1,9,-1
 799 700 l 1,10,-1
 719 301 l 2,11,12
 688 146 688 146 598.5 67 c 128,-1,13
 509 -12 509 -12 362 -12 c 0,14,15
 259 -12 259 -12 191 28 c 128,-1,16
 123 68 123 68 95.5 139.5 c 128,-1,17
 68 211 68 211 87 308 c 2,18,-1
 166 700 l 1,0,-1
-3 303 m 1,19,-1
 18 412 l 1,20,-1
 829 412 l 1,21,-1
 808 303 l 1,22,-1
 -3 303 l 1,19,-1
EndSplineSet
Substitution2: "'ss01' Style Set 1 lookup 53 subtable" uni0244.ss01
Substitution2: "'c2sc' Capitals to Small Capitals lookup 48 subtable" uni0289.sc
AlternateSubs2: "'aalt' Access All Alternates lookup 4 subtable" uni0289.sc uni0244.ss01
EndChar

StartChar: Uogonek
Encoding: 370 370 319
Width: 790
GlyphClass: 2
Flags: W
AnchorPoint: "Anchor-4" 738 700 basechar 0
AnchorPoint: "Anchor-3" 482 700 basechar 0
AnchorPoint: "Anchor-0" 295 -232 basechar 0
LayerCount: 2
Fore
SplineSet
638 700 m 1,0,-1
 798 700 l 1,1,-1
 718 301 l 2,2,3
 693 175 693 175 629 99 c 128,-1,4
 565 23 565 23 462 -1 c 0,5,6
 380 -20 380 -20 344 -50 c 128,-1,7
 308 -80 308 -80 308 -111 c 0,8,9
 308 -131 308 -131 321.5 -142 c 128,-1,10
 335 -153 335 -153 357 -153 c 0,11,12
 374 -153 374 -153 390.5 -148.5 c 128,-1,13
 407 -144 407 -144 420 -138 c 1,14,-1
 432 -209 l 1,15,16
 412 -219 412 -219 386.5 -225.5 c 128,-1,17
 361 -232 361 -232 331 -232 c 0,18,19
 275 -232 275 -232 240 -206 c 128,-1,20
 205 -180 205 -180 205 -133 c 0,21,22
 205 -83 205 -83 240 -44.5 c 128,-1,23
 275 -6 275 -6 340 22 c 1,24,-1
 404 -10 l 1,25,26
 393 -11 393 -11 382.5 -11.5 c 128,-1,27
 372 -12 372 -12 361 -12 c 0,28,29
 258 -12 258 -12 190 28 c 128,-1,30
 122 68 122 68 94.5 139.5 c 128,-1,31
 67 211 67 211 86 308 c 2,32,-1
 165 700 l 1,33,-1
 327 700 l 1,34,-1
 249 311 l 2,35,36
 230 217 230 217 265 171.5 c 128,-1,37
 300 126 300 126 379 126 c 0,38,39
 452 126 452 126 496.5 169.5 c 128,-1,40
 541 213 541 213 560 311 c 2,41,-1
 638 700 l 1,0,-1
EndSplineSet
Substitution2: "'ss01' Style Set 1 lookup 53 subtable" Uogonek.ss01
Substitution2: "'c2sc' Capitals to Small Capitals lookup 48 subtable" uogonek.sc
Substitution2: "'locl' Localized Forms in Latin lookup 18 subtable" Uogonek.loclNAV
AlternateSubs2: "'aalt' Access All Alternates lookup 4 subtable" Uogonek.loclNAV uogonek.sc Uogonek.ss01
EndChar

StartChar: uni01B1
Encoding: 433 433 320
Width: 921
GlyphClass: 2
Flags: W
AnchorPoint: "Anchor-3" 547 700 basechar 0
AnchorPoint: "Anchor-0" 407 0 basechar 0
LayerCount: 2
Fore
SplineSet
981 700 m 1,0,-1
 956 568 l 1,1,-1
 787 568 l 1,2,3
 823 528 823 528 839.5 479.5 c 128,-1,4
 856 431 856 431 856 370 c 0,5,6
 856 284 856 284 823.5 214 c 128,-1,7
 791 144 791 144 732.5 93.5 c 128,-1,8
 674 43 674 43 596 15.5 c 128,-1,9
 518 -12 518 -12 426 -12 c 0,10,11
 329 -12 329 -12 252 22.5 c 128,-1,12
 175 57 175 57 130.5 121 c 128,-1,13
 86 185 86 185 86 273 c 0,14,15
 86 321 86 321 97.5 364.5 c 128,-1,16
 109 408 109 408 130.5 446 c 128,-1,17
 152 484 152 484 179.5 514.5 c 128,-1,18
 207 545 207 545 238 568 c 1,19,-1
 85 568 l 1,20,-1
 111 700 l 1,21,-1
 477 700 l 1,22,-1
 453 577 l 1,23,24
 410 559 410 559 373 532 c 128,-1,25
 336 505 336 505 308.5 468.5 c 128,-1,26
 281 432 281 432 266 388 c 128,-1,27
 251 344 251 344 251 294 c 0,28,29
 251 212 251 212 305 169 c 128,-1,30
 359 126 359 126 443 126 c 0,31,32
 523 126 523 126 579.5 159 c 128,-1,33
 636 192 636 192 666.5 249.5 c 128,-1,34
 697 307 697 307 697 380 c 0,35,36
 697 424 697 424 685.5 460.5 c 128,-1,37
 674 497 674 497 650.5 526 c 128,-1,38
 627 555 627 555 590 577 c 1,39,-1
 615 700 l 1,40,-1
 981 700 l 1,0,-1
EndSplineSet
Substitution2: "'c2sc' Capitals to Small Capitals lookup 48 subtable" uni028A.sc
Substitution2: "'aalt' Access All Alternates lookup 3 subtable" uni028A.sc
EndChar

StartChar: V
Encoding: 86 86 325
Width: 766
GlyphClass: 2
Flags: W
AnchorPoint: "Anchor-3" 469 700 basechar 0
AnchorPoint: "Anchor-2" 409 0 basechar 0
AnchorPoint: "Anchor-0" 329 0 basechar 0
LayerCount: 2
Fore
SplineSet
249 0 m 1,0,-1
 87 700 l 1,1,-1
 254 700 l 1,2,-1
 395 79 l 1,3,-1
 290 79 l 1,4,-1
 684 700 l 1,5,-1
 852 700 l 1,6,-1
 409 0 l 1,7,-1
 249 0 l 1,0,-1
EndSplineSet
Substitution2: "'c2sc' Capitals to Small Capitals lookup 48 subtable" v.sc
Substitution2: "'aalt' Access All Alternates lookup 3 subtable" v.sc
EndChar

StartChar: uni0194
Encoding: 404 404 326
Width: 696
GlyphClass: 2
Flags: W
AnchorPoint: "Anchor-3" 434 700 basechar 0
AnchorPoint: "Anchor-1" 342 257 basechar 0
AnchorPoint: "Anchor-0" 294 0 basechar 0
LayerCount: 2
Fore
SplineSet
277 -206 m 0,0,1
 225 -206 225 -206 186 -184 c 128,-1,2
 147 -162 147 -162 128.5 -124.5 c 128,-1,3
 110 -87 110 -87 119 -42 c 0,4,5
 125 -5 125 -5 148 30.5 c 128,-1,6
 171 66 171 66 200.5 101 c 128,-1,7
 230 136 230 136 260.5 170.5 c 128,-1,8
 291 205 291 205 314 239 c 2,9,-1
 633 700 l 1,10,-1
 802 700 l 1,11,-1
 421 153 l 2,12,13
 403 129 403 129 374 100.5 c 128,-1,14
 345 72 345 72 314.5 43 c 128,-1,15
 284 14 284 14 261.5 -12.5 c 128,-1,16
 239 -39 239 -39 236 -61 c 0,17,18
 233 -79 233 -79 246 -92 c 128,-1,19
 259 -105 259 -105 280 -105 c 0,20,21
 300 -105 300 -105 315 -92.5 c 128,-1,22
 330 -80 330 -80 334 -61 c 0,23,24
 338 -39 338 -39 328 -12 c 128,-1,25
 318 15 318 15 301 43 c 128,-1,26
 284 71 284 71 268.5 98.5 c 128,-1,27
 253 126 253 126 245 149 c 2,28,-1
 77 700 l 1,29,-1
 244 700 l 1,30,-1
 376 239 l 2,31,32
 384 210 384 210 399.5 173 c 128,-1,33
 415 136 415 136 430 95 c 128,-1,34
 445 54 445 54 453 12 c 128,-1,35
 461 -30 461 -30 454 -69 c 0,36,37
 443 -130 443 -130 394.5 -168 c 128,-1,38
 346 -206 346 -206 277 -206 c 0,0,1
EndSplineSet
Substitution2: "'c2sc' Capitals to Small Capitals lookup 48 subtable" uni0263.sc
Substitution2: "'aalt' Access All Alternates lookup 3 subtable" uni0263.sc
EndChar

StartChar: uni01B2
Encoding: 434 434 328
Width: 788
GlyphClass: 2
Flags: W
AnchorPoint: "Anchor-4" 738 700 basechar 0
AnchorPoint: "Anchor-3" 482 704 basechar 0
AnchorPoint: "Anchor-2" 555 0 basechar 0
AnchorPoint: "Anchor-0" 342 0 basechar 0
LayerCount: 2
Fore
SplineSet
361 -12 m 0,0,1
 258 -12 258 -12 190 28 c 128,-1,2
 122 68 122 68 94.5 139.5 c 128,-1,3
 67 211 67 211 86 308 c 2,4,-1
 165 700 l 1,5,-1
 327 700 l 1,6,-1
 249 311 l 2,7,8
 230 217 230 217 265 171.5 c 128,-1,9
 300 126 300 126 379 126 c 0,10,11
 452 126 452 126 497 169.5 c 128,-1,12
 542 213 542 213 562 311 c 2,13,-1
 603 519 l 2,14,15
 609 549 609 549 601 567 c 128,-1,16
 593 585 593 585 575.5 592 c 128,-1,17
 558 599 558 599 534.5 596 c 128,-1,18
 511 593 511 593 485 579 c 1,19,-1
 472 694 l 1,20,21
 516 712 516 712 562 717 c 128,-1,22
 608 722 608 722 649.5 713 c 128,-1,23
 691 704 691 704 720.5 680 c 128,-1,24
 750 656 750 656 762.5 615.5 c 128,-1,25
 775 575 775 575 763 517 c 2,26,-1
 720 301 l 2,27,28
 689 146 689 146 598.5 67 c 128,-1,29
 508 -12 508 -12 361 -12 c 0,0,1
EndSplineSet
Substitution2: "'c2sc' Capitals to Small Capitals lookup 48 subtable" uni028B.sc
Substitution2: "'locl' Localized Forms in Latin lookup 21 subtable" uni01B2.loclTOD0
AlternateSubs2: "'aalt' Access All Alternates lookup 4 subtable" uni01B2.loclTOD0 uni028B.sc
EndChar

StartChar: uni0245
Encoding: 581 581 330
Width: 766
GlyphClass: 2
Flags: W
AnchorPoint: "Anchor-3" 470 700 basechar 0
AnchorPoint: "Anchor-2" 712 0 basechar 0
AnchorPoint: "Anchor-0" 330 0 basechar 0
LayerCount: 2
Fore
SplineSet
549 700 m 1,0,-1
 712 0 l 1,1,-1
 545 0 l 1,2,-1
 404 621 l 1,3,-1
 509 621 l 1,4,-1
 115 0 l 1,5,-1
 -53 0 l 1,6,-1
 390 700 l 1,7,-1
 549 700 l 1,0,-1
EndSplineSet
Substitution2: "'c2sc' Capitals to Small Capitals lookup 48 subtable" uni028C.sc
Substitution2: "'aalt' Access All Alternates lookup 3 subtable" uni028C.sc
EndChar

StartChar: W
Encoding: 87 87 331
Width: 1167
GlyphClass: 2
Flags: W
AnchorPoint: "Anchor-3" 669 700 basechar 0
AnchorPoint: "Anchor-0" 529 0 basechar 0
LayerCount: 2
Fore
SplineSet
199 0 m 1,0,-1
 109 700 l 1,1,-1
 270 700 l 1,2,-1
 347 81 l 1,3,-1
 264 81 l 1,4,-1
 595 700 l 1,5,-1
 745 700 l 1,6,-1
 820 81 l 1,7,-1
 740 81 l 1,8,-1
 1069 700 l 1,9,-1
 1230 700 l 1,10,-1
 860 0 l 1,11,-1
 686 0 l 1,12,-1
 616 544 l 1,13,-1
 665 544 l 1,14,-1
 373 0 l 1,15,-1
 199 0 l 1,0,-1
EndSplineSet
Substitution2: "'ss01' Style Set 1 lookup 53 subtable" W.ss01
Substitution2: "'c2sc' Capitals to Small Capitals lookup 48 subtable" w.sc
AlternateSubs2: "'aalt' Access All Alternates lookup 4 subtable" w.sc W.ss01
EndChar

StartChar: uni2C72
Encoding: 11378 11378 338
Width: 1205
GlyphClass: 2
Flags: W
AnchorPoint: "Anchor-3" 670 700 basechar 0
AnchorPoint: "Anchor-0" 530 0 basechar 0
LayerCount: 2
Fore
SplineSet
199 0 m 1,0,-1
 109 700 l 1,1,-1
 270 700 l 1,2,-1
 347 78 l 1,3,-1
 264 78 l 1,4,-1
 595 700 l 1,5,-1
 745 700 l 1,6,-1
 814 78 l 1,7,-1
 734 78 l 1,8,-1
 1014 618 l 2,9,10
 1046 679 1046 679 1084.5 710.5 c 128,-1,11
 1123 742 1123 742 1162.5 750 c 128,-1,12
 1202 758 1202 758 1239 748 c 128,-1,13
 1276 738 1276 738 1306 717 c 1,14,-1
 1243 603 l 1,15,16
 1226 613 1226 613 1208.5 612 c 128,-1,17
 1191 611 1191 611 1175 598.5 c 128,-1,18
 1159 586 1159 586 1145 560 c 2,19,-1
 854 0 l 1,20,-1
 680 0 l 1,21,-1
 616 549 l 1,22,-1
 665 550 l 1,23,-1
 373 0 l 1,24,-1
 199 0 l 1,0,-1
EndSplineSet
Substitution2: "'ss01' Style Set 1 lookup 53 subtable" uni2C72.ss01
Substitution2: "'c2sc' Capitals to Small Capitals lookup 48 subtable" uni2C73.sc
AlternateSubs2: "'aalt' Access All Alternates lookup 4 subtable" uni2C73.sc uni2C72.ss01
EndChar

StartChar: X
Encoding: 88 88 339
Width: 734
GlyphClass: 2
Flags: W
AnchorPoint: "Anchor-3" 454 700 basechar 0
AnchorPoint: "Anchor-0" 314 0 basechar 0
LayerCount: 2
Fore
SplineSet
-40 0 m 1,0,-1
 337 408 l 1,1,-1
 321 315 l 1,2,-1
 114 700 l 1,3,-1
 287 700 l 1,4,-1
 431 424 l 1,5,-1
 360 426 l 1,6,-1
 608 700 l 1,7,-1
 792 700 l 1,8,-1
 438 315 l 1,9,-1
 443 407 l 1,10,-1
 665 0 l 1,11,-1
 490 0 l 1,12,-1
 338 292 l 1,13,-1
 411 289 l 1,14,-1
 154 0 l 1,15,-1
 -40 0 l 1,0,-1
EndSplineSet
Substitution2: "'c2sc' Capitals to Small Capitals lookup 48 subtable" x.sc
Substitution2: "'aalt' Access All Alternates lookup 3 subtable" x.sc
EndChar

StartChar: Y
Encoding: 89 89 342
Width: 716
GlyphClass: 2
Flags: W
AnchorPoint: "Anchor-3" 444 700 basechar 0
AnchorPoint: "Anchor-2" 385 0 basechar 0
AnchorPoint: "Anchor-1" 349 228 basechar 0
AnchorPoint: "Anchor-0" 304 0 basechar 0
LayerCount: 2
Fore
SplineSet
223 0 m 1,0,-1
 280 288 l 1,1,-1
 298 186 l 1,2,-1
 92 700 l 1,3,-1
 254 700 l 1,4,-1
 411 307 l 1,5,-1
 313 306 l 1,6,-1
 630 700 l 1,7,-1
 797 700 l 1,8,-1
 387 185 l 1,9,-1
 442 288 l 1,10,-1
 385 0 l 1,11,-1
 223 0 l 1,0,-1
EndSplineSet
Substitution2: "'ss01' Style Set 1 lookup 53 subtable" Y.ss01
Substitution2: "'c2sc' Capitals to Small Capitals lookup 48 subtable" y.sc
AlternateSubs2: "'aalt' Access All Alternates lookup 4 subtable" y.sc Y.ss01
EndChar

StartChar: uni01B3
Encoding: 435 435 349
Width: 734
GlyphClass: 2
Flags: W
AnchorPoint: "Anchor-3" 455 700 basechar 0
AnchorPoint: "Anchor-1" 362 257 basechar 0
AnchorPoint: "Anchor-0" 315 0 basechar 0
LayerCount: 2
Fore
SplineSet
223 0 m 1,0,-1
 280 288 l 1,1,-1
 298 186 l 1,2,-1
 92 700 l 1,3,-1
 254 700 l 1,4,-1
 411 307 l 1,5,-1
 313 306 l 1,6,-1
 610 676 l 2,7,8
 659 739 659 739 725.5 750 c 128,-1,9
 792 761 792 761 854 715 c 1,10,-1
 790 601 l 1,11,12
 764 614 764 614 742 608.5 c 128,-1,13
 720 603 720 603 700 578 c 2,14,-1
 387 185 l 1,15,-1
 442 288 l 1,16,-1
 385 0 l 1,17,-1
 223 0 l 1,0,-1
EndSplineSet
Substitution2: "'ss01' Style Set 1 lookup 53 subtable" uni01B3.ss01
Substitution2: "'c2sc' Capitals to Small Capitals lookup 48 subtable" uni01B4.sc
AlternateSubs2: "'aalt' Access All Alternates lookup 4 subtable" uni01B4.sc uni01B3.ss01
EndChar

StartChar: uni01A6
Encoding: 422 422 352
Width: 755
GlyphClass: 2
Flags: W
AnchorPoint: "Anchor-3" 470 700 basechar 0
AnchorPoint: "Anchor-0" 330 0 basechar 0
LayerCount: 2
Fore
SplineSet
160 132 m 1,0,-1
 186 261 l 1,1,-1
 395 261 l 2,2,3
 475 261 475 261 519.5 297.5 c 128,-1,4
 564 334 564 334 564 403 c 0,5,6
 564 455 564 455 530 479.5 c 128,-1,7
 496 504 496 504 434 504 c 2,8,-1
 236 504 l 1,9,-1
 263 636 l 1,10,-1
 455 636 l 2,11,12
 585 636 585 636 656.5 579 c 128,-1,13
 728 522 728 522 728 419 c 0,14,15
 728 331 728 331 687 266.5 c 128,-1,16
 646 202 646 202 569.5 167 c 128,-1,17
 493 132 493 132 388 132 c 2,18,-1
 160 132 l 1,0,-1
39 0 m 1,19,-1
 179 700 l 1,20,-1
 342 700 l 1,21,-1
 202 0 l 1,22,-1
 39 0 l 1,19,-1
475 -100 m 1,23,-1
 324 167 l 1,24,-1
 494 167 l 1,25,-1
 645 -100 l 1,26,-1
 475 -100 l 1,23,-1
EndSplineSet
Substitution2: "'c2sc' Capitals to Small Capitals lookup 48 subtable" uni0280.sc
Substitution2: "'aalt' Access All Alternates lookup 3 subtable" uni0280.sc
EndChar

StartChar: uni024E
Encoding: 590 590 353
Width: 761
GlyphClass: 2
Flags: W
AnchorPoint: "Anchor-3" 490 700 basechar 0
AnchorPoint: "Anchor-1" 397 257 basechar 0
AnchorPoint: "Anchor-0" 350 0 basechar 0
LayerCount: 2
Fore
SplineSet
270 0 m 1,0,-1
 327 288 l 1,1,-1
 346 186 l 1,2,-1
 139 700 l 1,3,-1
 295 700 l 1,4,-1
 442 299 l 1,5,-1
 377 298 l 1,6,-1
 685 700 l 1,7,-1
 844 700 l 1,8,-1
 434 185 l 1,9,-1
 490 288 l 1,10,-1
 432 0 l 1,11,-1
 270 0 l 1,0,-1
103 499 m 1,12,-1
 125 608 l 1,13,-1
 824 608 l 1,14,-1
 803 499 l 1,15,-1
 103 499 l 1,12,-1
EndSplineSet
Substitution2: "'ss01' Style Set 1 lookup 53 subtable" uni024E.ss01
Substitution2: "'c2sc' Capitals to Small Capitals lookup 48 subtable" uni024F.sc
AlternateSubs2: "'aalt' Access All Alternates lookup 4 subtable" uni024F.sc uni024E.ss01
EndChar

StartChar: Z
Encoding: 90 90 355
Width: 691
GlyphClass: 2
Flags: W
AnchorPoint: "Anchor-3" 440 700 basechar 0
AnchorPoint: "Anchor-2" 605 0 basechar 0
AnchorPoint: "Anchor-0" 304 0 basechar 0
LayerCount: 2
Fore
SplineSet
-7 0 m 1,0,-1
 14 105 l 1,1,-1
 546 627 l 1,2,-1
 560 568 l 1,3,-1
 117 568 l 1,4,-1
 144 700 l 1,5,-1
 732 700 l 1,6,-1
 711 595 l 1,7,-1
 180 73 l 1,8,-1
 166 132 l 1,9,-1
 632 132 l 1,10,-1
 605 0 l 1,11,-1
 -7 0 l 1,0,-1
EndSplineSet
Substitution2: "'ss01' Style Set 1 lookup 53 subtable" Z.ss01
Substitution2: "'c2sc' Capitals to Small Capitals lookup 48 subtable" z.sc
AlternateSubs2: "'aalt' Access All Alternates lookup 4 subtable" z.sc Z.ss01
EndChar

StartChar: uni01B5
Encoding: 437 437 362
Width: 691
GlyphClass: 2
Flags: W
AnchorPoint: "Anchor-3" 440 700 basechar 0
AnchorPoint: "Anchor-0" 304 0 basechar 0
LayerCount: 2
Fore
SplineSet
-7 0 m 1,0,-1
 14 105 l 1,1,-1
 546 627 l 1,2,-1
 560 568 l 1,3,-1
 117 568 l 1,4,-1
 144 700 l 1,5,-1
 732 700 l 1,6,-1
 711 595 l 1,7,-1
 180 73 l 1,8,-1
 166 132 l 1,9,-1
 632 132 l 1,10,-1
 605 0 l 1,11,-1
 -7 0 l 1,0,-1
130 303 m 1,12,-1
 151 412 l 1,13,-1
 607 412 l 1,14,-1
 586 303 l 1,15,-1
 130 303 l 1,12,-1
EndSplineSet
Substitution2: "'c2sc' Capitals to Small Capitals lookup 48 subtable" uni01B6.sc
Substitution2: "'aalt' Access All Alternates lookup 3 subtable" uni01B6.sc
EndChar

StartChar: uniA78B
Encoding: 42891 42891 363
Width: 317
GlyphClass: 1
Flags: W
LayerCount: 2
Fore
SplineSet
83 297 m 1,0,-1
 164 700 l 1,1,-1
 324 700 l 1,2,-1
 224 297 l 1,3,-1
 83 297 l 1,0,-1
EndSplineSet
Substitution2: "'c2sc' Capitals to Small Capitals lookup 48 subtable" uniA78C.sc
Substitution2: "'aalt' Access All Alternates lookup 3 subtable" uniA78C.sc
EndChar

StartChar: uni0295.case
Encoding: 65538 -1 364
Width: 637
GlyphClass: 2
Flags: W
AnchorPoint: "Anchor-3" 418 700 basechar 0
AnchorPoint: "Anchor-0" 282 0 basechar 0
LayerCount: 2
Fore
SplineSet
364 0 m 1,0,-1
 201 0 l 1,1,-1
 233 156 l 2,2,3
 239 190 239 190 227.5 214.5 c 128,-1,4
 216 239 216 239 193.5 258.5 c 128,-1,5
 171 278 171 278 145.5 297 c 128,-1,6
 120 316 120 316 98.5 340.5 c 128,-1,7
 77 365 77 365 67 399 c 128,-1,8
 57 433 57 433 67 481 c 0,9,10
 79 540 79 540 113 583.5 c 128,-1,11
 147 627 147 627 196.5 655.5 c 128,-1,12
 246 684 246 684 303.5 698 c 128,-1,13
 361 712 361 712 420 712 c 0,14,15
 485 712 485 712 542 695 c 128,-1,16
 599 678 599 678 642 645.5 c 128,-1,17
 685 613 685 613 705 564 c 1,18,-1
 565 489 l 1,19,20
 551 521 551 521 525 541 c 128,-1,21
 499 561 499 561 467 570.5 c 128,-1,22
 435 580 435 580 401 580 c 0,23,24
 363 580 363 580 325.5 568 c 128,-1,25
 288 556 288 556 262 533 c 128,-1,26
 236 510 236 510 229 474 c 0,27,28
 223 444 223 444 235.5 422.5 c 128,-1,29
 248 401 248 401 270.5 384 c 128,-1,30
 293 367 293 367 318.5 349.5 c 128,-1,31
 344 332 344 332 365.5 309 c 128,-1,32
 387 286 387 286 397.5 252 c 128,-1,33
 408 218 408 218 398 168 c 2,34,-1
 364 0 l 1,0,-1
EndSplineSet
EndChar

StartChar: uni01B2.loclTOD0
Encoding: 65548 -1 374
Width: 800
GlyphClass: 2
Flags: W
AnchorPoint: "Anchor-3" 469 700 basechar 0
AnchorPoint: "Anchor-0" 329 0 basechar 0
LayerCount: 2
Fore
SplineSet
409 0 m 1,0,-1
 289 78 l 1,1,-1
 627 618 l 2,2,3
 664 677 664 677 703 708 c 128,-1,4
 742 739 742 739 780 748 c 128,-1,5
 818 757 818 757 853.5 748 c 128,-1,6
 889 739 889 739 918 717 c 1,7,-1
 856 603 l 1,8,9
 831 618 831 618 806.5 608 c 128,-1,10
 782 598 782 598 758 560 c 2,11,-1
 409 0 l 1,0,-1
249 0 m 1,12,-1
 87 700 l 1,13,-1
 254 700 l 1,14,-1
 395 79 l 1,15,-1
 409 0 l 1,16,-1
 249 0 l 1,12,-1
EndSplineSet
Substitution2: "'ss01' Style Set 1 lookup 53 subtable" uni01B2.loclTOD0.ss01
Substitution2: "'c2sc' Capitals to Small Capitals lookup 48 subtable" uni01B2.loclTOD0.sc
AlternateSubs2: "'aalt' Access All Alternates lookup 4 subtable" uni01B2.loclTOD0.sc uni01B2.loclTOD0.ss01
EndChar

StartChar: uni0181.loclXPE
Encoding: 65549 -1 375
Width: 751
GlyphClass: 1
Flags: W
LayerCount: 2
Fore
SplineSet
51 47 m 1,0,-1
 182 700 l 1,1,-1
 728 700 l 1,2,-1
 702 571 l 1,3,-1
 316 571 l 1,4,-1
 228 128 l 1,5,-1
 51 47 l 1,0,-1
368 -11 m 0,6,7
 285 -11 285 -11 201.5 5 c 128,-1,8
 118 21 118 21 51 47 c 1,9,-1
 220 139 l 1,10,11
 257 125 257 125 296 117.5 c 128,-1,12
 335 110 335 110 370 110 c 0,13,14
 414 110 414 110 448 119.5 c 128,-1,15
 482 129 482 129 503.5 148 c 128,-1,16
 525 167 525 167 531 198 c 0,17,18
 538 230 538 230 522.5 253 c 128,-1,19
 507 276 507 276 472 288 c 128,-1,20
 437 300 437 300 384 300 c 0,21,22
 348 300 348 300 307.5 294.5 c 128,-1,23
 267 289 267 289 228 278 c 1,24,-1
 251 392 l 1,25,26
 300 406 300 406 346 412.5 c 128,-1,27
 392 419 392 419 435 419 c 0,28,29
 526 419 526 419 588.5 390 c 128,-1,30
 651 361 651 361 679 308.5 c 128,-1,31
 707 256 707 256 693 185 c 0,32,33
 680 116 680 116 635.5 72.5 c 128,-1,34
 591 29 591 29 522.5 9 c 128,-1,35
 454 -11 454 -11 368 -11 c 0,6,7
EndSplineSet
EndChar

StartChar: A.ss01
Encoding: 65550 -1 376
Width: 799
GlyphClass: 2
Flags: W
AnchorPoint: "Anchor-3" 484 700 basechar 0
AnchorPoint: "Anchor-2" 667 0 basechar 0
AnchorPoint: "Anchor-0" 345 0 basechar 0
LayerCount: 2
Fore
SplineSet
25 0 m 1,0,-1
 104 399 l 2,1,2
 136 556 136 556 229 634 c 128,-1,3
 322 712 322 712 469 712 c 0,4,5
 571 712 571 712 639 672 c 128,-1,6
 707 632 707 632 735 557.5 c 128,-1,7
 763 483 763 483 742 378 c 2,8,-1
 667 0 l 1,9,-1
 504 0 l 1,10,-1
 582 389 l 2,11,12
 600 482 600 482 566 528 c 128,-1,13
 532 574 532 574 453 574 c 0,14,15
 377 574 377 574 329.5 532.5 c 128,-1,16
 282 491 282 491 263 396 c 2,17,-1
 184 0 l 1,18,-1
 25 0 l 1,0,-1
161 168 m 1,19,-1
 187 298 l 1,20,-1
 623 298 l 1,21,-1
 597 168 l 1,22,-1
 161 168 l 1,19,-1
EndSplineSet
EndChar

StartChar: uni023A.ss01
Encoding: 65579 -1 405
Width: 799
GlyphClass: 2
Flags: W
AnchorPoint: "Anchor-3" 485 700 basechar 0
AnchorPoint: "Anchor-2" 667 0 basechar 0
AnchorPoint: "Anchor-0" 345 0 basechar 0
LayerCount: 2
Fore
SplineSet
166 -70 m 1,0,-1
 719 770 l 1,1,-1
 819 770 l 1,2,-1
 267 -70 l 1,3,-1
 166 -70 l 1,0,-1
159 170 m 1,4,-1
 184 297 l 1,5,-1
 625 297 l 1,6,-1
 600 170 l 1,7,-1
 159 170 l 1,4,-1
25 0 m 1,8,-1
 104 400 l 2,9,10
 136 558 136 558 230 634.5 c 128,-1,11
 324 711 324 711 469 711 c 0,12,13
 571 711 571 711 639 671.5 c 128,-1,14
 707 632 707 632 735 557.5 c 128,-1,15
 763 483 763 483 742 379 c 2,16,-1
 666 0 l 1,17,-1
 508 0 l 1,18,-1
 586 389 l 2,19,20
 605 485 605 485 569 531.5 c 128,-1,21
 533 578 533 578 453 578 c 0,22,23
 376 578 376 578 327 535.5 c 128,-1,24
 278 493 278 493 259 397 c 2,25,-1
 180 0 l 1,26,-1
 25 0 l 1,8,-1
EndSplineSet
EndChar

StartChar: uni2C6F.ss01
Encoding: 65581 -1 407
Width: 799
GlyphClass: 2
Flags: W
AnchorPoint: "Anchor-3" 486 700 basechar 0
AnchorPoint: "Anchor-2" 165 700 basechar 0
AnchorPoint: "Anchor-0" 348 0 basechar 0
LayerCount: 2
Fore
SplineSet
807 700 m 1,0,-1
 728 301 l 2,1,2
 697 144 697 144 603.5 66 c 128,-1,3
 510 -12 510 -12 363 -12 c 0,4,5
 262 -12 262 -12 193.5 28 c 128,-1,6
 125 68 125 68 97 143 c 128,-1,7
 69 218 69 218 90 322 c 2,8,-1
 165 700 l 1,9,-1
 327 700 l 1,10,-1
 250 311 l 2,11,12
 231 218 231 218 266 172 c 128,-1,13
 301 126 301 126 379 126 c 0,14,15
 454 126 454 126 502 168 c 128,-1,16
 550 210 550 210 568 304 c 2,17,-1
 648 700 l 1,18,-1
 807 700 l 1,0,-1
670 532 m 1,19,-1
 645 402 l 1,20,-1
 209 402 l 1,21,-1
 235 532 l 1,22,-1
 670 532 l 1,19,-1
EndSplineSet
EndChar

StartChar: AE.ss01
Encoding: 65582 -1 408
Width: 1112
GlyphClass: 2
Flags: W
AnchorPoint: "Anchor-3" 636 700 basechar 0
AnchorPoint: "Anchor-0" 496 0 basechar 0
LayerCount: 2
Fore
SplineSet
463 0 m 1,0,-1
 603 700 l 1,1,-1
 1132 700 l 1,2,-1
 1106 571 l 1,3,-1
 737 571 l 1,4,-1
 706 417 l 1,5,-1
 1033 417 l 1,6,-1
 1008 294 l 1,7,-1
 682 294 l 1,8,-1
 648 129 l 1,9,-1
 1031 129 l 1,10,-1
 1005 0 l 1,11,-1
 463 0 l 1,0,-1
164 177 m 1,12,-1
 190 305 l 1,13,-1
 604 305 l 1,14,-1
 578 177 l 1,15,-1
 164 177 l 1,12,-1
26 0 m 1,16,-1
 104 391 l 2,17,18
 135 544 135 544 229.5 622 c 128,-1,19
 324 700 324 700 476 700 c 2,20,-1
 683 700 l 1,21,-1
 655 562 l 1,22,-1
 473 562 l 2,23,24
 389 562 389 562 335.5 514.5 c 128,-1,25
 282 467 282 467 264 375 c 2,26,-1
 189 0 l 1,27,-1
 26 0 l 1,16,-1
EndSplineSet
EndChar

StartChar: E.ss01
Encoding: 65589 -1 415
Width: 687
GlyphClass: 2
Flags: W
AnchorPoint: "Anchor-3" 459 700 basechar 0
AnchorPoint: "Anchor-2" 574 0 basechar 0
AnchorPoint: "Anchor-0" 319 0 basechar 0
LayerCount: 2
Fore
SplineSet
334 -12 m 0,0,1
 242 -12 242 -12 174.5 11 c 128,-1,2
 107 34 107 34 70 77 c 128,-1,3
 33 120 33 120 33 179 c 0,4,5
 33 240 33 240 66 285.5 c 128,-1,6
 99 331 99 331 156 356.5 c 128,-1,7
 213 382 213 382 285 382 c 1,8,-1
 282 340 l 1,9,10
 233 340 233 340 197.5 358.5 c 128,-1,11
 162 377 162 377 143.5 409 c 128,-1,12
 125 441 125 441 125 479 c 0,13,14
 125 550 125 550 167 602.5 c 128,-1,15
 209 655 209 655 286 683.5 c 128,-1,16
 363 712 363 712 466 712 c 0,17,18
 541 712 541 712 604 698.5 c 128,-1,19
 667 685 667 685 710 660 c 1,20,-1
 657 538 l 1,21,22
 610 562 610 562 557.5 571.5 c 128,-1,23
 505 581 505 581 455 581 c 0,24,25
 401 581 401 581 363.5 569 c 128,-1,26
 326 557 326 557 307 534.5 c 128,-1,27
 288 512 288 512 288 482 c 0,28,29
 288 451 288 451 312.5 434.5 c 128,-1,30
 337 418 337 418 384 418 c 2,31,-1
 571 418 l 1,32,-1
 545 290 l 1,33,-1
 335 290 l 2,34,35
 273 290 273 290 236 266.5 c 128,-1,36
 199 243 199 243 199 201 c 0,37,38
 199 161 199 161 236.5 140 c 128,-1,39
 274 119 274 119 357 119 c 0,40,41
 425 119 425 119 487 136 c 128,-1,42
 549 153 549 153 590 180 c 1,43,-1
 632 59 l 1,44,45
 579 27 579 27 499 7.5 c 128,-1,46
 419 -12 419 -12 334 -12 c 0,0,1
EndSplineSet
EndChar

StartChar: Eogonek.ss01
Encoding: 65612 -1 438
Width: 687
GlyphClass: 1
Flags: W
LayerCount: 2
Fore
SplineSet
458 -232 m 0,0,1
 403 -232 403 -232 368 -206 c 128,-1,2
 333 -180 333 -180 333 -133 c 0,3,4
 333 -84 333 -84 366.5 -45 c 128,-1,5
 400 -6 400 -6 459 23 c 1,6,-1
 468 1 l 1,7,8
 432 -5 432 -5 399.5 -8.5 c 128,-1,9
 367 -12 367 -12 334 -12 c 0,10,11
 242 -12 242 -12 174.5 11 c 128,-1,12
 107 34 107 34 70 77 c 128,-1,13
 33 120 33 120 33 179 c 0,14,15
 33 240 33 240 66 285.5 c 128,-1,16
 99 331 99 331 156 356.5 c 128,-1,17
 213 382 213 382 285 382 c 1,18,-1
 282 340 l 1,19,20
 233 340 233 340 197.5 358.5 c 128,-1,21
 162 377 162 377 143.5 409 c 128,-1,22
 125 441 125 441 125 479 c 0,23,24
 125 550 125 550 167 602.5 c 128,-1,25
 209 655 209 655 286 683.5 c 128,-1,26
 363 712 363 712 466 712 c 0,27,28
 541 712 541 712 604 698.5 c 128,-1,29
 667 685 667 685 710 660 c 1,30,-1
 657 538 l 1,31,32
 610 562 610 562 557.5 571.5 c 128,-1,33
 505 581 505 581 455 581 c 0,34,35
 401 581 401 581 363.5 569 c 128,-1,36
 326 557 326 557 307 534.5 c 128,-1,37
 288 512 288 512 288 482 c 0,38,39
 288 451 288 451 312.5 434.5 c 128,-1,40
 337 418 337 418 384 418 c 2,41,-1
 571 418 l 1,42,-1
 545 290 l 1,43,-1
 335 290 l 2,44,45
 273 290 273 290 236 266.5 c 128,-1,46
 199 243 199 243 199 201 c 0,47,48
 199 161 199 161 236.5 140 c 128,-1,49
 274 119 274 119 357 119 c 0,50,51
 425 119 425 119 487 136 c 128,-1,52
 549 153 549 153 590 180 c 1,53,-1
 632 59 l 1,54,55
 556 20 556 20 513 -11 c 128,-1,56
 470 -42 470 -42 453 -66 c 128,-1,57
 436 -90 436 -90 436 -111 c 0,58,59
 436 -131 436 -131 449 -142 c 128,-1,60
 462 -153 462 -153 484 -153 c 0,61,62
 501 -153 501 -153 517.5 -148.5 c 128,-1,63
 534 -144 534 -144 548 -138 c 1,64,-1
 559 -209 l 1,65,66
 539 -219 539 -219 514 -225.5 c 128,-1,67
 489 -232 489 -232 458 -232 c 0,0,1
EndSplineSet
EndChar

StartChar: uni0246.ss01
Encoding: 65613 -1 439
Width: 687
GlyphClass: 2
Flags: W
AnchorPoint: "Anchor-3" 466 700 basechar 0
AnchorPoint: "Anchor-2" 434 0 basechar 0
AnchorPoint: "Anchor-0" 329 0 basechar 0
LayerCount: 2
Fore
SplineSet
90 -70 m 1,0,-1
 643 770 l 1,1,-1
 743 770 l 1,2,-1
 191 -70 l 1,3,-1
 90 -70 l 1,0,-1
334 -12 m 0,4,5
 242 -12 242 -12 174.5 11 c 128,-1,6
 107 34 107 34 70 77 c 128,-1,7
 33 120 33 120 33 179 c 0,8,9
 33 240 33 240 66 285.5 c 128,-1,10
 99 331 99 331 156 356.5 c 128,-1,11
 213 382 213 382 285 382 c 1,12,-1
 282 340 l 1,13,14
 233 340 233 340 197.5 358.5 c 128,-1,15
 162 377 162 377 143.5 409 c 128,-1,16
 125 441 125 441 125 479 c 0,17,18
 125 550 125 550 167 602.5 c 128,-1,19
 209 655 209 655 286 683.5 c 128,-1,20
 363 712 363 712 466 712 c 0,21,22
 541 712 541 712 604 698.5 c 128,-1,23
 667 685 667 685 710 660 c 1,24,-1
 657 538 l 1,25,26
 610 562 610 562 557.5 571.5 c 128,-1,27
 505 581 505 581 455 581 c 0,28,29
 401 581 401 581 363.5 569 c 128,-1,30
 326 557 326 557 307 534.5 c 128,-1,31
 288 512 288 512 288 482 c 0,32,33
 288 451 288 451 312.5 434.5 c 128,-1,34
 337 418 337 418 384 418 c 2,35,-1
 571 418 l 1,36,-1
 545 290 l 1,37,-1
 335 290 l 2,38,39
 273 290 273 290 236 266.5 c 128,-1,40
 199 243 199 243 199 201 c 0,41,42
 199 161 199 161 236.5 140 c 128,-1,43
 274 119 274 119 357 119 c 0,44,45
 425 119 425 119 487 136 c 128,-1,46
 549 153 549 153 590 180 c 1,47,-1
 632 59 l 1,48,49
 579 27 579 27 499 7.5 c 128,-1,50
 419 -12 419 -12 334 -12 c 0,4,5
EndSplineSet
EndChar

StartChar: uni018E.ss01
Encoding: 65616 -1 442
Width: 674
GlyphClass: 2
Flags: W
AnchorPoint: "Anchor-3" 388 700 basechar 0
AnchorPoint: "Anchor-0" 270 0 basechar 0
LayerCount: 2
Fore
SplineSet
250 -11 m 0,0,1
 195 -11 195 -11 140.5 -2.5 c 128,-1,2
 86 6 86 6 40.5 22 c 128,-1,3
 -5 38 -5 38 -36 60 c 1,4,-1
 39 182 l 1,5,6
 63 164 63 164 101 149.5 c 128,-1,7
 139 135 139 135 183 126.5 c 128,-1,8
 227 118 227 118 270 118 c 0,9,10
 318 118 318 118 358 129 c 128,-1,11
 398 140 398 140 423 163.5 c 128,-1,12
 448 187 448 187 448 223 c 0,13,14
 448 262 448 262 418 280 c 128,-1,15
 388 298 388 298 337 298 c 2,16,-1
 156 298 l 1,17,-1
 181 420 l 1,18,-1
 351 420 l 2,19,20
 389 420 389 420 416 429.5 c 128,-1,21
 443 439 443 439 458.5 458 c 128,-1,22
 474 477 474 477 474 504 c 0,23,24
 474 533 474 533 458 549.5 c 128,-1,25
 442 566 442 566 414.5 572.5 c 128,-1,26
 387 579 387 579 354 579 c 0,27,28
 316 579 316 579 275.5 572.5 c 128,-1,29
 235 566 235 566 197.5 554.5 c 128,-1,30
 160 543 160 543 132 529 c 1,31,-1
 111 653 l 1,32,33
 148 671 148 671 192 684 c 128,-1,34
 236 697 236 697 282.5 703.5 c 128,-1,35
 329 710 329 710 373 710 c 0,36,37
 446 710 446 710 507 691 c 128,-1,38
 568 672 568 672 604.5 632.5 c 128,-1,39
 641 593 641 593 641 533 c 0,40,41
 641 476 641 476 610.5 432.5 c 128,-1,42
 580 389 580 389 530 365 c 128,-1,43
 480 341 480 341 420 341 c 1,44,-1
 432 376 l 1,45,46
 483 376 483 376 523.5 358.5 c 128,-1,47
 564 341 564 341 587 306.5 c 128,-1,48
 610 272 610 272 610 221 c 0,49,50
 610 162 610 162 580 118 c 128,-1,51
 550 74 550 74 498.5 45.5 c 128,-1,52
 447 17 447 17 383 3 c 128,-1,53
 319 -11 319 -11 250 -11 c 0,0,1
EndSplineSet
EndChar

StartChar: uni018F.ss01
Encoding: 65617 -1 443
Width: 837
GlyphClass: 2
Flags: W
AnchorPoint: "Anchor-3" 505 700 basechar 0
AnchorPoint: "Anchor-2" 455 0 basechar 0
AnchorPoint: "Anchor-0" 365 0 basechar 0
LayerCount: 2
Fore
SplineSet
394 -12 m 0,0,1
 304 -12 304 -12 232.5 18 c 128,-1,2
 161 48 161 48 115.5 105 c 128,-1,3
 70 162 70 162 58 244 c 1,4,-1
 662 471 l 1,5,-1
 679 359 l 1,6,-1
 158 162 l 1,7,-1
 223 274 l 1,8,9
 222 203 222 203 269.5 160 c 128,-1,10
 317 117 317 117 403 117 c 0,11,12
 459 117 459 117 504 139 c 128,-1,13
 549 161 549 161 580 200 c 128,-1,14
 611 239 611 239 627.5 290.5 c 128,-1,15
 644 342 644 342 644 399 c 0,16,17
 644 452 644 452 622.5 491.5 c 128,-1,18
 601 531 601 531 558 552.5 c 128,-1,19
 515 574 515 574 452 574 c 0,20,21
 393 574 393 574 338.5 554.5 c 128,-1,22
 284 535 284 535 240 497 c 1,23,-1
 163 609 l 1,24,25
 221 659 221 659 300 685.5 c 128,-1,26
 379 712 379 712 464 712 c 0,27,28
 572 712 572 712 648 673 c 128,-1,29
 724 634 724 634 765.5 565 c 128,-1,30
 807 496 807 496 807 404 c 0,31,32
 807 313 807 313 777 237 c 128,-1,33
 747 161 747 161 692 105.5 c 128,-1,34
 637 50 637 50 561 19 c 128,-1,35
 485 -12 485 -12 394 -12 c 0,0,1
EndSplineSet
EndChar

StartChar: F.ss01
Encoding: 65618 -1 444
Width: 626
GlyphClass: 1
Flags: W
LayerCount: 2
Fore
SplineSet
25 0 m 1,0,-1
 111 432 l 2,1,2
 138 569 138 569 227.5 640.5 c 128,-1,3
 317 712 317 712 475 712 c 0,4,5
 531 712 531 712 587 699 c 128,-1,6
 643 686 643 686 681 661 c 1,7,-1
 610 536 l 1,8,9
 582 556 582 556 544.5 565 c 128,-1,10
 507 574 507 574 468 574 c 0,11,12
 386 574 386 574 337 539.5 c 128,-1,13
 288 505 288 505 274 436 c 2,14,-1
 187 0 l 1,15,-1
 25 0 l 1,0,-1
176 254 m 1,16,-1
 202 385 l 1,17,-1
 551 385 l 1,18,-1
 524 254 l 1,19,-1
 176 254 l 1,16,-1
EndSplineSet
EndChar

StartChar: uni0191.ss01
Encoding: 65620 -1 446
Width: 667
GlyphClass: 1
Flags: W
LayerCount: 2
Fore
SplineSet
-122 -168 m 1,0,-1
 -76 -56 l 1,1,2
 -46 -69 -46 -69 -23 -72.5 c 128,-1,3
 0 -76 0 -76 17 -70.5 c 128,-1,4
 34 -65 34 -65 45 -50 c 128,-1,5
 56 -35 56 -35 61 -10 c 2,6,-1
 150 432 l 2,7,8
 178 569 178 569 267 640.5 c 128,-1,9
 356 712 356 712 514 712 c 0,10,11
 570 712 570 712 626 699 c 128,-1,12
 682 686 682 686 720 661 c 1,13,-1
 649 536 l 1,14,15
 621 556 621 556 583.5 565 c 128,-1,16
 546 574 546 574 507 574 c 0,17,18
 425 574 425 574 376 539.5 c 128,-1,19
 327 505 327 505 313 436 c 2,20,-1
 219 -31 l 2,21,22
 207 -90 207 -90 174.5 -130.5 c 128,-1,23
 142 -171 142 -171 95.5 -189.5 c 128,-1,24
 49 -208 49 -208 -6.5 -203.5 c 128,-1,25
 -62 -199 -62 -199 -122 -168 c 1,0,-1
214 254 m 1,26,-1
 241 385 l 1,27,-1
 589 385 l 1,28,-1
 563 254 l 1,29,-1
 214 254 l 1,26,-1
EndSplineSet
EndChar

StartChar: G.ss01
Encoding: 65621 -1 447
Width: 791
GlyphClass: 2
Flags: W
AnchorPoint: "Anchor-3" 512 700 basechar 0
AnchorPoint: "Anchor-0" 376 0 basechar 0
LayerCount: 2
Fore
SplineSet
374 -12 m 0,0,1
 285 -12 285 -12 214 25 c 128,-1,2
 143 62 143 62 102 129.5 c 128,-1,3
 61 197 61 197 61 290 c 0,4,5
 61 380 61 380 92.5 457 c 128,-1,6
 124 534 124 534 182 591 c 128,-1,7
 240 648 240 648 321 680 c 128,-1,8
 402 712 402 712 501 712 c 0,9,10
 599 712 599 712 673.5 680.5 c 128,-1,11
 748 649 748 649 793 590 c 1,12,-1
 677 496 l 1,13,14
 642 538 642 538 597.5 556 c 128,-1,15
 553 574 553 574 493 574 c 0,16,17
 432 574 432 574 382.5 553.5 c 128,-1,18
 333 533 333 533 298 496 c 128,-1,19
 263 459 263 459 244 409.5 c 128,-1,20
 225 360 225 360 225 302 c 0,21,22
 225 249 225 249 246 208.5 c 128,-1,23
 267 168 267 168 308 146 c 128,-1,24
 349 124 349 124 408 124 c 0,25,26
 457 124 457 124 501.5 144 c 128,-1,27
 546 164 546 164 580 200 c 1,28,-1
 636 133 l 1,29,30
 601 80 601 80 561 48 c 128,-1,31
 521 16 521 16 475 2 c 128,-1,32
 429 -12 429 -12 374 -12 c 0,0,1
539 0 m 1,33,-1
 556 86 l 1,34,-1
 534 103 l 1,35,-1
 585 361 l 1,36,-1
 733 361 l 1,37,-1
 659 0 l 1,38,-1
 539 0 l 1,33,-1
EndSplineSet
EndChar

StartChar: uni0193.ss01
Encoding: 65628 -1 454
Width: 793
GlyphClass: 2
Flags: W
AnchorPoint: "Anchor-3" 528 700 basechar 0
AnchorPoint: "Anchor-0" 375 0 basechar 0
LayerCount: 2
Fore
SplineSet
374 -12 m 0,0,1
 285 -12 285 -12 214 25 c 128,-1,2
 143 62 143 62 102 129.5 c 128,-1,3
 61 197 61 197 61 290 c 0,4,5
 61 380 61 380 92.5 457 c 128,-1,6
 124 534 124 534 182 591 c 128,-1,7
 240 648 240 648 321 680 c 128,-1,8
 402 712 402 712 501 712 c 0,9,10
 599 712 599 712 673.5 680.5 c 128,-1,11
 748 649 748 649 792 589 c 1,12,-1
 677 496 l 1,13,14
 642 538 642 538 597.5 556 c 128,-1,15
 553 574 553 574 493 574 c 0,16,17
 432 574 432 574 382.5 553.5 c 128,-1,18
 333 533 333 533 298 496 c 128,-1,19
 263 459 263 459 244 409.5 c 128,-1,20
 225 360 225 360 225 302 c 0,21,22
 225 249 225 249 246 208.5 c 128,-1,23
 267 168 267 168 308 146 c 128,-1,24
 349 124 349 124 408 124 c 0,25,26
 457 124 457 124 501.5 144 c 128,-1,27
 546 164 546 164 580 200 c 1,28,-1
 636 133 l 1,29,30
 601 80 601 80 561 48 c 128,-1,31
 521 16 521 16 475 2 c 128,-1,32
 429 -12 429 -12 374 -12 c 0,0,1
539 0 m 1,33,-1
 556 86 l 1,34,-1
 534 103 l 1,35,-1
 585 361 l 1,36,-1
 733 361 l 1,37,-1
 659 0 l 1,38,-1
 539 0 l 1,33,-1
658 589 m 1,39,-1
 674 677 l 2,40,41
 683 725 683 725 709 761 c 128,-1,42
 735 797 735 797 773 817.5 c 128,-1,43
 811 838 811 838 856.5 840.5 c 128,-1,44
 902 843 902 843 949 827 c 1,45,-1
 910 715 l 1,46,47
 884 722 884 722 861.5 716.5 c 128,-1,48
 839 711 839 711 824 692.5 c 128,-1,49
 809 674 809 674 803 645 c 2,50,-1
 792 589 l 1,51,-1
 658 589 l 1,39,-1
EndSplineSet
EndChar

StartChar: uni01E4.ss01
Encoding: 65630 -1 456
Width: 836
GlyphClass: 2
Flags: W
AnchorPoint: "Anchor-3" 512 700 basechar 0
AnchorPoint: "Anchor-0" 377 0 basechar 0
LayerCount: 2
Fore
SplineSet
374 -12 m 0,0,1
 285 -12 285 -12 214 25 c 128,-1,2
 143 62 143 62 102 129.5 c 128,-1,3
 61 197 61 197 61 290 c 0,4,5
 61 380 61 380 92.5 457 c 128,-1,6
 124 534 124 534 182 591 c 128,-1,7
 240 648 240 648 321 680 c 128,-1,8
 402 712 402 712 501 712 c 0,9,10
 599 712 599 712 673.5 680.5 c 128,-1,11
 748 649 748 649 793 590 c 1,12,-1
 677 496 l 1,13,14
 642 538 642 538 597.5 556 c 128,-1,15
 553 574 553 574 493 574 c 0,16,17
 432 574 432 574 382.5 553.5 c 128,-1,18
 333 533 333 533 298 496 c 128,-1,19
 263 459 263 459 244 409.5 c 128,-1,20
 225 360 225 360 225 302 c 0,21,22
 225 249 225 249 246 208.5 c 128,-1,23
 267 168 267 168 308 146 c 128,-1,24
 349 124 349 124 408 124 c 0,25,26
 457 124 457 124 501.5 144 c 128,-1,27
 546 164 546 164 580 200 c 1,28,-1
 636 133 l 1,29,30
 601 80 601 80 561 48 c 128,-1,31
 521 16 521 16 475 2 c 128,-1,32
 429 -12 429 -12 374 -12 c 0,0,1
539 0 m 1,33,-1
 556 86 l 1,34,-1
 534 103 l 1,35,-1
 585 361 l 1,36,-1
 733 361 l 1,37,-1
 659 0 l 1,38,-1
 539 0 l 1,33,-1
422 208 m 1,39,-1
 443 317 l 1,40,-1
 813 317 l 1,41,-1
 792 208 l 1,42,-1
 422 208 l 1,39,-1
EndSplineSet
EndChar

StartChar: I.ss01
Encoding: 65631 -1 457
Width: 503
GlyphClass: 2
Flags: W
AnchorPoint: "Anchor-3" 338 700 basechar 0
AnchorPoint: "Anchor-2" 279 0 basechar 0
AnchorPoint: "Anchor-0" 198 0 basechar 0
LayerCount: 2
Fore
SplineSet
120 17 m 1,0,-1
 253 684 l 1,1,-1
 416 684 l 1,2,-1
 283 17 l 1,3,-1
 120 17 l 1,0,-1
-5 0 m 1,4,-1
 20 129 l 1,5,-1
 426 129 l 1,6,-1
 401 0 l 1,7,-1
 -5 0 l 1,4,-1
110 571 m 1,8,-1
 135 700 l 1,9,-1
 541 700 l 1,10,-1
 516 571 l 1,11,-1
 110 571 l 1,8,-1
EndSplineSet
EndChar

StartChar: IJ.ss01
Encoding: 65632 -1 458
Width: 736
GlyphClass: 2
Flags: W
AnchorPoint: "Anchor-3" 263 700 basechar 0
LayerCount: 2
Fore
SplineSet
287 -109 m 0,0,1
 198 -109 198 -109 129.5 -88 c 128,-1,2
 61 -67 61 -67 13 -32 c 1,3,-1
 92 91 l 1,4,5
 137 59 137 59 189 43 c 128,-1,6
 241 27 241 27 296 27 c 0,7,8
 374 27 374 27 418.5 69 c 128,-1,9
 463 111 463 111 483 209 c 2,10,-1
 580 700 l 1,11,-1
 742 700 l 1,12,-1
 644 203 l 2,13,14
 612 44 612 44 522.5 -32.5 c 128,-1,15
 433 -109 433 -109 287 -109 c 0,0,1
77 222 m 1,16,-1
 173 700 l 1,17,-1
 335 700 l 1,18,-1
 240 222 l 1,19,-1
 77 222 l 1,16,-1
EndSplineSet
EndChar

StartChar: uni0197.ss01
Encoding: 65646 -1 472
Width: 503
GlyphClass: 2
Flags: W
AnchorPoint: "Anchor-3" 338 700 basechar 0
AnchorPoint: "Anchor-2" 279 0 basechar 0
AnchorPoint: "Anchor-0" 198 0 basechar 0
LayerCount: 2
Fore
SplineSet
120 17 m 1,0,-1
 253 684 l 1,1,-1
 416 684 l 1,2,-1
 283 17 l 1,3,-1
 120 17 l 1,0,-1
-5 0 m 1,4,-1
 20 129 l 1,5,-1
 426 129 l 1,6,-1
 401 0 l 1,7,-1
 -5 0 l 1,4,-1
110 571 m 1,8,-1
 135 700 l 1,9,-1
 541 700 l 1,10,-1
 516 571 l 1,11,-1
 110 571 l 1,8,-1
89 303 m 1,12,-1
 110 412 l 1,13,-1
 450 412 l 1,14,-1
 429 303 l 1,15,-1
 89 303 l 1,12,-1
EndSplineSet
EndChar

StartChar: J.ss01
Encoding: 65649 -1 475
Width: 553
GlyphClass: 2
Flags: W
AnchorPoint: "Anchor-3" 357 700 basechar 0
LayerCount: 2
Fore
SplineSet
169 -112 m 0,0,1
 89 -112 89 -112 31 -85 c 128,-1,2
 -27 -58 -27 -58 -59 -7 c 1,3,-1
 48 95 l 1,4,5
 69 60 69 60 100 40.5 c 128,-1,6
 131 21 131 21 171 21 c 0,7,8
 217 21 217 21 246.5 47 c 128,-1,9
 276 73 276 73 287 130 c 2,10,-1
 374 570 l 1,11,-1
 128 570 l 1,12,-1
 155 700 l 1,13,-1
 561 700 l 1,14,-1
 448 138 l 2,15,16
 421 1 421 1 352 -55.5 c 128,-1,17
 283 -112 283 -112 169 -112 c 0,0,1
EndSplineSet
EndChar

StartChar: uniA7B2.ss01
Encoding: 65651 -1 477
Width: 586
GlyphClass: 2
Flags: W
AnchorPoint: "Anchor-3" 365 700 basechar 0
LayerCount: 2
Fore
SplineSet
190 -110 m 0,0,1
 124 -110 124 -110 77 -88 c 128,-1,2
 30 -66 30 -66 8 -26 c 128,-1,3
 -14 14 -14 14 -6 65 c 0,4,5
 6 132 6 132 62 169 c 128,-1,6
 118 206 118 206 209 206 c 2,7,-1
 545 206 l 1,8,-1
 524 100 l 1,9,-1
 210 100 l 2,10,11
 174 100 174 100 153.5 89 c 128,-1,12
 133 78 133 78 128 57 c 0,13,14
 123 33 123 33 140 16.5 c 128,-1,15
 157 0 157 0 188 0 c 0,16,17
 213 0 213 0 232.5 11 c 128,-1,18
 252 22 252 22 265.5 43.5 c 128,-1,19
 279 65 279 65 286 96 c 2,20,-1
 381 570 l 1,21,-1
 135 570 l 1,22,-1
 161 700 l 1,23,-1
 568 700 l 1,24,-1
 446 91 l 2,25,26
 434 29 434 29 399 -16 c 128,-1,27
 364 -61 364 -61 311 -85.5 c 128,-1,28
 258 -110 258 -110 190 -110 c 0,0,1
EndSplineSet
EndChar

StartChar: uni0248.ss01
Encoding: 65652 -1 478
Width: 553
GlyphClass: 2
Flags: W
AnchorPoint: "Anchor-3" 357 700 basechar 0
LayerCount: 2
Fore
SplineSet
169 -112 m 0,0,1
 89 -112 89 -112 31 -85 c 128,-1,2
 -27 -58 -27 -58 -59 -7 c 1,3,-1
 48 95 l 1,4,5
 69 60 69 60 100 40.5 c 128,-1,6
 131 21 131 21 171 21 c 0,7,8
 217 21 217 21 246 47 c 128,-1,9
 275 73 275 73 287 130 c 2,10,-1
 374 570 l 1,11,-1
 128 570 l 1,12,-1
 155 700 l 1,13,-1
 561 700 l 1,14,-1
 448 138 l 2,15,16
 421 1 421 1 352 -55.5 c 128,-1,17
 283 -112 283 -112 169 -112 c 0,0,1
189 303 m 1,18,-1
 210 412 l 1,19,-1
 591 412 l 1,20,-1
 570 303 l 1,21,-1
 189 303 l 1,18,-1
EndSplineSet
EndChar

StartChar: M.ss01
Encoding: 65654 -1 480
Width: 1222
GlyphClass: 2
Flags: W
AnchorPoint: "Anchor-3" 726 700 basechar 0
AnchorPoint: "Anchor-0" 564 0 basechar 0
LayerCount: 2
Fore
SplineSet
39 0 m 1,0,-1
 179 700 l 1,1,-1
 336 700 l 1,2,-1
 305 548 l 1,3,-1
 286 573 l 1,4,5
 325 639 325 639 386.5 675.5 c 128,-1,6
 448 712 448 712 534 712 c 0,7,8
 623 712 623 712 677 672 c 128,-1,9
 731 632 731 632 739 561 c 1,10,-1
 691 565 l 1,11,12
 736 636 736 636 804 674 c 128,-1,13
 872 712 872 712 961 712 c 0,14,15
 1041 712 1041 712 1095.5 680 c 128,-1,16
 1150 648 1150 648 1172 585 c 128,-1,17
 1194 522 1194 522 1176 430 c 2,18,-1
 1090 0 l 1,19,-1
 928 0 l 1,20,-1
 1012 425 l 2,21,22
 1028 502 1028 502 997 538 c 128,-1,23
 966 574 966 574 903 574 c 0,24,25
 839 574 839 574 790.5 535.5 c 128,-1,26
 742 497 742 497 725 415 c 2,27,-1
 643 0 l 1,28,-1
 480 0 l 1,29,-1
 565 425 l 2,30,31
 580 502 580 502 551.5 538 c 128,-1,32
 523 574 523 574 461 574 c 0,33,34
 420 574 420 574 384 557.5 c 128,-1,35
 348 541 348 541 322 506 c 128,-1,36
 296 471 296 471 284 415 c 2,37,-1
 202 0 l 1,38,-1
 39 0 l 1,0,-1
EndSplineSet
EndChar

StartChar: N.ss01
Encoding: 65656 -1 482
Width: 808
GlyphClass: 2
Flags: W
AnchorPoint: "Anchor-3" 497 700 basechar 0
AnchorPoint: "Anchor-0" 357 0 basechar 0
LayerCount: 2
Fore
SplineSet
531 712 m 0,0,1
 615 712 615 712 672 673.5 c 128,-1,2
 729 635 729 635 751.5 564 c 128,-1,3
 774 493 774 493 754 392 c 2,4,-1
 676 0 l 1,5,-1
 513 0 l 1,6,-1
 592 396 l 2,7,8
 611 485 611 485 579 529.5 c 128,-1,9
 547 574 547 574 473 574 c 0,10,11
 404 574 404 574 352 533 c 128,-1,12
 300 492 300 492 281 399 c 2,13,-1
 202 0 l 1,14,-1
 39 0 l 1,15,-1
 179 700 l 1,16,-1
 336 700 l 1,17,-1
 303 532 l 1,18,-1
 285 581 l 1,19,20
 327 645 327 645 390 678.5 c 128,-1,21
 453 712 453 712 531 712 c 0,0,1
EndSplineSet
EndChar

StartChar: Eng.ss01
Encoding: 65668 -1 494
Width: 808
GlyphClass: 2
Flags: W
AnchorPoint: "Anchor-3" 491 700 basechar 0
AnchorPoint: "Anchor-0" 312 -194 basechar 0
LayerCount: 2
Fore
SplineSet
531 712 m 0,0,1
 615 712 615 712 672 673.5 c 128,-1,2
 729 635 729 635 751.5 564 c 128,-1,3
 774 493 774 493 754 392 c 2,4,-1
 689 67 l 2,5,6
 668 -38 668 -38 628.5 -96.5 c 128,-1,7
 589 -155 589 -155 532.5 -178.5 c 128,-1,8
 476 -202 476 -202 402 -202 c 0,9,10
 344 -202 344 -202 294 -184.5 c 128,-1,11
 244 -167 244 -167 213 -132 c 1,12,-1
 303 -22 l 1,13,14
 320 -43 320 -43 347 -56 c 128,-1,15
 374 -69 374 -69 409 -69 c 0,16,17
 453 -69 453 -69 481.5 -42.5 c 128,-1,18
 510 -16 510 -16 523 47 c 2,19,-1
 592 396 l 2,20,21
 611 485 611 485 579 529.5 c 128,-1,22
 547 574 547 574 473 574 c 0,23,24
 404 574 404 574 352 533 c 128,-1,25
 300 492 300 492 281 399 c 2,26,-1
 202 0 l 1,27,-1
 39 0 l 1,28,-1
 179 700 l 1,29,-1
 336 700 l 1,30,-1
 303 532 l 1,31,-1
 285 581 l 1,32,33
 327 645 327 645 390 678.5 c 128,-1,34
 453 712 453 712 531 712 c 0,0,1
EndSplineSet
EndChar

StartChar: Q.ss01
Encoding: 65669 -1 495
Width: 864
GlyphClass: 2
Flags: W
AnchorPoint: "Anchor-3" 519 700 basechar 0
LayerCount: 2
Fore
SplineSet
402 -12 m 0,0,1
 296 -12 296 -12 219.5 26.5 c 128,-1,2
 143 65 143 65 102 133.5 c 128,-1,3
 61 202 61 202 61 292 c 256,4,5
 61 382 61 382 92 458.5 c 128,-1,6
 123 535 123 535 180.5 591.5 c 128,-1,7
 238 648 238 648 317.5 680 c 128,-1,8
 397 712 397 712 494 712 c 0,9,10
 600 712 600 712 676.5 673.5 c 128,-1,11
 753 635 753 635 794 566.5 c 128,-1,12
 835 498 835 498 835 408 c 256,13,14
 835 318 835 318 804 241.5 c 128,-1,15
 773 165 773 165 715.5 108.5 c 128,-1,16
 658 52 658 52 578.5 20 c 128,-1,17
 499 -12 499 -12 402 -12 c 0,0,1
270 -135 m 1,18,-1
 300 16 l 1,19,-1
 315 67 l 1,20,-1
 358 281 l 1,21,-1
 508 281 l 1,22,-1
 465 67 l 1,23,-1
 463 18 l 1,24,-1
 432 -135 l 1,25,-1
 270 -135 l 1,18,-1
416 126 m 0,26,27
 475 126 475 126 522.5 147.5 c 128,-1,28
 570 169 570 169 603 207 c 128,-1,29
 636 245 636 245 653.5 294.5 c 128,-1,30
 671 344 671 344 671 399 c 0,31,32
 671 451 671 451 649 490.5 c 128,-1,33
 627 530 627 530 584.5 552 c 128,-1,34
 542 574 542 574 480 574 c 0,35,36
 421 574 421 574 374 552.5 c 128,-1,37
 327 531 327 531 293.5 493 c 128,-1,38
 260 455 260 455 242.5 405.5 c 128,-1,39
 225 356 225 356 225 301 c 0,40,41
 225 249 225 249 247.5 209.5 c 128,-1,42
 270 170 270 170 312.5 148 c 128,-1,43
 355 126 355 126 416 126 c 0,26,27
EndSplineSet
EndChar

StartChar: T.ss01
Encoding: 65670 -1 496
Width: 658
GlyphClass: 2
Flags: W
AnchorPoint: "Anchor-3" 418 700 basechar 0
AnchorPoint: "Anchor-1" 345 341 basechar 0
AnchorPoint: "Anchor-0" 274 0 basechar 0
LayerCount: 2
Fore
SplineSet
107 507 m 1,0,-1
 65 629 l 1,1,2
 110 656 110 656 165 674.5 c 128,-1,3
 220 693 220 693 280 702.5 c 128,-1,4
 340 712 340 712 399 712 c 0,5,6
 494 712 494 712 577.5 690 c 128,-1,7
 661 668 661 668 725 625 c 1,8,-1
 654 504 l 1,9,10
 594 540 594 540 526 558 c 128,-1,11
 458 576 458 576 375 576 c 0,12,13
 302 576 302 576 233 558.5 c 128,-1,14
 164 541 164 541 107 507 c 1,0,-1
193 0 m 1,15,-1
 320 632 l 1,16,-1
 482 632 l 1,17,-1
 356 0 l 1,18,-1
 193 0 l 1,15,-1
EndSplineSet
EndChar

StartChar: Tbar.ss01
Encoding: 65671 -1 497
Width: 658
GlyphClass: 2
Flags: W
AnchorPoint: "Anchor-3" 418 700 basechar 0
AnchorPoint: "Anchor-1" 345 351 basechar 0
AnchorPoint: "Anchor-0" 274 0 basechar 0
LayerCount: 2
Fore
SplineSet
107 507 m 1,0,-1
 65 629 l 1,1,2
 110 656 110 656 165 674.5 c 128,-1,3
 220 693 220 693 280 702.5 c 128,-1,4
 340 712 340 712 399 712 c 0,5,6
 494 712 494 712 577.5 690 c 128,-1,7
 661 668 661 668 725 625 c 1,8,-1
 654 504 l 1,9,10
 594 540 594 540 526 558 c 128,-1,11
 458 576 458 576 375 576 c 0,12,13
 302 576 302 576 233 558.5 c 128,-1,14
 164 541 164 541 107 507 c 1,0,-1
193 0 m 1,15,-1
 320 632 l 1,16,-1
 482 632 l 1,17,-1
 356 0 l 1,18,-1
 193 0 l 1,15,-1
119 287 m 1,19,-1
 140 395 l 1,20,-1
 567 395 l 1,21,-1
 546 287 l 1,22,-1
 119 287 l 1,19,-1
EndSplineSet
EndChar

StartChar: uni023E.ss01
Encoding: 65676 -1 502
Width: 658
GlyphClass: 2
Flags: W
AnchorPoint: "Anchor-3" 420 700 basechar 0
AnchorPoint: "Anchor-1" 342 339 basechar 0
AnchorPoint: "Anchor-0" 278 0 basechar 0
LayerCount: 2
Fore
SplineSet
60 -70 m 1,0,-1
 613 770 l 1,1,-1
 711 770 l 1,2,-1
 159 -70 l 1,3,-1
 60 -70 l 1,0,-1
199 0 m 1,4,-1
 327 635 l 1,5,-1
 481 635 l 1,6,-1
 354 0 l 1,7,-1
 199 0 l 1,4,-1
654 504 m 1,8,9
 594 540 594 540 526 558 c 128,-1,10
 458 576 458 576 375 576 c 0,11,12
 302 576 302 576 233 558.5 c 128,-1,13
 164 541 164 541 107 507 c 1,14,-1
 65 629 l 1,15,16
 110 656 110 656 165 674.5 c 128,-1,17
 220 693 220 693 280 702.5 c 128,-1,18
 340 712 340 712 399 712 c 0,19,20
 494 712 494 712 577.5 690 c 128,-1,21
 661 668 661 668 725 625 c 1,22,-1
 654 504 l 1,8,9
EndSplineSet
Substitution2: "'rvrn' Required Variation Alternates lookup 1 subtable" uni023E.ss01.BRACKET.varAlt01
Substitution2: "'rvrn' Required Variation Alternates lookup 0 subtable" uni023E.ss01.BRACKET.varAlt01
EndChar

StartChar: uni01AC.ss01
Encoding: 65679 -1 505
Width: 691
GlyphClass: 2
Flags: W
AnchorPoint: "Anchor-3" 450 700 basechar 0
AnchorPoint: "Anchor-1" 377 329 basechar 0
AnchorPoint: "Anchor-0" 311 0 basechar 0
LayerCount: 2
Fore
SplineSet
69 358 m 1,0,1
 32 435 32 435 39.5 499.5 c 128,-1,2
 47 564 47 564 94.5 611.5 c 128,-1,3
 142 659 142 659 224.5 685.5 c 128,-1,4
 307 712 307 712 420 712 c 0,5,6
 519 712 519 712 607 688 c 128,-1,7
 695 664 695 664 758 620 c 1,8,-1
 688 509 l 1,9,10
 642 535 642 535 598.5 551 c 128,-1,11
 555 567 555 567 507.5 574 c 128,-1,12
 460 581 460 581 403 581 c 0,13,14
 299 581 299 581 240 562 c 128,-1,15
 181 543 181 543 166.5 503 c 128,-1,16
 152 463 152 463 180 399 c 1,17,-1
 69 358 l 1,0,1
230 0 m 1,18,-1
 357 634 l 1,19,-1
 519 634 l 1,20,-1
 393 0 l 1,21,-1
 230 0 l 1,18,-1
EndSplineSet
EndChar

StartChar: uni01AE.ss01
Encoding: 65681 -1 507
Width: 673
GlyphClass: 2
Flags: W
AnchorPoint: "Anchor-3" 423 700 basechar 0
AnchorPoint: "Anchor-0" 283 0 basechar 0
LayerCount: 2
Fore
SplineSet
479 -184 m 1,0,1
 434 -199 434 -199 389 -201.5 c 128,-1,2
 344 -204 344 -204 304.5 -194 c 128,-1,3
 265 -184 265 -184 236.5 -160.5 c 128,-1,4
 208 -137 208 -137 195.5 -98.5 c 128,-1,5
 183 -60 183 -60 194 -9 c 2,6,-1
 322 632 l 1,7,-1
 485 632 l 1,8,-1
 356 -5 l 2,9,10
 351 -29 351 -29 357.5 -45 c 128,-1,11
 364 -61 364 -61 378.5 -69 c 128,-1,12
 393 -77 393 -77 416 -76.5 c 128,-1,13
 439 -76 439 -76 466 -68 c 1,14,-1
 479 -184 l 1,0,1
657 504 m 1,15,16
 596 540 596 540 528 558 c 128,-1,17
 460 576 460 576 377 576 c 0,18,19
 304 576 304 576 235 558.5 c 128,-1,20
 166 541 166 541 109 507 c 1,21,-1
 67 629 l 1,22,23
 112 656 112 656 167 674.5 c 128,-1,24
 222 693 222 693 282.5 702.5 c 128,-1,25
 343 712 343 712 402 712 c 0,26,27
 496 712 496 712 579.5 690 c 128,-1,28
 663 668 663 668 728 625 c 1,29,-1
 657 504 l 1,15,16
EndSplineSet
EndChar

StartChar: uniA7B1.ss01
Encoding: 65682 -1 508
Width: 658
GlyphClass: 1
Flags: W
LayerCount: 2
Fore
SplineSet
581 205 m 1,0,-1
 622 83 l 1,1,2
 578 55 578 55 522.5 37 c 128,-1,3
 467 19 467 19 407 9.5 c 128,-1,4
 347 0 347 0 288 0 c 0,5,6
 194 0 194 0 110.5 22.5 c 128,-1,7
 27 45 27 45 -38 86 c 1,8,-1
 33 208 l 1,9,10
 94 172 94 172 161.5 154 c 128,-1,11
 229 136 229 136 313 136 c 0,12,13
 386 136 386 136 455 153.5 c 128,-1,14
 524 171 524 171 581 205 c 1,0,-1
494 712 m 1,15,-1
 367 80 l 1,16,-1
 205 80 l 1,17,-1
 331 712 l 1,18,-1
 494 712 l 1,15,-1
EndSplineSet
EndChar

StartChar: U.ss01
Encoding: 65683 -1 509
Width: 805
GlyphClass: 2
Flags: W
AnchorPoint: "Anchor-4" 728 700 basechar 0
AnchorPoint: "Anchor-3" 482 700 basechar 0
AnchorPoint: "Anchor-2" 659 0 basechar 0
AnchorPoint: "Anchor-0" 342 0 basechar 0
LayerCount: 2
Fore
SplineSet
310 -12 m 0,0,1
 226 -12 226 -12 168.5 26 c 128,-1,2
 111 64 111 64 88.5 135.5 c 128,-1,3
 66 207 66 207 86 308 c 2,4,-1
 165 700 l 1,5,-1
 327 700 l 1,6,-1
 248 304 l 2,7,8
 230 215 230 215 261 170.5 c 128,-1,9
 292 126 292 126 366 126 c 0,10,11
 435 126 435 126 486.5 167 c 128,-1,12
 538 208 538 208 556 301 c 2,13,-1
 636 700 l 1,14,-1
 799 700 l 1,15,-1
 659 0 l 1,16,-1
 501 0 l 1,17,-1
 535 168 l 1,18,-1
 552 119 l 1,19,20
 511 56 511 56 449 22 c 128,-1,21
 387 -12 387 -12 310 -12 c 0,0,1
EndSplineSet
EndChar

StartChar: uni0244.ss01
Encoding: 65685 -1 511
Width: 840
GlyphClass: 2
Flags: W
AnchorPoint: "Anchor-4" 746 700 basechar 0
AnchorPoint: "Anchor-3" 500 700 basechar 0
AnchorPoint: "Anchor-2" 677 0 basechar 0
AnchorPoint: "Anchor-0" 360 0 basechar 0
LayerCount: 2
Fore
SplineSet
328 -12 m 0,0,1
 244 -12 244 -12 186.5 26 c 128,-1,2
 129 64 129 64 106.5 135.5 c 128,-1,3
 84 207 84 207 104 308 c 2,4,-1
 183 700 l 1,5,-1
 345 700 l 1,6,-1
 266 304 l 2,7,8
 248 215 248 215 279 170.5 c 128,-1,9
 310 126 310 126 384 126 c 0,10,11
 453 126 453 126 504.5 167 c 128,-1,12
 556 208 556 208 575 301 c 2,13,-1
 654 700 l 1,14,-1
 817 700 l 1,15,-1
 677 0 l 1,16,-1
 520 0 l 1,17,-1
 553 168 l 1,18,-1
 570 119 l 1,19,20
 529 56 529 56 467 22 c 128,-1,21
 405 -12 405 -12 328 -12 c 0,0,1
14 303 m 1,22,-1
 35 412 l 1,23,-1
 848 412 l 1,24,-1
 828 303 l 1,25,-1
 14 303 l 1,22,-1
EndSplineSet
EndChar

StartChar: W.ss01
Encoding: 65715 -1 541
Width: 1211
GlyphClass: 2
Flags: W
AnchorPoint: "Anchor-3" 694 700 basechar 0
AnchorPoint: "Anchor-0" 554 0 basechar 0
LayerCount: 2
Fore
SplineSet
343 -12 m 0,0,1
 250 -12 250 -12 184.5 23.5 c 128,-1,2
 119 59 119 59 90.5 127 c 128,-1,3
 62 195 62 195 83 291 c 2,4,-1
 170 700 l 1,5,-1
 330 700 l 1,6,-1
 239 269 l 2,7,8
 224 194 224 194 256.5 160 c 128,-1,9
 289 126 289 126 355 126 c 0,10,11
 422 126 422 126 465.5 164.5 c 128,-1,12
 509 203 509 203 527 286 c 2,13,-1
 615 700 l 1,14,-1
 774 700 l 1,15,-1
 683 275 l 2,16,17
 668 200 668 200 697.5 163 c 128,-1,18
 727 126 727 126 794 126 c 0,19,20
 869 126 869 126 911 164 c 128,-1,21
 953 202 953 202 970 283 c 2,22,-1
 1058 700 l 1,23,-1
 1218 700 l 1,24,-1
 1131 286 l 2,25,26
 1098 130 1098 130 1012 59 c 128,-1,27
 926 -12 926 -12 771 -12 c 0,28,29
 689 -12 689 -12 631.5 18.5 c 128,-1,30
 574 49 574 49 548 107 c 1,31,-1
 605 107 l 1,32,33
 560 48 560 48 492 18 c 128,-1,34
 424 -12 424 -12 343 -12 c 0,0,1
EndSplineSet
EndChar

StartChar: uni2C72.ss01
Encoding: 65722 -1 548
Width: 1213
GlyphClass: 2
Flags: W
AnchorPoint: "Anchor-3" 695 700 basechar 0
AnchorPoint: "Anchor-0" 555 0 basechar 0
LayerCount: 2
Fore
SplineSet
343 -12 m 0,0,1
 272 -12 272 -12 217 9 c 128,-1,2
 162 30 162 30 126.5 69.5 c 128,-1,3
 91 109 91 109 79.5 164.5 c 128,-1,4
 68 220 68 220 83 291 c 2,5,-1
 170 700 l 1,6,-1
 330 700 l 1,7,-1
 239 269 l 2,8,9
 224 197 224 197 255 161.5 c 128,-1,10
 286 126 286 126 355 126 c 0,11,12
 425 126 425 126 467.5 166 c 128,-1,13
 510 206 510 206 527 286 c 2,14,-1
 615 700 l 1,15,-1
 774 700 l 1,16,-1
 683 275 l 2,17,18
 668 203 668 203 696.5 164.5 c 128,-1,19
 725 126 725 126 794 126 c 0,20,21
 870 126 870 126 911.5 164.5 c 128,-1,22
 953 203 953 203 970 283 c 2,23,-1
 1033 582 l 2,24,25
 1046 636 1046 636 1071.5 672.5 c 128,-1,26
 1097 709 1097 709 1131.5 729 c 128,-1,27
 1166 749 1166 749 1203.5 753.5 c 128,-1,28
 1241 758 1241 758 1278 748.5 c 128,-1,29
 1315 739 1315 739 1345 717 c 1,30,-1
 1282 603 l 1,31,32
 1263 615 1263 615 1243 613 c 128,-1,33
 1223 611 1223 611 1208.5 597.5 c 128,-1,34
 1194 584 1194 584 1188 560 c 2,35,-1
 1131 286 l 2,36,37
 1098 129 1098 129 1012 58.5 c 128,-1,38
 926 -12 926 -12 771 -12 c 0,39,40
 688 -12 688 -12 630.5 19 c 128,-1,41
 573 50 573 50 548 107 c 1,42,-1
 605 107 l 1,43,44
 562 50 562 50 494.5 19 c 128,-1,45
 427 -12 427 -12 343 -12 c 0,0,1
EndSplineSet
EndChar

StartChar: Y.ss01
Encoding: 65723 -1 549
Width: 788
GlyphClass: 2
Flags: W
AnchorPoint: "Anchor-3" 478 700 basechar 0
AnchorPoint: "Anchor-2" 388 -100 basechar 0
AnchorPoint: "Anchor-0" 639 0 basechar 0
LayerCount: 2
Fore
SplineSet
634 700 m 1,0,-1
 796 700 l 1,1,-1
 697 204 l 2,2,3
 665 45 665 45 570 -31.5 c 128,-1,4
 475 -108 475 -108 325 -108 c 0,5,6
 228 -108 228 -108 157 -82.5 c 128,-1,7
 86 -57 86 -57 37 -13 c 1,8,-1
 118 108 l 1,9,10
 207 29 207 29 332 29 c 0,11,12
 416 29 416 29 466.5 71.5 c 128,-1,13
 517 114 517 114 536 211 c 2,14,-1
 562 344 l 1,15,-1
 586 298 l 1,16,17
 544 235 544 235 482 201 c 128,-1,18
 420 167 420 167 344 167 c 0,19,20
 259 167 259 167 200.5 205 c 128,-1,21
 142 243 142 243 119.5 314.5 c 128,-1,22
 97 386 97 386 117 488 c 2,23,-1
 160 700 l 1,24,-1
 322 700 l 1,25,-1
 279 484 l 2,26,27
 261 394 261 394 293.5 349.5 c 128,-1,28
 326 305 326 305 400 305 c 0,29,30
 468 305 468 305 519.5 346 c 128,-1,31
 571 387 571 387 590 480 c 2,32,-1
 634 700 l 1,0,-1
EndSplineSet
EndChar

StartChar: uni01B3.ss01
Encoding: 65730 -1 556
Width: 845
GlyphClass: 2
Flags: W
AnchorPoint: "Anchor-3" 477 700 basechar 0
AnchorPoint: "Anchor-0" 619 0 basechar 0
LayerCount: 2
Fore
SplineSet
325 -108 m 0,0,1
 228 -108 228 -108 157 -82.5 c 128,-1,2
 86 -57 86 -57 37 -13 c 1,3,-1
 118 108 l 1,4,5
 207 29 207 29 332 29 c 0,6,7
 416 29 416 29 466.5 71.5 c 128,-1,8
 517 114 517 114 536 211 c 2,9,-1
 562 344 l 1,10,-1
 586 298 l 1,11,12
 544 235 544 235 482 201 c 128,-1,13
 420 167 420 167 344 167 c 0,14,15
 259 167 259 167 200.5 205 c 128,-1,16
 142 243 142 243 119.5 314.5 c 128,-1,17
 97 386 97 386 117 488 c 2,18,-1
 160 700 l 1,19,-1
 322 700 l 1,20,-1
 279 484 l 2,21,22
 261 394 261 394 293.5 349.5 c 128,-1,23
 326 305 326 305 400 305 c 0,24,25
 468 305 468 305 520 346 c 128,-1,26
 572 387 572 387 590 480 c 2,27,-1
 606 566 l 2,28,29
 618 627 618 627 651 669.5 c 128,-1,30
 684 712 684 712 730 733.5 c 128,-1,31
 776 755 776 755 826.5 751.5 c 128,-1,32
 877 748 877 748 923 715 c 1,33,-1
 863 603 l 1,34,35
 841 615 841 615 820.5 610.5 c 128,-1,36
 800 606 800 606 785 588.5 c 128,-1,37
 770 571 770 571 764 542 c 2,38,-1
 697 204 l 2,39,40
 665 45 665 45 570 -31.5 c 128,-1,41
 475 -108 475 -108 325 -108 c 0,0,1
EndSplineSet
EndChar

StartChar: uni024E.ss01
Encoding: 65733 -1 559
Width: 788
GlyphClass: 2
Flags: W
AnchorPoint: "Anchor-3" 478 700 basechar 0
AnchorPoint: "Anchor-0" 639 0 basechar 0
LayerCount: 2
Fore
SplineSet
634 700 m 1,0,-1
 796 700 l 1,1,-1
 697 204 l 2,2,3
 665 45 665 45 570 -31.5 c 128,-1,4
 475 -108 475 -108 325 -108 c 0,5,6
 228 -108 228 -108 157 -82.5 c 128,-1,7
 86 -57 86 -57 37 -13 c 1,8,-1
 118 108 l 1,9,10
 207 29 207 29 332 29 c 0,11,12
 416 29 416 29 466.5 71.5 c 128,-1,13
 517 114 517 114 536 211 c 2,14,-1
 562 344 l 1,15,-1
 586 298 l 1,16,17
 544 235 544 235 482 201 c 128,-1,18
 420 167 420 167 344 167 c 0,19,20
 259 167 259 167 200.5 205 c 128,-1,21
 142 243 142 243 119.5 314.5 c 128,-1,22
 97 386 97 386 117 488 c 2,23,-1
 160 700 l 1,24,-1
 322 700 l 1,25,-1
 279 484 l 2,26,27
 261 394 261 394 293.5 349.5 c 128,-1,28
 326 305 326 305 400 305 c 0,29,30
 468 305 468 305 519.5 346 c 128,-1,31
 571 387 571 387 590 480 c 2,32,-1
 634 700 l 1,0,-1
31 499 m 1,33,-1
 52 608 l 1,34,-1
 867 608 l 1,35,-1
 847 499 l 1,36,-1
 31 499 l 1,33,-1
EndSplineSet
EndChar

StartChar: Z.ss01
Encoding: 65735 -1 561
Width: 701
GlyphClass: 2
Flags: W
AnchorPoint: "Anchor-3" 445 700 basechar 0
AnchorPoint: "Anchor-0" 309 0 basechar 0
LayerCount: 2
Fore
SplineSet
-2 0 m 1,0,-1
 18 99 l 1,1,-1
 551 623 l 1,2,-1
 566 570 l 1,3,-1
 123 570 l 1,4,-1
 149 700 l 1,5,-1
 737 700 l 1,6,-1
 717 602 l 1,7,-1
 185 77 l 1,8,-1
 170 130 l 1,9,-1
 637 130 l 1,10,-1
 610 0 l 1,11,-1
 -2 0 l 1,0,-1
114 296 m 1,12,-1
 138 417 l 1,13,-1
 408 417 l 1,14,-1
 450 414 l 1,15,-1
 623 414 l 1,16,-1
 599 294 l 1,17,-1
 348 294 l 1,18,-1
 306 296 l 1,19,-1
 114 296 l 1,12,-1
EndSplineSet
EndChar

StartChar: uni01B2.loclTOD0.ss01
Encoding: 65746 -1 572
Width: 781
GlyphClass: 2
Flags: W
AnchorPoint: "Anchor-3" 469 700 basechar 0
AnchorPoint: "Anchor-0" 329 0 basechar 0
LayerCount: 2
Fore
SplineSet
409 0 m 1,0,-1
 289 78 l 1,1,-1
 705 741 l 2,2,3
 742 800 742 800 781 831 c 128,-1,4
 820 862 820 862 858 871 c 128,-1,5
 896 880 896 880 931 871 c 128,-1,6
 966 862 966 862 996 840 c 1,7,-1
 933 726 l 1,8,9
 908 741 908 741 884 731 c 128,-1,10
 860 721 860 721 835 683 c 2,11,-1
 409 0 l 1,0,-1
249 0 m 1,12,-1
 87 700 l 1,13,-1
 254 700 l 1,14,-1
 395 79 l 1,15,-1
 409 0 l 1,16,-1
 249 0 l 1,12,-1
EndSplineSet
EndChar

StartChar: T_h
Encoding: 65747 -1 573
Width: 1263
GlyphClass: 3
LigCaretCntFixed: 1
Flags: W
AnchorPoint: "Anchor-8" 407 700 baselig 0
AnchorPoint: "Anchor-6" 337 350 baselig 0
AnchorPoint: "Anchor-5" 267 0 baselig 0
AnchorPoint: "Anchor-8" 1028 700 baselig 1
AnchorPoint: "Anchor-5" 888 0 baselig 1
AnchorPoint: "Anchor-6" 958 350 baselig 1
LayerCount: 2
Fore
SplineSet
184 0 m 1,0,-1
 297 568 l 1,1,-1
 73 568 l 1,2,-1
 100 700 l 1,3,-1
 740 700 l 1,4,-1
 713 568 l 1,5,-1
 460 568 l 1,6,-1
 346 0 l 1,7,-1
 184 0 l 1,0,-1
1002 546 m 0,8,9
 1071 546 1071 546 1119 517.5 c 128,-1,10
 1167 489 1167 489 1187 434 c 128,-1,11
 1207 379 1207 379 1190 298 c 2,12,-1
 1131 0 l 1,13,-1
 975 0 l 1,14,-1
 1032 288 l 2,15,16
 1044 347 1044 347 1022.5 379 c 128,-1,17
 1001 411 1001 411 944 411 c 0,18,19
 885 411 885 411 846 377 c 128,-1,20
 807 343 807 343 792 273 c 2,21,-1
 737 0 l 1,22,-1
 581 0 l 1,23,-1
 721 700 l 1,24,-1
 877 700 l 1,25,-1
 814 386 l 1,26,-1
 784 432 l 1,27,28
 822 491 822 491 879.5 518.5 c 128,-1,29
 937 546 937 546 1002 546 c 0,8,9
EndSplineSet
Ligature2: "'dlig' Discretionary Ligatures lookup 51 subtable" T h
LCarets2: 1 584
EndChar

StartChar: Iacute_J.loclNLD.ss01
Encoding: 65748 -1 574
Width: 744
GlyphClass: 2
LigCaretCntFixed: 1
Flags: W
LayerCount: 2
Fore
SplineSet
284 -108 m 0,0,1
 196 -108 196 -108 128.5 -86.5 c 128,-1,2
 61 -65 61 -65 13 -29 c 1,3,-1
 92 93 l 1,4,5
 136 61 136 61 187 44.5 c 128,-1,6
 238 28 238 28 291 28 c 0,7,8
 371 28 371 28 417 70.5 c 128,-1,9
 463 113 463 113 482 211 c 2,10,-1
 580 700 l 1,11,-1
 742 700 l 1,12,-1
 643 204 l 2,13,14
 611 45 611 45 521.5 -31.5 c 128,-1,15
 432 -108 432 -108 284 -108 c 0,0,1
76 222 m 1,16,-1
 172 700 l 1,17,-1
 335 700 l 1,18,-1
 239 222 l 1,19,-1
 76 222 l 1,16,-1
190 757 m 1,20,-1
 353 901 l 1,21,-1
 509 901 l 1,22,-1
 299 757 l 1,23,-1
 190 757 l 1,20,-1
598 757 m 1,24,-1
 761 901 l 1,25,-1
 917 901 l 1,26,-1
 707 757 l 1,27,-1
 598 757 l 1,24,-1
EndSplineSet
LCarets2: 1 341
EndChar

StartChar: uni026A
Encoding: 618 618 575
Width: 408
GlyphClass: 2
Flags: W
AnchorPoint: "Anchor-3" 258 538 basechar 0
AnchorPoint: "Anchor-2" 228 0 basechar 0
AnchorPoint: "Anchor-0" 150 0 basechar 0
LayerCount: 2
Fore
SplineSet
66 420 m 1,0,-1
 90 538 l 1,1,-1
 426 538 l 1,2,-1
 402 420 l 1,3,-1
 66 420 l 1,0,-1
-18 0 m 1,4,-1
 6 118 l 1,5,-1
 341 118 l 1,6,-1
 318 0 l 1,7,-1
 -18 0 l 1,4,-1
72 0 m 1,8,-1
 180 538 l 1,9,-1
 336 538 l 1,10,-1
 228 0 l 1,11,-1
 72 0 l 1,8,-1
EndSplineSet
Substitution2: "'smcp' Lowercase to Small Capitals lookup 49 subtable" uni026A.sc
Substitution2: "'aalt' Access All Alternates lookup 3 subtable" uni026A.sc
EndChar

StartChar: uni1D7B
Encoding: 7547 7547 576
Width: 441
GlyphClass: 2
Flags: W
AnchorPoint: "Anchor-3" 273 538 basechar 0
AnchorPoint: "Anchor-2" 243 0 basechar 0
AnchorPoint: "Anchor-0" 165 0 basechar 0
LayerCount: 2
Fore
SplineSet
81 420 m 1,0,-1
 105 538 l 1,1,-1
 440 538 l 1,2,-1
 417 420 l 1,3,-1
 81 420 l 1,0,-1
-3 0 m 1,4,-1
 21 118 l 1,5,-1
 356 118 l 1,6,-1
 333 0 l 1,7,-1
 -3 0 l 1,4,-1
87 0 m 1,8,-1
 194 538 l 1,9,-1
 351 538 l 1,10,-1
 243 0 l 1,11,-1
 87 0 l 1,8,-1
49 229 m 1,12,-1
 68 319 l 1,13,-1
 391 319 l 1,14,-1
 372 229 l 1,15,-1
 49 229 l 1,12,-1
EndSplineSet
Substitution2: "'smcp' Lowercase to Small Capitals lookup 49 subtable" uni1D7B.sc
Substitution2: "'aalt' Access All Alternates lookup 3 subtable" uni1D7B.sc
EndChar

StartChar: uni0274
Encoding: 628 628 577
Width: 691
GlyphClass: 2
Flags: W
AnchorPoint: "Anchor-3" 399 540 basechar 0
AnchorPoint: "Anchor-0" 292 0 basechar 0
LayerCount: 2
Fore
SplineSet
17 0 m 1,0,-1
 125 540 l 1,1,-1
 254 540 l 1,2,-1
 502 184 l 1,3,-1
 448 186 l 1,4,-1
 520 540 l 1,5,-1
 674 540 l 1,6,-1
 565 0 l 1,7,-1
 436 0 l 1,8,-1
 189 356 l 1,9,-1
 242 355 l 1,10,-1
 171 0 l 1,11,-1
 17 0 l 1,0,-1
EndSplineSet
Substitution2: "'smcp' Lowercase to Small Capitals lookup 49 subtable" uni0274.sc
Substitution2: "'aalt' Access All Alternates lookup 3 subtable" uni0274.sc
EndChar

StartChar: uni0280
Encoding: 640 640 578
Width: 635
GlyphClass: 2
Flags: W
AnchorPoint: "Anchor-3" 376 540 basechar 0
AnchorPoint: "Anchor-0" 269 0 basechar 0
LayerCount: 2
Fore
SplineSet
17 0 m 1,0,-1
 125 540 l 1,1,-1
 370 540 l 2,2,3
 482 540 482 540 544 494 c 128,-1,4
 606 448 606 448 606 363 c 0,5,6
 606 296 606 296 571 246.5 c 128,-1,7
 536 197 536 197 472.5 169.5 c 128,-1,8
 409 142 409 142 322 142 c 2,9,-1
 133 142 l 1,10,-1
 216 210 l 1,11,-1
 175 0 l 1,12,-1
 17 0 l 1,0,-1
385 0 m 1,13,-1
 263 197 l 1,14,-1
 426 197 l 1,15,-1
 549 0 l 1,16,-1
 385 0 l 1,13,-1
212 191 m 1,17,-1
 157 263 l 1,18,-1
 329 263 l 2,19,20
 385 263 385 263 416 285.5 c 128,-1,21
 447 308 447 308 447 348 c 0,22,23
 447 385 447 385 420.5 400.5 c 128,-1,24
 394 416 394 416 349 416 c 2,25,-1
 189 416 l 1,26,-1
 272 491 l 1,27,-1
 212 191 l 1,17,-1
EndSplineSet
Substitution2: "'smcp' Lowercase to Small Capitals lookup 49 subtable" uni0280.sc
Substitution2: "'aalt' Access All Alternates lookup 3 subtable" uni0280.sc
EndChar

StartChar: a
Encoding: 97 97 580
Width: 710
GlyphClass: 2
Flags: W
AnchorPoint: "Anchor-3" 413 538 basechar 0
AnchorPoint: "Anchor-2" 575 0 basechar 0
AnchorPoint: "Anchor-0" 293 0 basechar 0
LayerCount: 2
Fore
SplineSet
272 -8 m 0,0,1
 210 -8 210 -8 157 20.5 c 128,-1,2
 104 49 104 49 72 103 c 128,-1,3
 40 157 40 157 40 233 c 0,4,5
 40 301 40 301 62.5 358 c 128,-1,6
 85 415 85 415 126 457 c 128,-1,7
 167 499 167 499 221 522.5 c 128,-1,8
 275 546 275 546 337 546 c 0,9,10
 404 546 404 546 452 521 c 128,-1,11
 500 496 500 496 523.5 443.5 c 128,-1,12
 547 391 547 391 540 308 c 0,13,14
 535 213 535 213 501 141.5 c 128,-1,15
 467 70 467 70 409.5 31 c 128,-1,16
 352 -8 352 -8 272 -8 c 0,0,1
320 121 m 0,17,18
 366 121 366 121 401.5 143.5 c 128,-1,19
 437 166 437 166 457.5 205.5 c 128,-1,20
 478 245 478 245 478 298 c 0,21,22
 478 353 478 353 445.5 385 c 128,-1,23
 413 417 413 417 355 417 c 0,24,25
 310 417 310 417 274 394.5 c 128,-1,26
 238 372 238 372 217.5 332.5 c 128,-1,27
 197 293 197 293 197 240 c 0,28,29
 197 185 197 185 229.5 153 c 128,-1,30
 262 121 262 121 320 121 c 0,17,18
427 0 m 1,31,-1
 448 107 l 1,32,-1
 483 267 l 1,33,-1
 504 427 l 1,34,-1
 526 538 l 1,35,-1
 682 538 l 1,36,-1
 575 0 l 1,37,-1
 427 0 l 1,31,-1
EndSplineSet
Substitution2: "'ss01' Style Set 1 lookup 53 subtable" a.ss01
Substitution2: "'smcp' Lowercase to Small Capitals lookup 49 subtable" a.sc
Substitution2: "Single Substitution lookup 42 subtable" ordfeminine
AlternateSubs2: "'aalt' Access All Alternates lookup 4 subtable" ordfeminine a.sc a.ss01
EndChar

StartChar: uni2C65
Encoding: 11365 11365 611
Width: 710
GlyphClass: 2
Flags: W
AnchorPoint: "Anchor-3" 413 538 basechar 0
AnchorPoint: "Anchor-2" 575 0 basechar 0
AnchorPoint: "Anchor-0" 293 0 basechar 0
LayerCount: 2
Fore
SplineSet
272 -8 m 0,0,1
 210 -8 210 -8 157 20.5 c 128,-1,2
 104 49 104 49 72 103 c 128,-1,3
 40 157 40 157 40 233 c 0,4,5
 40 301 40 301 62.5 358 c 128,-1,6
 85 415 85 415 126 457 c 128,-1,7
 167 499 167 499 221 522.5 c 128,-1,8
 275 546 275 546 337 546 c 0,9,10
 404 546 404 546 452 521 c 128,-1,11
 500 496 500 496 523.5 443.5 c 128,-1,12
 547 391 547 391 540 308 c 0,13,14
 535 213 535 213 501 141.5 c 128,-1,15
 467 70 467 70 409.5 31 c 128,-1,16
 352 -8 352 -8 272 -8 c 0,0,1
320 121 m 0,17,18
 366 121 366 121 401.5 143.5 c 128,-1,19
 437 166 437 166 457.5 205.5 c 128,-1,20
 478 245 478 245 478 298 c 0,21,22
 478 353 478 353 445.5 385 c 128,-1,23
 413 417 413 417 355 417 c 0,24,25
 310 417 310 417 274 394.5 c 128,-1,26
 238 372 238 372 217.5 332.5 c 128,-1,27
 197 293 197 293 197 240 c 0,28,29
 197 185 197 185 229.5 153 c 128,-1,30
 262 121 262 121 320 121 c 0,17,18
427 0 m 1,31,-1
 448 107 l 1,32,-1
 483 267 l 1,33,-1
 504 427 l 1,34,-1
 526 538 l 1,35,-1
 682 538 l 1,36,-1
 575 0 l 1,37,-1
 427 0 l 1,31,-1
86 -76 m 1,38,-1
 509 615 l 1,39,-1
 587 615 l 1,40,-1
 163 -76 l 1,41,-1
 86 -76 l 1,38,-1
EndSplineSet
Substitution2: "'ss01' Style Set 1 lookup 53 subtable" uni2C65.ss01
Substitution2: "'smcp' Lowercase to Small Capitals lookup 49 subtable" uni2C65.sc
AlternateSubs2: "'aalt' Access All Alternates lookup 4 subtable" uni2C65.sc uni2C65.ss01
EndChar

StartChar: uni0250
Encoding: 592 592 613
Width: 637
GlyphClass: 2
Flags: W
AnchorPoint: "Anchor-3" 341 538 basechar 0
AnchorPoint: "Anchor-0" 233 0 basechar 0
LayerCount: 2
Fore
SplineSet
282 538 m 1,0,-1
 261 433 l 1,1,-1
 266 410 l 1,2,-1
 228 222 l 2,3,4
 218 171 218 171 244.5 143.5 c 128,-1,5
 271 116 271 116 331 116 c 0,6,7
 373 116 373 116 418 128.5 c 128,-1,8
 463 141 463 141 497 162 c 1,9,-1
 531 53 l 1,10,11
 483 23 483 23 427 7.5 c 128,-1,12
 371 -8 371 -8 305 -8 c 0,13,14
 171 -8 171 -8 111 53.5 c 128,-1,15
 51 115 51 115 74 231 c 2,16,-1
 136 538 l 1,17,-1
 282 538 l 1,0,-1
432 546 m 256,18,19
 496 546 496 546 540.5 522 c 128,-1,20
 585 498 585 498 605 456.5 c 128,-1,21
 625 415 625 415 615 361 c 0,22,23
 602 292 602 292 541.5 257 c 128,-1,24
 481 222 481 222 374 222 c 2,25,-1
 210 222 l 1,26,-1
 228 313 l 1,27,-1
 363 313 l 2,28,29
 408 313 408 313 433 328 c 128,-1,30
 458 343 458 343 462 373 c 0,31,32
 466 404 466 404 444.5 422.5 c 128,-1,33
 423 441 423 441 381 441 c 0,34,35
 342 441 342 441 310 422.5 c 128,-1,36
 278 404 278 404 258 368 c 1,37,-1
 248 440 l 1,38,39
 274 493 274 493 321 519.5 c 128,-1,40
 368 546 368 546 432 546 c 256,18,19
EndSplineSet
Substitution2: "'smcp' Lowercase to Small Capitals lookup 49 subtable" uni0250.sc
Substitution2: "'aalt' Access All Alternates lookup 3 subtable" uni0250.sc
EndChar

StartChar: ae
Encoding: 230 230 614
Width: 1015
GlyphClass: 2
Flags: W
AnchorPoint: "Anchor-3" 530 537 basechar 0
AnchorPoint: "Anchor-2" 747 0 basechar 0
LayerCount: 2
Fore
SplineSet
239 -8 m 0,0,1
 172 -8 172 -8 124.5 12 c 128,-1,2
 77 32 77 32 51.5 66.5 c 128,-1,3
 26 101 26 101 26 146 c 0,4,5
 26 225 26 225 88.5 271 c 128,-1,6
 151 317 151 317 272 317 c 2,7,-1
 421 317 l 1,8,-1
 405 226 l 1,9,-1
 275 226 l 2,10,11
 228 226 228 226 203 208 c 128,-1,12
 178 190 178 190 178 157 c 0,13,14
 178 130 178 130 199 113.5 c 128,-1,15
 220 97 220 97 263 97 c 0,16,17
 294 97 294 97 319 108 c 128,-1,18
 344 119 344 119 361.5 142 c 128,-1,19
 379 165 379 165 386 201 c 2,20,-1
 409 314 l 2,21,22
 419 366 419 366 391 393.5 c 128,-1,23
 363 421 363 421 300 421 c 0,24,25
 258 421 258 421 216.5 409 c 128,-1,26
 175 397 175 397 144 378 c 1,27,-1
 103 489 l 1,28,29
 134 509 134 509 172 521 c 128,-1,30
 210 533 210 533 250.5 539.5 c 128,-1,31
 291 546 291 546 327 546 c 0,32,33
 422 546 422 546 476 514 c 128,-1,34
 530 482 530 482 546 420 c 1,35,-1
 479 423 l 1,36,37
 508 462 508 462 544 489.5 c 128,-1,38
 580 517 580 517 624 531.5 c 128,-1,39
 668 546 668 546 720 546 c 0,40,41
 799 546 799 546 857.5 516.5 c 128,-1,42
 916 487 916 487 948 434.5 c 128,-1,43
 980 382 980 382 980 309 c 0,44,45
 980 288 980 288 977.5 267 c 128,-1,46
 975 246 975 246 970 226 c 1,47,-1
 527 226 l 1,48,-1
 543 317 l 1,49,-1
 876 317 l 1,50,-1
 830 290 l 1,51,52
 838 335 838 335 824.5 365.5 c 128,-1,53
 811 396 811 396 782 412.5 c 128,-1,54
 753 429 753 429 712 429 c 0,55,56
 662 429 662 429 626 404.5 c 128,-1,57
 590 380 590 380 571.5 337 c 128,-1,58
 553 294 553 294 553 240 c 0,59,60
 553 175 553 175 588 146 c 128,-1,61
 623 117 623 117 693 117 c 0,62,63
 737 117 737 117 773.5 129.5 c 128,-1,64
 810 142 810 142 837 167 c 1,65,-1
 905 64 l 1,66,67
 857 27 857 27 798 9.5 c 128,-1,68
 739 -8 739 -8 677 -8 c 0,69,70
 620 -8 620 -8 567 10 c 128,-1,71
 514 28 514 28 476 66.5 c 128,-1,72
 438 105 438 105 421 166 c 1,73,-1
 502 165 l 1,74,75
 475 98 475 98 435.5 60.5 c 128,-1,76
 396 23 396 23 346.5 7.5 c 128,-1,77
 297 -8 297 -8 239 -8 c 0,0,1
EndSplineSet
Substitution2: "'ss01' Style Set 1 lookup 53 subtable" ae.ss01
Substitution2: "'smcp' Lowercase to Small Capitals lookup 49 subtable" ae.sc
AlternateSubs2: "'aalt' Access All Alternates lookup 4 subtable" ae.sc ae.ss01
EndChar

StartChar: b
Encoding: 98 98 617
Width: 710
GlyphClass: 2
Flags: W
AnchorPoint: "Anchor-3" 463 538 basechar 0
AnchorPoint: "Anchor-0" 335 0 basechar 0
LayerCount: 2
Fore
SplineSet
29 0 m 1,0,-1
 177 742 l 1,1,-1
 333 742 l 1,2,-1
 270 429 l 1,3,-1
 228 272 l 1,4,-1
 204 134 l 1,5,-1
 177 0 l 1,6,-1
 29 0 l 1,0,-1
373 -8 m 0,7,8
 311 -8 311 -8 264.5 14 c 128,-1,9
 218 36 218 36 192.5 81.5 c 128,-1,10
 167 127 167 127 167 196 c 0,11,12
 167 269 167 269 185 333 c 128,-1,13
 203 397 203 397 238 444.5 c 128,-1,14
 273 492 273 492 323.5 519 c 128,-1,15
 374 546 374 546 438 546 c 0,16,17
 501 546 501 546 554 517.5 c 128,-1,18
 607 489 607 489 639 435.5 c 128,-1,19
 671 382 671 382 671 305 c 0,20,21
 671 238 671 238 648 180.5 c 128,-1,22
 625 123 625 123 584.5 81 c 128,-1,23
 544 39 544 39 490 15.5 c 128,-1,24
 436 -8 436 -8 373 -8 c 0,7,8
355 121 m 0,25,26
 402 121 402 121 437 143.5 c 128,-1,27
 472 166 472 166 492.5 205.5 c 128,-1,28
 513 245 513 245 513 298 c 0,29,30
 513 353 513 353 481 385 c 128,-1,31
 449 417 449 417 390 417 c 0,32,33
 345 417 345 417 309 394.5 c 128,-1,34
 273 372 273 372 253 332.5 c 128,-1,35
 233 293 233 293 233 240 c 0,36,37
 233 185 233 185 265 153 c 128,-1,38
 297 121 297 121 355 121 c 0,25,26
EndSplineSet
Substitution2: "'smcp' Lowercase to Small Capitals lookup 49 subtable" b.sc
Substitution2: "'aalt' Access All Alternates lookup 3 subtable" b.sc
EndChar

StartChar: uniA7B5
Encoding: 42933 42933 620
Width: 718
GlyphClass: 1
Flags: W
LayerCount: 2
Fore
SplineSet
-10 -194 m 1,0,-1
 131 513 l 2,1,2
 153 625 153 625 230 688 c 128,-1,3
 307 751 307 751 421 751 c 0,4,5
 483 751 483 751 532 733 c 128,-1,6
 581 715 581 715 614.5 683.5 c 128,-1,7
 648 652 648 652 661.5 610.5 c 128,-1,8
 675 569 675 569 665 521 c 0,9,10
 654 469 654 469 618.5 428 c 128,-1,11
 583 387 583 387 534 364.5 c 128,-1,12
 485 342 485 342 430 345 c 1,13,-1
 458 404 l 1,14,15
 532 397 532 397 582 367 c 128,-1,16
 632 337 632 337 652.5 288.5 c 128,-1,17
 673 240 673 240 660 178 c 0,18,19
 642 91 642 91 571 41 c 128,-1,20
 500 -9 500 -9 393 -9 c 0,21,22
 319 -9 319 -9 252 15.5 c 128,-1,23
 185 40 185 40 145 81 c 1,24,-1
 212 193 l 1,25,26
 230 172 230 172 258 155 c 128,-1,27
 286 138 286 138 319.5 128.5 c 128,-1,28
 353 119 353 119 386 119 c 0,29,30
 434 119 434 119 465.5 140.5 c 128,-1,31
 497 162 497 162 504 201 c 0,32,33
 511 232 511 232 498 255.5 c 128,-1,34
 485 279 485 279 455.5 292 c 128,-1,35
 426 305 426 305 383 305 c 2,36,-1
 351 305 l 1,37,-1
 371 430 l 1,38,-1
 395 430 l 2,39,40
 426 430 426 430 451 442 c 128,-1,41
 476 454 476 454 492.5 475 c 128,-1,42
 509 496 509 496 514 523 c 0,43,44
 519 554 519 554 508.5 577 c 128,-1,45
 498 600 498 600 473 613 c 128,-1,46
 448 626 448 626 412 626 c 0,47,48
 362 626 362 626 330 598 c 128,-1,49
 298 570 298 570 287 517 c 2,50,-1
 146 -194 l 1,51,-1
 -10 -194 l 1,0,-1
EndSplineSet
Substitution2: "'smcp' Lowercase to Small Capitals lookup 49 subtable" uniA7B5.sc
Substitution2: "'aalt' Access All Alternates lookup 3 subtable" uniA7B5.sc
EndChar

StartChar: uni0253
Encoding: 595 595 621
Width: 712
GlyphClass: 1
Flags: W
LayerCount: 2
Fore
SplineSet
31 0 m 1,0,-1
 145 570 l 2,1,2
 158 633 158 633 191 673.5 c 128,-1,3
 224 714 224 714 272.5 733.5 c 128,-1,4
 321 753 321 753 379 753 c 0,5,6
 426 753 426 753 469 741 c 128,-1,7
 512 729 512 729 544 710 c 1,8,-1
 485 600 l 1,9,10
 462 615 462 615 437 622.5 c 128,-1,11
 412 630 412 630 386 630 c 0,12,13
 349 630 349 630 326.5 610 c 128,-1,14
 304 590 304 590 297 554 c 2,15,-1
 271 420 l 1,16,-1
 230 270 l 1,17,-1
 201 110 l 1,18,-1
 179 0 l 1,19,-1
 31 0 l 1,0,-1
376 -8 m 0,20,21
 277 -8 277 -8 224 44.5 c 128,-1,22
 171 97 171 97 171 196 c 0,23,24
 171 300 171 300 205 378 c 128,-1,25
 239 456 239 456 299.5 499.5 c 128,-1,26
 360 543 360 543 441 543 c 0,27,28
 509 543 509 543 561.5 512.5 c 128,-1,29
 614 482 614 482 643.5 428 c 128,-1,30
 673 374 673 374 673 304 c 0,31,32
 673 238 673 238 650.5 181 c 128,-1,33
 628 124 628 124 588 81.5 c 128,-1,34
 548 39 548 39 494 15.5 c 128,-1,35
 440 -8 440 -8 376 -8 c 0,20,21
359 120 m 0,36,37
 405 120 405 120 440 142.5 c 128,-1,38
 475 165 475 165 495.5 205 c 128,-1,39
 516 245 516 245 516 297 c 0,40,41
 516 353 516 353 483.5 384 c 128,-1,42
 451 415 451 415 393 415 c 0,43,44
 348 415 348 415 312.5 393 c 128,-1,45
 277 371 277 371 256.5 331 c 128,-1,46
 236 291 236 291 236 239 c 0,47,48
 236 183 236 183 268.5 151.5 c 128,-1,49
 301 120 301 120 359 120 c 0,36,37
EndSplineSet
Substitution2: "'smcp' Lowercase to Small Capitals lookup 49 subtable" uni0253.sc
Substitution2: "'aalt' Access All Alternates lookup 3 subtable" uni0253.sc
EndChar

StartChar: uni0298
Encoding: 664 664 622
Width: 864
GlyphClass: 2
Flags: W
AnchorPoint: "Anchor-4" 712 700 basechar 0
AnchorPoint: "Anchor-3" 453 397 basechar 0
AnchorPoint: "Anchor-2" 477 0 basechar 0
AnchorPoint: "Anchor-1" 448 350 basechar 0
AnchorPoint: "Anchor-0" 378 0 basechar 0
LayerCount: 2
Fore
SplineSet
402 -12 m 0,0,1
 296 -12 296 -12 219.5 26.5 c 128,-1,2
 143 65 143 65 102 133.5 c 128,-1,3
 61 202 61 202 61 292 c 256,4,5
 61 382 61 382 92 458.5 c 128,-1,6
 123 535 123 535 180.5 591.5 c 128,-1,7
 238 648 238 648 317.5 680 c 128,-1,8
 397 712 397 712 494 712 c 0,9,10
 600 712 600 712 676.5 673.5 c 128,-1,11
 753 635 753 635 794 566.5 c 128,-1,12
 835 498 835 498 835 408 c 256,13,14
 835 318 835 318 804 241.5 c 128,-1,15
 773 165 773 165 715.5 108.5 c 128,-1,16
 658 52 658 52 578.5 20 c 128,-1,17
 499 -12 499 -12 402 -12 c 0,0,1
416 126 m 0,18,19
 475 126 475 126 522.5 147.5 c 128,-1,20
 570 169 570 169 603 207 c 128,-1,21
 636 245 636 245 653.5 294.5 c 128,-1,22
 671 344 671 344 671 399 c 0,23,24
 671 451 671 451 649 490.5 c 128,-1,25
 627 530 627 530 584.5 552 c 128,-1,26
 542 574 542 574 480 574 c 0,27,28
 421 574 421 574 374 552.5 c 128,-1,29
 327 531 327 531 293.5 493 c 128,-1,30
 260 455 260 455 242.5 405.5 c 128,-1,31
 225 356 225 356 225 301 c 0,32,33
 225 249 225 249 247.5 209.5 c 128,-1,34
 270 170 270 170 312.5 148 c 128,-1,35
 355 126 355 126 416 126 c 0,18,19
438 265 m 0,36,37
 403 265 403 265 381.5 285.5 c 128,-1,38
 360 306 360 306 360 339 c 0,39,40
 360 381 360 381 386.5 407 c 128,-1,41
 413 433 413 433 450 433 c 0,42,43
 485 433 485 433 506.5 412 c 128,-1,44
 528 391 528 391 528 358 c 0,45,46
 528 317 528 317 502 291 c 128,-1,47
 476 265 476 265 438 265 c 0,36,37
EndSplineSet
Substitution2: "'smcp' Lowercase to Small Capitals lookup 49 subtable" uni0298.sc
Substitution2: "'aalt' Access All Alternates lookup 3 subtable" uni0298.sc
EndChar

StartChar: uni0180
Encoding: 384 384 624
Width: 720
GlyphClass: 2
Flags: W
AnchorPoint: "Anchor-3" 462 538 basechar 0
AnchorPoint: "Anchor-1" 365 269 basechar 0
AnchorPoint: "Anchor-0" 311 0 basechar 0
LayerCount: 2
Fore
SplineSet
38 0 m 1,0,-1
 186 742 l 1,1,-1
 342 742 l 1,2,-1
 279 429 l 1,3,-1
 238 272 l 1,4,-1
 213 134 l 1,5,-1
 187 0 l 1,6,-1
 38 0 l 1,0,-1
382 -8 m 0,7,8
 321 -8 321 -8 274 14 c 128,-1,9
 227 36 227 36 202 81.5 c 128,-1,10
 177 127 177 127 177 196 c 0,11,12
 177 269 177 269 194.5 333 c 128,-1,13
 212 397 212 397 247 444.5 c 128,-1,14
 282 492 282 492 332.5 519 c 128,-1,15
 383 546 383 546 448 546 c 0,16,17
 511 546 511 546 563.5 517.5 c 128,-1,18
 616 489 616 489 648 435.5 c 128,-1,19
 680 382 680 382 680 305 c 0,20,21
 680 238 680 238 657.5 180.5 c 128,-1,22
 635 123 635 123 594 81 c 128,-1,23
 553 39 553 39 499 15.5 c 128,-1,24
 445 -8 445 -8 382 -8 c 0,7,8
365 121 m 0,25,26
 411 121 411 121 446.5 143.5 c 128,-1,27
 482 166 482 166 502 205.5 c 128,-1,28
 522 245 522 245 522 298 c 0,29,30
 522 353 522 353 490 385 c 128,-1,31
 458 417 458 417 400 417 c 0,32,33
 354 417 354 417 318.5 394.5 c 128,-1,34
 283 372 283 372 262.5 332.5 c 128,-1,35
 242 293 242 293 242 240 c 0,36,37
 242 185 242 185 274 153 c 128,-1,38
 306 121 306 121 365 121 c 0,25,26
73 594 m 1,39,-1
 91 684 l 1,40,-1
 497 684 l 1,41,-1
 480 594 l 1,42,-1
 73 594 l 1,39,-1
EndSplineSet
Substitution2: "'smcp' Lowercase to Small Capitals lookup 49 subtable" uni0180.sc
Substitution2: "'aalt' Access All Alternates lookup 3 subtable" uni0180.sc
EndChar

StartChar: uni0183
Encoding: 387 387 625
Width: 715
GlyphClass: 1
Flags: W
LayerCount: 2
Fore
SplineSet
30 0 m 1,0,-1
 178 742 l 1,1,-1
 332 742 l 1,2,-1
 268 422 l 1,3,-1
 227 266 l 1,4,-1
 203 131 l 1,5,-1
 177 0 l 1,6,-1
 30 0 l 1,0,-1
374 -8 m 0,7,8
 311 -8 311 -8 264 13.5 c 128,-1,9
 217 35 217 35 191.5 80 c 128,-1,10
 166 125 166 125 166 195 c 0,11,12
 166 267 166 267 183.5 329 c 128,-1,13
 201 391 201 391 235.5 437.5 c 128,-1,14
 270 484 270 484 320.5 510 c 128,-1,15
 371 536 371 536 437 536 c 0,16,17
 500 536 500 536 553.5 508 c 128,-1,18
 607 480 607 480 639 427 c 128,-1,19
 671 374 671 374 671 298 c 0,20,21
 671 232 671 232 648.5 176 c 128,-1,22
 626 120 626 120 585 79 c 128,-1,23
 544 38 544 38 490 15 c 128,-1,24
 436 -8 436 -8 374 -8 c 0,7,8
357 119 m 0,25,26
 403 119 403 119 438.5 141 c 128,-1,27
 474 163 474 163 494.5 201.5 c 128,-1,28
 515 240 515 240 515 290 c 0,29,30
 515 327 515 327 500.5 353.5 c 128,-1,31
 486 380 486 380 458 394.5 c 128,-1,32
 430 409 430 409 390 409 c 0,33,34
 344 409 344 409 308 387 c 128,-1,35
 272 365 272 365 251.5 326.5 c 128,-1,36
 231 288 231 288 231 237 c 0,37,38
 231 200 231 200 246 173.5 c 128,-1,39
 261 147 261 147 289 133 c 128,-1,40
 317 119 317 119 357 119 c 0,25,26
236 632 m 1,41,-1
 178 742 l 1,42,-1
 645 742 l 1,43,-1
 623 632 l 1,44,-1
 236 632 l 1,41,-1
EndSplineSet
Substitution2: "'smcp' Lowercase to Small Capitals lookup 49 subtable" uni0183.sc
Substitution2: "'aalt' Access All Alternates lookup 3 subtable" uni0183.sc
EndChar

StartChar: c
Encoding: 99 99 626
Width: 613
GlyphClass: 2
Flags: W
AnchorPoint: "Anchor-3" 375 538 basechar 0
AnchorPoint: "Anchor-0" 292 0 basechar 0
LayerCount: 2
Fore
SplineSet
313 -8 m 256,0,1
 230 -8 230 -8 168.5 22 c 128,-1,2
 107 52 107 52 73 106 c 128,-1,3
 39 160 39 160 39 233 c 0,4,5
 39 323 39 323 81 393.5 c 128,-1,6
 123 464 123 464 197 505 c 128,-1,7
 271 546 271 546 367 546 c 0,8,9
 453 546 453 546 516 510.5 c 128,-1,10
 579 475 579 475 609 410 c 1,11,-1
 477 344 l 1,12,13
 460 382 460 382 429.5 399.5 c 128,-1,14
 399 417 399 417 357 417 c 0,15,16
 311 417 311 417 275 394.5 c 128,-1,17
 239 372 239 372 218 332.5 c 128,-1,18
 197 293 197 293 197 241 c 0,19,20
 197 186 197 186 229.5 153.5 c 128,-1,21
 262 121 262 121 322 121 c 0,22,23
 363 121 363 121 397 138.5 c 128,-1,24
 431 156 431 156 454 193 c 1,25,-1
 569 121 l 1,26,27
 531 60 531 60 463.5 26 c 128,-1,28
 396 -8 396 -8 313 -8 c 256,0,1
EndSplineSet
Substitution2: "'smcp' Lowercase to Small Capitals lookup 49 subtable" c.sc
Substitution2: "'aalt' Access All Alternates lookup 3 subtable" c.sc
EndChar

StartChar: uniA793
Encoding: 42899 42899 628
Width: 668
GlyphClass: 2
Flags: W
AnchorPoint: "Anchor-3" 430 538 basechar 0
AnchorPoint: "Anchor-0" 347 0 basechar 0
LayerCount: 2
Fore
SplineSet
367 -8 m 0,0,1
 285 -8 285 -8 223 22 c 128,-1,2
 161 52 161 52 127.5 106 c 128,-1,3
 94 160 94 160 94 233 c 0,4,5
 94 323 94 323 136 393.5 c 128,-1,6
 178 464 178 464 252 505 c 128,-1,7
 326 546 326 546 422 546 c 0,8,9
 508 546 508 546 570.5 510.5 c 128,-1,10
 633 475 633 475 664 410 c 1,11,-1
 531 344 l 1,12,13
 514 382 514 382 483.5 399.5 c 128,-1,14
 453 417 453 417 412 417 c 0,15,16
 366 417 366 417 329.5 394.5 c 128,-1,17
 293 372 293 372 272.5 332.5 c 128,-1,18
 252 293 252 293 252 241 c 0,19,20
 252 186 252 186 284 153.5 c 128,-1,21
 316 121 316 121 377 121 c 0,22,23
 417 121 417 121 451 138.5 c 128,-1,24
 485 156 485 156 509 193 c 1,25,-1
 624 121 l 1,26,27
 585 60 585 60 517.5 26 c 128,-1,28
 450 -8 450 -8 367 -8 c 0,0,1
6 229 m 1,29,-1
 25 319 l 1,30,-1
 395 319 l 1,31,-1
 377 229 l 1,32,-1
 6 229 l 1,29,-1
EndSplineSet
Substitution2: "'smcp' Lowercase to Small Capitals lookup 49 subtable" uniA793.sc
Substitution2: "'aalt' Access All Alternates lookup 3 subtable" uniA793.sc
EndChar

StartChar: uniAB53
Encoding: 43859 43859 634
Width: 619
GlyphClass: 1
Flags: W
LayerCount: 2
Fore
SplineSet
611 -134 m 1,0,1
 578 -173 578 -173 535 -190.5 c 128,-1,2
 492 -208 492 -208 449.5 -204.5 c 128,-1,3
 407 -201 407 -201 374.5 -177.5 c 128,-1,4
 342 -154 342 -154 330 -109 c 2,5,-1
 274 89 l 1,6,-1
 241 155 l 1,7,-1
 163 385 l 2,8,9
 156 406 156 406 143 414 c 128,-1,10
 130 422 130 422 112.5 417 c 128,-1,11
 95 412 95 412 75 392 c 1,12,-1
 14 477 l 1,13,14
 47 516 47 516 89 533 c 128,-1,15
 131 550 131 550 172 547 c 128,-1,16
 213 544 213 544 244.5 520 c 128,-1,17
 276 496 276 496 289 452 c 2,18,-1
 343 275 l 1,19,-1
 373 211 l 1,20,-1
 457 -42 l 2,21,22
 464 -63 464 -63 478.5 -71 c 128,-1,23
 493 -79 493 -79 512 -73.5 c 128,-1,24
 531 -68 531 -68 551 -49 c 1,25,-1
 611 -134 l 1,0,1
-58 -194 m 1,26,-1
 268 237 l 1,27,-1
 287 231 l 1,28,-1
 500 538 l 1,29,-1
 670 538 l 1,30,-1
 356 136 l 1,31,-1
 338 137 l 1,32,-1
 112 -194 l 1,33,-1
 -58 -194 l 1,26,-1
EndSplineSet
Substitution2: "'smcp' Lowercase to Small Capitals lookup 49 subtable" uniAB53.sc
Substitution2: "'aalt' Access All Alternates lookup 3 subtable" uniAB53.sc
EndChar

StartChar: uni0188
Encoding: 392 392 635
Width: 632
GlyphClass: 2
Flags: W
AnchorPoint: "Anchor-3" 375 538 basechar 0
AnchorPoint: "Anchor-0" 262 0 basechar 0
LayerCount: 2
Fore
SplineSet
313 -8 m 256,0,1
 230 -8 230 -8 168.5 22 c 128,-1,2
 107 52 107 52 73 106 c 128,-1,3
 39 160 39 160 39 233 c 0,4,5
 39 323 39 323 81 393.5 c 128,-1,6
 123 464 123 464 197 505 c 128,-1,7
 271 546 271 546 367 546 c 0,8,9
 453 546 453 546 516 510.5 c 128,-1,10
 579 475 579 475 609 410 c 1,11,-1
 477 344 l 1,12,13
 460 382 460 382 429.5 399.5 c 128,-1,14
 399 417 399 417 357 417 c 0,15,16
 311 417 311 417 275 394.5 c 128,-1,17
 239 372 239 372 218 332.5 c 128,-1,18
 197 293 197 293 197 241 c 0,19,20
 197 186 197 186 229.5 153.5 c 128,-1,21
 262 121 262 121 322 121 c 0,22,23
 363 121 363 121 397 138.5 c 128,-1,24
 431 156 431 156 454 193 c 1,25,-1
 569 121 l 1,26,27
 531 60 531 60 463.5 26 c 128,-1,28
 396 -8 396 -8 313 -8 c 256,0,1
475 410 m 1,29,-1
 511 589 l 2,30,31
 520 638 520 638 546.5 673.5 c 128,-1,32
 573 709 573 709 610.5 729 c 128,-1,33
 648 749 648 749 693.5 752.5 c 128,-1,34
 739 756 739 756 786 739 c 1,35,-1
 747 627 l 1,36,37
 721 635 721 635 699 629 c 128,-1,38
 677 623 677 623 661.5 605 c 128,-1,39
 646 587 646 587 640 557 c 2,40,-1
 609 410 l 1,41,-1
 475 410 l 1,29,-1
EndSplineSet
Substitution2: "'smcp' Lowercase to Small Capitals lookup 49 subtable" uni0188.sc
Substitution2: "'aalt' Access All Alternates lookup 3 subtable" uni0188.sc
EndChar

StartChar: uni023C
Encoding: 572 572 637
Width: 611
GlyphClass: 2
Flags: W
AnchorPoint: "Anchor-3" 375 538 basechar 0
AnchorPoint: "Anchor-0" 292 0 basechar 0
LayerCount: 2
Fore
SplineSet
313 -8 m 256,0,1
 230 -8 230 -8 168.5 22 c 128,-1,2
 107 52 107 52 73 106 c 128,-1,3
 39 160 39 160 39 233 c 0,4,5
 39 323 39 323 81 393.5 c 128,-1,6
 123 464 123 464 197 505 c 128,-1,7
 271 546 271 546 367 546 c 0,8,9
 453 546 453 546 516 510.5 c 128,-1,10
 579 475 579 475 609 410 c 1,11,-1
 477 344 l 1,12,13
 460 382 460 382 429.5 399.5 c 128,-1,14
 399 417 399 417 357 417 c 0,15,16
 311 417 311 417 275 394.5 c 128,-1,17
 239 372 239 372 218 332.5 c 128,-1,18
 197 293 197 293 197 241 c 0,19,20
 197 186 197 186 229.5 153.5 c 128,-1,21
 262 121 262 121 322 121 c 0,22,23
 363 121 363 121 397 138.5 c 128,-1,24
 431 156 431 156 454 193 c 1,25,-1
 569 121 l 1,26,27
 531 60 531 60 463.5 26 c 128,-1,28
 396 -8 396 -8 313 -8 c 256,0,1
86 -76 m 1,29,-1
 509 615 l 1,30,-1
 587 615 l 1,31,-1
 163 -76 l 1,32,-1
 86 -76 l 1,29,-1
EndSplineSet
Substitution2: "'smcp' Lowercase to Small Capitals lookup 49 subtable" uni023C.sc
Substitution2: "'aalt' Access All Alternates lookup 3 subtable" uni023C.sc
EndChar

StartChar: d
Encoding: 100 100 638
Width: 712
GlyphClass: 2
Flags: W
AnchorPoint: "Anchor-4" 806 742 basechar 0
AnchorPoint: "Anchor-3" 355 538 basechar 0
AnchorPoint: "Anchor-1" 570 637 basechar 0
AnchorPoint: "Anchor-0" 318 0 basechar 0
LayerCount: 2
Fore
SplineSet
274 -8 m 0,0,1
 212 -8 212 -8 159 20.5 c 128,-1,2
 106 49 106 49 74 103 c 128,-1,3
 42 157 42 157 42 233 c 0,4,5
 42 301 42 301 64.5 358 c 128,-1,6
 87 415 87 415 128 457 c 128,-1,7
 169 499 169 499 223 522.5 c 128,-1,8
 277 546 277 546 339 546 c 0,9,10
 402 546 402 546 448 524 c 128,-1,11
 494 502 494 502 519.5 456.5 c 128,-1,12
 545 411 545 411 545 342 c 0,13,14
 545 268 545 268 527.5 204.5 c 128,-1,15
 510 141 510 141 475 93.5 c 128,-1,16
 440 46 440 46 389.5 19 c 128,-1,17
 339 -8 339 -8 274 -8 c 0,0,1
322 121 m 0,18,19
 368 121 368 121 403.5 143.5 c 128,-1,20
 439 166 439 166 459.5 205.5 c 128,-1,21
 480 245 480 245 480 298 c 0,22,23
 480 353 480 353 447.5 385 c 128,-1,24
 415 417 415 417 357 417 c 0,25,26
 312 417 312 417 276 394.5 c 128,-1,27
 240 372 240 372 219.5 332.5 c 128,-1,28
 199 293 199 293 199 240 c 0,29,30
 199 185 199 185 231.5 153 c 128,-1,31
 264 121 264 121 322 121 c 0,18,19
428 0 m 1,32,-1
 450 107 l 1,33,-1
 484 267 l 1,34,-1
 505 427 l 1,35,-1
 568 742 l 1,36,-1
 724 742 l 1,37,-1
 576 0 l 1,38,-1
 428 0 l 1,32,-1
EndSplineSet
Substitution2: "'ss01' Style Set 1 lookup 53 subtable" d.ss01
Substitution2: "'smcp' Lowercase to Small Capitals lookup 49 subtable" d.sc
AlternateSubs2: "'aalt' Access All Alternates lookup 4 subtable" d.sc d.ss01
EndChar

StartChar: uni0257
Encoding: 599 599 645
Width: 695
GlyphClass: 2
Flags: W
AnchorPoint: "Anchor-4" 804 742 basechar 0
AnchorPoint: "Anchor-1" 568 637 basechar 0
AnchorPoint: "Anchor-0" 317 0 basechar 0
LayerCount: 2
Fore
SplineSet
272 -8 m 0,0,1
 210 -8 210 -8 157 20.5 c 128,-1,2
 104 49 104 49 72 103 c 128,-1,3
 40 157 40 157 40 233 c 0,4,5
 40 301 40 301 62.5 358 c 128,-1,6
 85 415 85 415 126 457 c 128,-1,7
 167 499 167 499 221 522.5 c 128,-1,8
 275 546 275 546 337 546 c 0,9,10
 400 546 400 546 446 524 c 128,-1,11
 492 502 492 502 517.5 456.5 c 128,-1,12
 543 411 543 411 543 342 c 0,13,14
 543 268 543 268 525.5 204.5 c 128,-1,15
 508 141 508 141 473 93.5 c 128,-1,16
 438 46 438 46 387.5 19 c 128,-1,17
 337 -8 337 -8 272 -8 c 0,0,1
320 121 m 0,18,19
 366 121 366 121 401.5 143.5 c 128,-1,20
 437 166 437 166 457.5 205.5 c 128,-1,21
 478 245 478 245 478 298 c 0,22,23
 478 353 478 353 445.5 385 c 128,-1,24
 413 417 413 417 355 417 c 0,25,26
 310 417 310 417 274 394.5 c 128,-1,27
 238 372 238 372 217.5 332.5 c 128,-1,28
 197 293 197 293 197 240 c 0,29,30
 197 185 197 185 229.5 153 c 128,-1,31
 262 121 262 121 320 121 c 0,18,19
425 0 m 1,32,-1
 447 110 l 1,33,-1
 482 270 l 1,34,-1
 504 429 l 1,35,-1
 535 587 l 2,36,37
 545 637 545 637 575.5 673 c 128,-1,38
 606 709 606 709 648.5 729.5 c 128,-1,39
 691 750 691 750 740.5 752.5 c 128,-1,40
 790 755 790 755 837 738 c 1,41,-1
 798 625 l 1,42,43
 769 634 769 634 746 628 c 128,-1,44
 723 622 723 622 707 603 c 128,-1,45
 691 584 691 584 685 552 c 2,46,-1
 574 0 l 1,47,-1
 425 0 l 1,32,-1
EndSplineSet
Substitution2: "'ss01' Style Set 1 lookup 53 subtable" uni0257.ss01
Substitution2: "'smcp' Lowercase to Small Capitals lookup 49 subtable" uni0257.sc
AlternateSubs2: "'aalt' Access All Alternates lookup 4 subtable" uni0257.sc uni0257.ss01
EndChar

StartChar: uni1D91
Encoding: 7569 7569 646
Width: 711
GlyphClass: 2
Flags: W
AnchorPoint: "Anchor-4" 804 742 basechar 0
AnchorPoint: "Anchor-1" 568 637 basechar 0
AnchorPoint: "Anchor-0" 317 0 basechar 0
LayerCount: 2
Fore
SplineSet
668 -187 m 1,0,1
 613 -204 613 -204 562.5 -201.5 c 128,-1,2
 512 -199 512 -199 475 -177.5 c 128,-1,3
 438 -156 438 -156 421 -114.5 c 128,-1,4
 404 -73 404 -73 416 -12 c 2,5,-1
 439 109 l 1,6,-1
 481 268 l 1,7,-1
 504 429 l 1,8,-1
 535 587 l 2,9,10
 545 637 545 637 575.5 673 c 128,-1,11
 606 709 606 709 648.5 729.5 c 128,-1,12
 691 750 691 750 740.5 752.5 c 128,-1,13
 790 755 790 755 837 738 c 1,14,-1
 798 625 l 1,15,16
 769 634 769 634 745.5 628 c 128,-1,17
 722 622 722 622 706.5 603 c 128,-1,18
 691 584 691 584 685 552 c 2,19,-1
 572 -12 l 2,20,21
 563 -53 563 -53 590 -69.5 c 128,-1,22
 617 -86 617 -86 662 -71 c 1,23,-1
 668 -187 l 1,0,1
272 -8 m 0,24,25
 210 -8 210 -8 157 20.5 c 128,-1,26
 104 49 104 49 72 103 c 128,-1,27
 40 157 40 157 40 233 c 0,28,29
 40 301 40 301 62.5 358 c 128,-1,30
 85 415 85 415 126 457 c 128,-1,31
 167 499 167 499 221 522.5 c 128,-1,32
 275 546 275 546 337 546 c 0,33,34
 400 546 400 546 446 524 c 128,-1,35
 492 502 492 502 517.5 456.5 c 128,-1,36
 543 411 543 411 543 342 c 0,37,38
 543 268 543 268 525.5 204.5 c 128,-1,39
 508 141 508 141 473 93.5 c 128,-1,40
 438 46 438 46 387.5 19 c 128,-1,41
 337 -8 337 -8 272 -8 c 0,24,25
320 121 m 0,42,43
 366 121 366 121 401.5 143.5 c 128,-1,44
 437 166 437 166 457.5 205.5 c 128,-1,45
 478 245 478 245 478 298 c 0,46,47
 478 353 478 353 445.5 385 c 128,-1,48
 413 417 413 417 355 417 c 0,49,50
 310 417 310 417 274 394.5 c 128,-1,51
 238 372 238 372 217.5 332.5 c 128,-1,52
 197 293 197 293 197 240 c 0,53,54
 197 185 197 185 229.5 153 c 128,-1,55
 262 121 262 121 320 121 c 0,42,43
EndSplineSet
Substitution2: "'smcp' Lowercase to Small Capitals lookup 49 subtable" uni1D91.sc
Substitution2: "'aalt' Access All Alternates lookup 3 subtable" uni1D91.sc
EndChar

StartChar: uni0256
Encoding: 598 598 648
Width: 711
GlyphClass: 2
Flags: W
AnchorPoint: "Anchor-3" 417 538 basechar 0
AnchorPoint: "Anchor-0" 310 0 basechar 0
LayerCount: 2
Fore
SplineSet
272 -8 m 0,0,1
 210 -8 210 -8 157 20.5 c 128,-1,2
 104 49 104 49 72 103 c 128,-1,3
 40 157 40 157 40 233 c 0,4,5
 40 301 40 301 62.5 358 c 128,-1,6
 85 415 85 415 126 457 c 128,-1,7
 167 499 167 499 221 522.5 c 128,-1,8
 275 546 275 546 337 546 c 0,9,10
 404 546 404 546 452 521 c 128,-1,11
 500 496 500 496 523.5 443.5 c 128,-1,12
 547 391 547 391 540 308 c 0,13,14
 535 213 535 213 501 141.5 c 128,-1,15
 467 70 467 70 409.5 31 c 128,-1,16
 352 -8 352 -8 272 -8 c 0,0,1
320 121 m 0,17,18
 366 121 366 121 401.5 143.5 c 128,-1,19
 437 166 437 166 457.5 205.5 c 128,-1,20
 478 245 478 245 478 298 c 0,21,22
 478 353 478 353 445.5 385 c 128,-1,23
 413 417 413 417 355 417 c 0,24,25
 310 417 310 417 274 394.5 c 128,-1,26
 238 372 238 372 217.5 332.5 c 128,-1,27
 197 293 197 293 197 240 c 0,28,29
 197 185 197 185 229.5 153 c 128,-1,30
 262 121 262 121 320 121 c 0,17,18
668 -187 m 1,31,32
 613 -204 613 -204 563 -201.5 c 128,-1,33
 513 -199 513 -199 475.5 -177.5 c 128,-1,34
 438 -156 438 -156 421.5 -114.5 c 128,-1,35
 405 -73 405 -73 416 -12 c 2,36,-1
 440 109 l 1,37,-1
 482 268 l 1,38,-1
 511 428 l 1,39,-1
 574 742 l 1,40,-1
 723 742 l 1,41,-1
 572 -12 l 2,42,43
 563 -53 563 -53 590 -69.5 c 128,-1,44
 617 -86 617 -86 662 -71 c 1,45,-1
 668 -187 l 1,31,32
EndSplineSet
Substitution2: "'smcp' Lowercase to Small Capitals lookup 49 subtable" uni0256.sc
Substitution2: "'aalt' Access All Alternates lookup 3 subtable" uni0256.sc
EndChar

StartChar: uni018C
Encoding: 396 396 649
Width: 714
GlyphClass: 2
Flags: W
AnchorPoint: "Anchor-4" 806 742 basechar 0
AnchorPoint: "Anchor-3" 410 538 basechar 0
AnchorPoint: "Anchor-0" 318 0 basechar 0
LayerCount: 2
Fore
SplineSet
235 632 m 1,0,-1
 257 742 l 1,1,-1
 724 742 l 1,2,-1
 596 632 l 1,3,-1
 235 632 l 1,0,-1
273 -8 m 0,4,5
 211 -8 211 -8 157.5 20 c 128,-1,6
 104 48 104 48 71.5 101 c 128,-1,7
 39 154 39 154 39 230 c 0,8,9
 39 296 39 296 61.5 351.5 c 128,-1,10
 84 407 84 407 125 448 c 128,-1,11
 166 489 166 489 220 511.5 c 128,-1,12
 274 534 274 534 336 534 c 0,13,14
 400 534 400 534 446.5 513 c 128,-1,15
 493 492 493 492 519 447 c 128,-1,16
 545 402 545 402 545 332 c 0,17,18
 545 261 545 261 527 199 c 128,-1,19
 509 137 509 137 474 90.5 c 128,-1,20
 439 44 439 44 388.5 18 c 128,-1,21
 338 -8 338 -8 273 -8 c 0,4,5
321 120 m 0,22,23
 367 120 367 120 403 141.5 c 128,-1,24
 439 163 439 163 459 201 c 128,-1,25
 479 239 479 239 479 289 c 0,26,27
 479 344 479 344 446 375.5 c 128,-1,28
 413 407 413 407 354 407 c 0,29,30
 308 407 308 407 272 385.5 c 128,-1,31
 236 364 236 364 215.5 326 c 128,-1,32
 195 288 195 288 195 238 c 0,33,34
 195 183 195 183 228.5 151.5 c 128,-1,35
 262 120 262 120 321 120 c 0,22,23
429 0 m 1,36,-1
 450 104 l 1,37,-1
 484 261 l 1,38,-1
 504 419 l 1,39,-1
 569 742 l 1,40,-1
 724 742 l 1,41,-1
 576 0 l 1,42,-1
 429 0 l 1,36,-1
EndSplineSet
Substitution2: "'ss01' Style Set 1 lookup 53 subtable" uni018C.ss01
Substitution2: "'smcp' Lowercase to Small Capitals lookup 49 subtable" uni018C.sc
AlternateSubs2: "'aalt' Access All Alternates lookup 4 subtable" uni018C.sc uni018C.ss01
EndChar

StartChar: eth
Encoding: 240 240 652
Width: 623
GlyphClass: 1
Flags: W
LayerCount: 2
Fore
SplineSet
275 -6 m 0,0,1
 162 -6 162 -6 95 51 c 128,-1,2
 28 108 28 108 28 204 c 0,3,4
 28 275 28 275 58.5 329.5 c 128,-1,5
 89 384 89 384 144 415 c 128,-1,6
 199 446 199 446 271 446 c 0,7,8
 326 446 326 446 373 426.5 c 128,-1,9
 420 407 420 407 442 375 c 1,10,11
 432 434 432 434 395.5 491.5 c 128,-1,12
 359 549 359 549 302.5 600.5 c 128,-1,13
 246 652 246 652 175 689 c 1,14,-1
 286 750 l 1,15,16
 380 705 380 705 447.5 638 c 128,-1,17
 515 571 515 571 552 489 c 128,-1,18
 589 407 589 407 589 318 c 0,19,20
 589 222 589 222 550 149 c 128,-1,21
 511 76 511 76 440 35 c 128,-1,22
 369 -6 369 -6 275 -6 c 0,0,1
284 114 m 0,23,24
 323 114 323 114 352.5 130 c 128,-1,25
 382 146 382 146 398.5 174 c 128,-1,26
 415 202 415 202 415 238 c 0,27,28
 415 283 415 283 386.5 309 c 128,-1,29
 358 335 358 335 308 335 c 0,30,31
 270 335 270 335 240.5 319 c 128,-1,32
 211 303 211 303 194.5 275 c 128,-1,33
 178 247 178 247 178 210 c 0,34,35
 178 166 178 166 206.5 140 c 128,-1,36
 235 114 235 114 284 114 c 0,23,24
162 483 m 1,37,-1
 136 546 l 1,38,-1
 575 730 l 1,39,-1
 602 667 l 1,40,-1
 162 483 l 1,37,-1
EndSplineSet
Substitution2: "'smcp' Lowercase to Small Capitals lookup 49 subtable" eth.sc
Substitution2: "'aalt' Access All Alternates lookup 3 subtable" eth.sc
EndChar

StartChar: e
Encoding: 101 101 653
Width: 648
GlyphClass: 2
Flags: W
AnchorPoint: "Anchor-3" 377 537 basechar 0
AnchorPoint: "Anchor-2" 483 0 basechar 0
AnchorPoint: "Anchor-0" 303 0 basechar 0
LayerCount: 2
Fore
SplineSet
315 -8 m 0,0,1
 231 -8 231 -8 169.5 22 c 128,-1,2
 108 52 108 52 74 106 c 128,-1,3
 40 160 40 160 40 233 c 0,4,5
 40 323 40 323 80.5 393.5 c 128,-1,6
 121 464 121 464 192.5 505 c 128,-1,7
 264 546 264 546 357 546 c 0,8,9
 432 546 432 546 493 516.5 c 0,10,11
 540.80078125 493.711914062 540.80078125 493.711914062 570 454 c 0,12,13
 618 386 618 386 613 268 c 5,14,-1
 72 160 l 5,15,-1
 66 252 l 5,16,-1
 528 347 l 5,17,-1
 467 290 l 1,18,19
 475 335 475 335 462 365.5 c 128,-1,20
 449 396 449 396 420 412.5 c 128,-1,21
 391 429 391 429 350 429 c 0,22,23
 299 429 299 429 263.5 404.5 c 128,-1,24
 228 380 228 380 210 337 c 128,-1,25
 192 294 192 294 192 240 c 0,26,27
 192 178 192 178 226.5 147.5 c 128,-1,28
 261 117 261 117 331 117 c 0,29,30
 372 117 372 117 410 130 c 128,-1,31
 448 143 448 143 475 167 c 1,32,-1
 540 64 l 1,33,34
 493 27 493 27 434.5 9.5 c 128,-1,35
 376 -8 376 -8 315 -8 c 0,0,1
EndSplineSet
Substitution2: "'ss01' Style Set 1 lookup 53 subtable" e.ss01
Substitution2: "'smcp' Lowercase to Small Capitals lookup 49 subtable" e.sc
AlternateSubs2: "'aalt' Access All Alternates lookup 4 subtable" e.sc e.ss01
EndChar

StartChar: eogonek
Encoding: 281 281 676
Width: 648
GlyphClass: 2
Flags: W
AnchorPoint: "Anchor-3" 378 537 basechar 0
LayerCount: 2
Fore
SplineSet
370 -232 m 0,0,1
 316 -232 316 -232 282 -206 c 128,-1,2
 248 -180 248 -180 248 -133 c 0,3,4
 248 -102 248 -102 263 -73.5 c 128,-1,5
 278 -45 278 -45 304.5 -21 c 128,-1,6
 331 3 331 3 367 20 c 1,7,-1
 389 1 l 1,8,9
 367 -4 367 -4 349 -6 c 128,-1,10
 331 -8 331 -8 315 -8 c 0,11,12
 232 -8 232 -8 170 22 c 128,-1,13
 108 52 108 52 74 106 c 128,-1,14
 40 160 40 160 40 233 c 0,15,16
 40 323 40 323 80.5 393.5 c 128,-1,17
 121 464 121 464 192.5 505 c 128,-1,18
 264 546 264 546 357 546 c 0,19,20
 436 546 436 546 493 516.5 c 128,-1,21
 550 487 550 487 586.5 426.5 c 128,-1,22
 623 366 623 366 613 268 c 1,23,-1
 72 160 l 1,24,-1
 80 256 l 1,25,-1
 528 347 l 1,26,-1
 467 290 l 1,27,28
 475 335 475 335 462 365.5 c 128,-1,29
 449 396 449 396 420 412.5 c 128,-1,30
 391 429 391 429 350 429 c 0,31,32
 299 429 299 429 263.5 404.5 c 128,-1,33
 228 380 228 380 210 337 c 128,-1,34
 192 294 192 294 192 240 c 0,35,36
 192 178 192 178 226.5 147.5 c 128,-1,37
 261 117 261 117 332 117 c 0,38,39
 373 117 373 117 410.5 129.5 c 128,-1,40
 448 142 448 142 475 167 c 1,41,-1
 540 64 l 1,42,43
 528 54 528 54 513.5 45.5 c 128,-1,44
 499 37 499 37 488 30 c 0,45,46
 418 -7 418 -7 383 -41.5 c 128,-1,47
 348 -76 348 -76 348 -110 c 0,48,49
 348 -130 348 -130 361 -141.5 c 128,-1,50
 374 -153 374 -153 396 -153 c 0,51,52
 412 -153 412 -153 428.5 -148.5 c 128,-1,53
 445 -144 445 -144 457 -138 c 1,54,-1
 468 -209 l 1,55,56
 449 -219 449 -219 424.5 -225.5 c 128,-1,57
 400 -232 400 -232 370 -232 c 0,0,1
EndSplineSet
Substitution2: "'ss01' Style Set 1 lookup 53 subtable" eogonek.ss01
Substitution2: "'smcp' Lowercase to Small Capitals lookup 49 subtable" eogonek.sc
Substitution2: "'locl' Localized Forms in Latin lookup 18 subtable" eogonek.loclNAV
AlternateSubs2: "'aalt' Access All Alternates lookup 4 subtable" eogonek.loclNAV eogonek.sc eogonek.ss01
EndChar

StartChar: uni025B
Encoding: 603 603 677
Width: 592
GlyphClass: 2
Flags: W
AnchorPoint: "Anchor-3" 374 538 basechar 0
AnchorPoint: "Anchor-2" 346 0 basechar 0
AnchorPoint: "Anchor-0" 267 0 basechar 0
LayerCount: 2
Fore
SplineSet
266 -9 m 0,0,1
 201 -9 201 -9 145.5 7 c 128,-1,2
 90 23 90 23 56 57 c 128,-1,3
 22 91 22 91 22 145 c 0,4,5
 22 194 22 194 51.5 228.5 c 128,-1,6
 81 263 81 263 131 281 c 128,-1,7
 181 299 181 299 243 299 c 1,8,-1
 241 265 l 1,9,10
 171 265 171 265 129 297 c 128,-1,11
 87 329 87 329 87 387 c 0,12,13
 87 429 87 429 109 459.5 c 128,-1,14
 131 490 131 490 169.5 509.5 c 128,-1,15
 208 529 208 529 256 538 c 128,-1,16
 304 547 304 547 356 547 c 0,17,18
 419 547 419 547 478.5 534.5 c 128,-1,19
 538 522 538 522 580 499 c 1,20,-1
 521 391 l 1,21,22
 502 401 502 401 473.5 410 c 128,-1,23
 445 419 445 419 412.5 424 c 128,-1,24
 380 429 380 429 349 429 c 0,25,26
 320 429 320 429 295 423.5 c 128,-1,27
 270 418 270 418 255 404.5 c 128,-1,28
 240 391 240 391 240 370 c 0,29,30
 240 354 240 354 248.5 344 c 128,-1,31
 257 334 257 334 273.5 328.5 c 128,-1,32
 290 323 290 323 315 323 c 2,33,-1
 426 323 l 1,34,-1
 407 226 l 1,35,-1
 277 226 l 2,36,37
 254 226 254 226 233.5 220.5 c 128,-1,38
 213 215 213 215 199.5 202.5 c 128,-1,39
 186 190 186 190 186 169 c 0,40,41
 186 147 186 147 200.5 134.5 c 128,-1,42
 215 122 215 122 239 116 c 128,-1,43
 263 110 263 110 293 110 c 0,44,45
 326 110 326 110 362.5 116 c 128,-1,46
 399 122 399 122 432 131.5 c 128,-1,47
 465 141 465 141 487 151 c 1,48,-1
 511 41 l 1,49,50
 456 17 456 17 392 4 c 128,-1,51
 328 -9 328 -9 266 -9 c 0,0,1
EndSplineSet
Substitution2: "'smcp' Lowercase to Small Capitals lookup 49 subtable" uni025B.sc
Substitution2: "'aalt' Access All Alternates lookup 3 subtable" uni025B.sc
EndChar

StartChar: uni0258
Encoding: 600 600 679
Width: 648
GlyphClass: 2
Flags: W
AnchorPoint: "Anchor-3" 370 537 basechar 0
AnchorPoint: "Anchor-0" 260 0 basechar 0
LayerCount: 2
Fore
SplineSet
333 546 m 0,0,1
 417 546 417 546 479 516 c 128,-1,2
 541 486 541 486 574.5 432 c 128,-1,3
 608 378 608 378 608 305 c 0,4,5
 608 215 608 215 567.5 144.5 c 128,-1,6
 527 74 527 74 456 33 c 128,-1,7
 385 -8 385 -8 291 -8 c 0,8,9
 213 -8 213 -8 155.5 21.5 c 128,-1,10
 98 51 98 51 66.5 104 c 128,-1,11
 35 157 35 157 35 229 c 0,12,13
 35 251 35 251 37.5 271.5 c 128,-1,14
 40 292 40 292 44 311 c 1,15,-1
 489 311 l 1,16,-1
 473 220 l 1,17,-1
 117 220 l 1,18,-1
 182 248 l 1,19,20
 174 204 174 204 187 173 c 128,-1,21
 200 142 200 142 229 125.5 c 128,-1,22
 258 109 258 109 298 109 c 0,23,24
 349 109 349 109 384.5 133.5 c 128,-1,25
 420 158 420 158 438 201.5 c 128,-1,26
 456 245 456 245 456 298 c 0,27,28
 456 360 456 360 422 390.5 c 128,-1,29
 388 421 388 421 317 421 c 0,30,31
 276 421 276 421 238.5 408.5 c 128,-1,32
 201 396 201 396 173 371 c 1,33,-1
 108 474 l 1,34,35
 155 511 155 511 213.5 528.5 c 128,-1,36
 272 546 272 546 333 546 c 0,0,1
EndSplineSet
Substitution2: "'ss01' Style Set 1 lookup 53 subtable" uni0258.ss01
Substitution2: "'smcp' Lowercase to Small Capitals lookup 49 subtable" uni0258.sc
AlternateSubs2: "'aalt' Access All Alternates lookup 4 subtable" uni0258.sc uni0258.ss01
EndChar

